<svg width="55" height="58" viewBox="0 0 55 58" fill="none" xmlns="http://www.w3.org/2000/svg">
<path d="M53.0504 34.9558L51.1493 33.8338C51.4711 32.2105 51.629 30.5872 51.629 28.9997C51.629 27.4122 51.4711 25.7591 51.1552 24.1597L53.0504 23.0436C53.6354 22.6975 54.0565 22.1425 54.232 21.4741C54.4075 20.8056 54.3197 20.1074 53.9805 19.5106L48.7978 10.3497C48.4586 9.7529 47.9146 9.3232 47.2594 9.14416C46.6043 8.96512 45.9199 9.05464 45.3349 9.40078L43.4397 10.5168C41.0414 8.36832 38.222 6.70325 35.2212 5.66481V3.43875C35.2212 2.01239 34.0805 0.848633 32.6825 0.848633H22.3172C20.9192 0.848633 19.7785 2.01239 19.7785 3.43875V5.66481C16.7953 6.69728 13.9758 8.36235 11.5717 10.5228L9.66477 9.40078C9.07983 9.05464 8.39544 8.96512 7.74029 9.14416C7.08515 9.3232 6.54115 9.7529 6.20188 10.3497L1.01338 19.5046C0.674114 20.1014 0.586371 20.7997 0.761856 21.4681C0.937341 22.1365 1.3585 22.6915 1.94345 23.0377L3.84454 24.1597C3.52281 25.783 3.36488 27.4062 3.36488 28.9937C3.36488 30.5812 3.52281 32.2344 3.83869 33.8338L1.94345 34.9498C0.732609 35.666 0.317295 37.2475 1.01338 38.4888L6.19603 47.6497C6.89797 48.8851 8.44808 49.3088 9.66477 48.5986L11.56 47.4826C13.9583 49.6311 16.7777 51.2962 19.7785 52.3346V54.5607C19.7785 55.987 20.9192 57.1508 22.3172 57.1508H32.6825C34.0805 57.1508 35.2212 55.987 35.2212 54.5607V52.3346C38.2044 51.3021 41.0239 49.6371 43.428 47.4767L45.3349 48.5986C46.5458 49.3148 48.1017 48.8851 48.8037 47.6497L53.9863 38.4888C54.6883 37.2535 54.2671 35.666 53.0563 34.9498L53.0504 34.9558ZM52.5766 37.6652L47.394 46.8261C47.1424 47.2737 46.5809 47.4289 46.1422 47.1663L43.7263 45.74C43.4163 45.5609 43.0302 45.6027 42.7729 45.8474C40.2985 48.1809 37.327 49.9414 34.1741 50.9381C33.8349 51.0455 33.6067 51.3678 33.6067 51.7259V54.5487C33.6067 55.068 33.1973 55.4857 32.6884 55.4857H22.3231C21.8142 55.4857 21.4047 55.068 21.4047 54.5487V51.7259C21.4047 51.3618 21.1707 51.0455 20.8373 50.9381C17.661 49.9355 14.6836 48.1749 12.2268 45.8534C12.0748 45.7101 11.8759 45.6325 11.677 45.6325C11.5366 45.6325 11.3962 45.6683 11.2734 45.7459L8.86924 47.1663C8.43053 47.4229 7.86898 47.2678 7.61745 46.8261L2.41726 37.6712C2.16573 37.2236 2.31782 36.6507 2.75068 36.3941L5.15482 34.9796C5.45899 34.8006 5.61693 34.4366 5.54089 34.0844C5.17237 32.4074 4.98519 30.7006 4.98519 29.0116C4.98519 27.3227 5.17822 25.6397 5.55259 23.9388C5.62863 23.5867 5.47654 23.2227 5.16652 23.0436L2.75068 21.6233C2.5401 21.4979 2.38801 21.295 2.32367 21.0563C2.25932 20.8176 2.29442 20.5609 2.41726 20.3461L7.59991 11.1852C7.72274 10.9704 7.92163 10.8152 8.15561 10.7496C8.38959 10.6839 8.64111 10.7197 8.8517 10.845L11.2675 12.2714C11.5776 12.4504 11.9636 12.4087 12.221 12.164C14.6953 9.83048 17.6669 8.06992 20.8197 7.07326C21.159 6.96584 21.3871 6.64357 21.3871 6.28548V3.44471C21.3871 2.9255 21.7966 2.50774 22.3055 2.50774H32.6708C33.1797 2.50774 33.5892 2.9255 33.5892 3.44471V6.26758C33.5892 6.63163 33.8232 6.94793 34.1566 7.05536C37.3328 8.05798 40.3102 9.81854 42.767 12.1401C43.0302 12.3848 43.4163 12.4325 43.7205 12.2475L46.1246 10.8271C46.3352 10.7018 46.5867 10.666 46.8207 10.7316C47.0547 10.7973 47.2536 10.9525 47.3764 11.1673L52.5591 20.3282C52.6819 20.543 52.717 20.7997 52.6526 21.0384C52.5883 21.2771 52.4362 21.48 52.2256 21.6054L49.8215 23.0198C49.5173 23.1988 49.3594 23.5629 49.4354 23.915C49.8039 25.592 49.9911 27.2988 49.9911 28.9878C49.9911 30.6767 49.7981 32.3597 49.4237 34.0546C49.3477 34.4067 49.4998 34.7708 49.8098 34.9498L52.2256 36.3702C52.6643 36.6268 52.8164 37.1997 52.5591 37.6473L52.5766 37.6652Z" fill="#003565"/>
<path d="M27.4999 12.3132C18.4799 12.3132 11.1447 19.803 11.1447 28.9997C11.1447 38.1964 18.4799 45.6862 27.4999 45.6862C36.5198 45.6862 43.855 38.1964 43.855 28.9997C43.855 19.803 36.5198 12.3132 27.4999 12.3132ZM27.4999 44.0391C19.3749 44.0391 12.7592 37.2952 12.7592 28.9997C12.7592 20.7042 19.3691 13.9603 27.4999 13.9603C35.6306 13.9603 42.2406 20.7042 42.2406 28.9997C42.2406 37.2952 35.6306 44.0391 27.4999 44.0391Z" fill="#003565"/>
<path d="M30.5182 24.649H27.494C27.0494 24.649 26.6868 25.019 26.6868 25.4726V32.5208C26.6868 32.9744 27.0494 33.3444 27.494 33.3444C27.9386 33.3444 28.3012 32.9744 28.3012 32.5208V30.7006H30.5123C32.1502 30.7006 33.4839 29.3399 33.4839 27.6688C33.4839 25.9978 32.1502 24.6371 30.5123 24.6371L30.5182 24.649ZM30.5182 29.0534H28.3071V26.3022H30.5182C31.2611 26.3022 31.8694 26.9169 31.8694 27.6808C31.8694 28.4447 31.2669 29.0594 30.5182 29.0594V29.0534Z" fill="#003565"/>
<path d="M23.0718 25.1862C22.9548 24.8639 22.6506 24.649 22.3114 24.649H21.4456C21.1064 24.649 20.808 24.8639 20.6852 25.1862L18.0939 32.2344C17.9359 32.6641 18.1465 33.1355 18.5677 33.2967C18.9889 33.4578 19.451 33.243 19.6089 32.8133L20.0593 31.5839H23.686L24.1364 32.8133C24.2592 33.1475 24.5693 33.3504 24.8968 33.3504C24.9904 33.3504 25.0899 33.3325 25.1835 33.2967C25.6046 33.1355 25.8152 32.6581 25.6573 32.2344L23.0659 25.1862H23.0718ZM20.6735 29.9367L21.8785 26.6543L23.0835 29.9367H20.6677H20.6735Z" fill="#003565"/>
<path d="M35.2738 24.649C34.8293 24.649 34.4666 25.0191 34.4666 25.4726V32.5208C34.4666 32.9744 34.8293 33.3444 35.2738 33.3444C35.7184 33.3444 36.0811 32.9744 36.0811 32.5208V25.4726C36.0811 25.0191 35.7184 24.649 35.2738 24.649Z" fill="#003565"/>
<path d="M33.2908 10.4691C33.8524 10.6541 34.414 10.8629 34.958 11.1017C35.0632 11.1494 35.1685 11.1673 35.2738 11.1673C35.5897 11.1673 35.888 10.9763 36.0167 10.666C36.1922 10.2482 35.9992 9.75886 35.5897 9.57982C34.9989 9.3232 34.3906 9.09641 33.7822 8.8935C33.3552 8.75624 32.8989 8.99496 32.7644 9.43062C32.6299 9.86629 32.8638 10.3318 33.2908 10.4691Z" fill="#003565"/>
<path d="M10.7586 38.2979C10.5422 37.898 10.0508 37.7488 9.65892 37.9696C9.26701 38.1904 9.12077 38.6917 9.3372 39.0916C9.67062 39.7182 10.045 40.3389 10.4428 40.9298C10.6007 41.1625 10.8522 41.2878 11.1096 41.2878C11.2675 41.2878 11.4255 41.2401 11.5659 41.1446C11.9344 40.888 12.028 40.3747 11.7764 39.9987C11.4079 39.4557 11.0687 38.8827 10.7586 38.3038V38.2979Z" fill="#003565"/>
<path d="M25.8386 48.3719C21.4983 47.9899 17.3802 46.0742 14.2391 42.9708C13.9173 42.6545 13.4026 42.6605 13.0926 42.9887C12.7825 43.317 12.7884 43.8421 13.1101 44.1584C16.5145 47.5244 20.9894 49.6072 25.6982 50.019C25.7216 50.019 25.745 50.019 25.7684 50.019C26.1837 50.019 26.5405 49.6968 26.5756 49.2611C26.6166 48.8075 26.2832 48.4077 25.8386 48.3659V48.3719Z" fill="#003565"/>
<path d="M39.152 11.5731C38.7835 11.3165 38.2805 11.412 38.0289 11.788C37.7774 12.164 37.871 12.6772 38.2395 12.9338C42.0007 15.5598 44.7207 19.4628 45.9023 23.9269C46.0018 24.2969 46.3293 24.5356 46.6862 24.5356C46.7564 24.5356 46.8266 24.5237 46.8967 24.5058C47.3296 24.3864 47.587 23.9329 47.47 23.4912C46.189 18.6452 43.2408 14.4139 39.1579 11.5672L39.152 11.5731Z" fill="#003565"/>
</svg>
