<svg width="250" height="131" viewBox="0 0 250 131" fill="none" xmlns="http://www.w3.org/2000/svg">
<g style="mix-blend-mode:multiply">
<path d="M144.47 80.33C142.37 80.98 140.55 81.92 139.44 83.29C135.97 87.54 142.68 93.41 146.31 95.3C150.94 97.7 156.23 98.49 161.12 100.33C168.66 103.16 175.03 108.36 181.59 113.02C185.77 115.99 190.39 118.22 195.12 120.16C199.69 122.04 204.73 121.29 209.61 122.42C218.82 124.55 238.72 136.8 246.44 126.35C250.13 121.37 247.9 116.79 242.83 114.99C235.57 112.41 228.38 109.64 221.28 106.68C219.64 106 217.96 105.28 216.65 104.07C215.33 102.86 214.47 101.23 213.33 99.85C208.98 94.58 201.75 93.51 196.09 90.24C193.29 88.62 191.91 86.03 189.52 84.24C186.09 81.67 179.77 80.14 175.56 80.06C169.44 79.96 163.36 79.07 157.23 78.96C154.09 78.91 148.69 79.02 144.45 80.33H144.47Z" fill="#B0B0B0"/>
</g>
<path d="M146.35 28.6401C146.15 28.7501 145.94 28.8601 145.75 28.9801C145.47 29.1501 145.27 29.3801 145.1 29.6601C144.45 30.7701 144.49 32.2701 144.55 33.5001C144.8 38.6101 145.29 41.0401 145 44.3701C144.71 47.7001 145.2 52.9501 145.22 54.0001C145.24 55.0501 147.03 59.7901 145.77 61.8401C144.51 63.8901 143.64 64.1101 143.64 64.1101C143.64 64.1101 143.68 62.4501 143.64 62.2001C143.6 61.9501 144.09 60.6101 143.45 60.9001C142.82 61.1901 142.33 61.1901 142.33 61.1901L143.01 58.4801L142.33 59.0901C142.33 59.0901 142.38 57.6201 142.72 57.1001C143.06 56.5701 143.24 57.0101 143.42 54.8401C143.59 52.6701 143.98 50.6701 143.98 50.6701C143.98 50.6701 143.98 40.1901 143.42 34.3201C143.23 32.3301 143.23 30.0801 144.13 28.2501C144.97 26.5401 146.83 26.2601 148.52 25.7401C149.43 25.4601 150.35 25.1901 151.28 24.9301C151.42 24.8901 151.56 24.8501 151.7 24.8801C151.84 24.9101 151.97 25.0401 151.95 25.1801C151.94 25.2901 151.85 25.3701 151.76 25.4401C150.68 26.3101 149.45 26.9901 148.24 27.6701C147.62 28.0101 146.97 28.3301 146.34 28.6601L146.35 28.6401Z" fill="#ECD8B6"/>
<path d="M143.46 60.8901C142.83 61.1801 142.34 61.1801 142.34 61.1801L143.02 58.4701L142.34 59.0801C142.34 59.0801 142.39 57.6101 142.73 57.0901C143.07 56.5601 143.25 57.0001 143.43 54.8301C143.52 53.6801 143.67 52.5801 143.79 51.8001C143.86 51.7601 144.32 51.2201 144.36 51.2301C144.6 51.3101 144.86 51.5401 145.09 51.8101C145.15 52.8501 145.21 53.6501 145.22 53.9901C145.24 55.0401 147.03 59.7801 145.77 61.8301C144.51 63.8801 143.64 64.1001 143.64 64.1001C143.64 64.1001 143.69 62.4401 143.64 62.1901C143.6 61.9401 144.09 60.6001 143.45 60.8901H143.46Z" fill="#F9F2E7"/>
<path d="M165.55 39.2903C165.55 39.2903 163.62 32.7403 167 31.1403C170.38 29.5403 176.24 35.4003 178.75 39.0703C181.26 42.7403 181.3 42.9903 179.46 50.0603C177.62 57.1303 172.05 57.6103 171.41 60.3403C170.77 63.0703 169.03 65.2503 168.06 66.9103C167.09 68.5703 167.35 74.8603 167.61 76.4803C167.81 77.7703 168.38 79.0403 168.82 80.2503C168.91 80.5003 169.24 81.0603 169.21 81.3203C169.16 81.6803 168.81 81.7103 168.43 81.8203C167.83 81.9803 166.34 82.3203 165.78 81.9203C165.35 81.6203 163.81 80.4503 163.64 79.9803C163.29 79.0003 164.23 78.0503 164.07 77.0203C164.01 76.6103 164.2 65.3403 163.68 62.9703C163.16 60.6003 162.78 58.6803 163.16 57.9403C163.55 57.2003 164.51 54.1403 165.22 50.6303C165.93 47.1203 165.54 39.2803 165.54 39.2803L165.55 39.2903Z" fill="#E6DBBC"/>
<path d="M206.61 93.25C206.42 92.73 206.22 92.2 206.11 91.65C205.68 89.56 205.81 87.4 205.57 85.28C205.04 80.63 202.32 76.04 201.47 71.64C200.61 67.24 207.31 56.09 207.31 56.09C207.31 56.09 210.85 51.36 212.3 53.94C213.75 56.52 216.05 60.17 216.8 64.2C217.54 68.23 211.27 76.99 211.14 78.57C211.01 80.19 210.86 81.81 210.72 83.43C210.72 84.71 210.15 85.97 210.16 87.27C210.16 88.76 210.81 90.19 210.82 91.7C210.82 93.46 210.01 94.89 210.17 96.69C210.35 98.72 210.99 100.66 211.72 102.55C212.08 103.5 212.52 104.29 213.09 105.14C213.63 105.93 213.85 106.7 213.74 107.78C213.74 107.82 213.74 107.86 213.71 107.89C213.67 107.93 213.61 107.94 213.55 107.94C211.92 108.04 210.16 108.26 208.77 107.22C208.3 106.87 207.81 106.49 207.59 105.95C207.28 105.21 207.42 104.97 207.27 104.12C207.18 103.62 207.98 102.98 207.78 102.51C207.71 102.35 207.6 102.22 207.51 102.07C206.73 100.83 207.56 99.4 207.53 98.11C207.5 96.94 207.34 95.68 207.05 94.54C206.94 94.09 206.78 93.66 206.62 93.23L206.61 93.25Z" fill="#E6DBBC"/>
<path d="M146.46 30.6302C146.49 30.8302 146.56 31.0102 146.66 31.1602C147 31.6802 147.67 32.0202 148.27 32.2702C150.43 33.1702 152.09 33.9602 153.81 35.6802C155.32 36.9402 156.87 38.2602 157.72 40.0302C159.32 43.3502 158.37 46.3702 158.56 49.8102C158.7 52.5002 160.97 55.7102 162.36 58.0502C162.39 58.0902 162.41 58.1202 162.43 58.1602C164.9 62.3602 168.45 66.3502 172.4 69.2402C175.35 71.4002 177.59 71.9302 179.25 71.6202C180.74 71.3402 181.78 70.3902 182.49 69.3402C183.88 70.2402 185.69 71.3602 187.72 72.4802C187.98 72.6202 188.22 72.7502 188.46 72.8802C188.91 73.1202 189.37 73.3702 189.84 73.6102C192.67 75.0502 195.72 76.3502 198.45 76.9702C199.98 77.3202 201.36 78.0702 202.61 79.0202C203.69 79.8302 204.68 80.8002 205.6 81.7702C206.09 82.3002 206.54 82.7802 206.89 83.2802C207.34 83.9002 207.66 84.5902 207.81 85.4902C207.95 86.3402 208.61 88.5902 209.47 88.9302C209.89 89.0902 210.37 89.0402 210.82 88.9902C211 88.9702 211.17 88.9402 211.35 88.9202C211.86 88.8502 212.37 88.7902 212.88 88.7202C213.23 88.6702 213.58 88.6302 213.94 88.5802C214.62 88.4902 212.5 86.4302 213.16 86.2402C214.55 85.8502 215.77 85.0402 216.97 84.2302C217.9 83.6102 221.34 85.0602 221.59 84.0002C221.86 82.9102 221.89 81.8102 222.41 80.7702C223.16 79.2702 224.56 77.9802 224.97 76.3302C225.46 74.3302 224.48 71.8402 223.86 69.9802C223.24 68.1002 222.61 66.2302 221.99 64.3502C221.52 62.9302 221.24 61.0702 220.56 59.7602C219.35 57.4302 216.25 56.6102 215.09 54.0402C214.73 53.2402 214.5 52.3702 214.06 51.6102C213.09 49.9302 211.07 48.4702 209.31 47.7702C205.28 46.1702 202.06 43.3002 198.08 41.5702C191.77 38.8202 185.49 35.8602 178.99 33.5302C178.13 33.2202 177.25 32.9202 176.46 32.4602C175.57 31.9402 174.8 31.2302 174.03 30.5302C170.05 26.8602 164.09 19.3002 157.74 22.3502C156.98 22.7102 156.29 23.2202 155.54 23.6102C153.55 24.6202 151.16 23.8902 149.81 25.9002C149.04 27.0402 146.29 29.2402 146.49 30.6502L146.46 30.6302Z" fill="#F5EAD8"/>
<path d="M147.73 49.31C148.43 54.26 148.58 54.8 151.45 58.72L151.47 58.74C151.75 58.92 154.22 59.33 154.34 59.47C157.56 63.4 166.37 69.67 166.37 69.67C166.37 69.67 177.07 77.32 185.06 79.13C186.27 79.4 187.66 79.94 189.12 80.65C192.32 82.21 195.85 84.64 198.58 87.1C199.63 88.04 200.56 88.99 201.3 89.89C202.67 91.55 207.37 90.46 211.33 88.9C213.96 87.87 216.26 86.62 217.01 85.84C219.42 83.32 220.63 80.96 221.09 78.72C222 74.33 220.08 70.42 218.89 66.8C217.09 61.32 201.59 59.18 196.43 57.24C191.28 55.3 193.05 52.39 184.67 48.74C179.78 46.61 174.49 44.83 170.41 41.26C168.42 39.52 166.83 37.35 166.06 34.78C165.15 31.67 163.8 29.49 160.74 27.9C160.27 27.66 159.79 27.45 159.28 27.34C158.8 27.24 158.3 27.23 157.8 27.22C155.25 27.17 151.87 26.36 149.7 27.82C148.43 28.68 147.31 29.8 146.64 31.15C146.28 31.87 146.05 32.67 146 33.51C145.61 40.24 146.98 44.13 147.71 49.29L147.73 49.31Z" fill="#F5EAD8"/>
<g style="mix-blend-mode:multiply">
<path d="M151.58 58.7402C151.63 58.9502 151.71 59.1202 151.82 59.2502C155.04 63.1802 166.38 69.7302 166.38 69.7302C166.38 69.7302 177.08 77.3902 185.07 79.1902C186.11 79.4302 187.68 79.9102 188.53 80.5702C189.47 81.2902 189.73 82.7602 190.14 83.8002C190.28 84.1702 190.44 84.5302 190.62 84.8802C191.97 87.6402 194.2 89.9202 196.53 91.9602C197.23 92.5802 197.96 93.1902 198.72 93.7302C198.49 92.4202 198.33 91.1602 198.41 89.7602C198.47 88.8702 198.54 87.9802 198.59 87.1002C199.64 88.0402 200.57 88.9902 201.31 89.8902C202.68 91.5502 207.38 90.4602 211.34 88.9002C211.85 88.8302 212.36 88.7702 212.87 88.7002C213.22 88.6502 213.57 88.6102 213.93 88.5602C214.61 88.4702 212.49 86.4102 213.15 86.2202C214.54 85.8302 215.76 85.0202 216.96 84.2102C217.89 83.5902 221.33 85.0402 221.58 83.9802C221.85 82.8902 221.88 81.7902 222.4 80.7502C221.87 79.1002 221.58 77.7202 220.08 76.7202C219.43 76.2902 218.79 75.8602 218.14 75.4302C217.51 75.0102 216.85 74.5802 216.11 74.4402C215.06 74.2402 213.95 74.6702 213.16 75.3802C212.36 76.0902 211.83 77.0602 211.45 78.0602C211.25 78.5902 211.08 79.1402 210.81 79.6402C210.42 80.3602 209.84 80.9502 209.21 81.4602C208.52 82.0102 207.85 82.5102 206.96 82.5602C204.82 82.6802 203.1 80.1702 202.63 78.2102C202.46 77.5002 202.45 76.7602 202.41 76.0302C202.35 74.8902 202.2 73.7602 201.97 72.6502C201.86 72.1302 201.65 71.5102 201.12 71.3902C200.77 71.3102 200.41 71.5002 200.12 71.7102C198.76 72.6702 197.83 74.2202 197.62 75.8802C197.39 77.7202 196.83 77.1302 195.85 76.2702C194.77 75.3102 193.33 74.6802 192.06 74.0102C190.3 73.0902 188.25 72.5602 186.38 71.9702C184.21 71.2802 181.81 72.1402 179.59 71.6702C179.48 71.6502 179.37 71.6202 179.26 71.6002C176.19 70.8302 173.57 68.6002 171.23 66.5802C170.23 65.7202 168.74 64.8602 168.02 63.7902C167.17 62.5402 167.37 60.6302 167.11 59.2002C166.94 58.2302 166.44 57.4502 166.23 56.5102C165.92 55.1702 165.71 53.8002 165.45 52.4502C165.23 51.2902 165 50.1102 164.58 49.0102C164.07 47.6702 163.27 46.4502 162.49 45.2402C161.75 44.1102 160.97 42.9402 159.82 42.2302C158.89 41.6602 157.8 41.4502 156.73 41.2402C155.93 41.0802 155.12 40.9302 154.32 40.7702C153.05 40.5202 151.48 40.3902 150.72 41.4302C150.41 41.8602 150.31 42.4002 150.25 42.9202C149.93 45.6102 150.28 48.3702 151.27 50.8902C151.78 52.1902 152.67 53.6502 152.2 55.0602C151.8 56.2602 151.27 57.3502 151.61 58.6902L151.58 58.7402Z" fill="#E5DDCD"/>
</g>
<g style="mix-blend-mode:multiply">
<path d="M151.24 47.9404C151.75 49.2404 152.64 50.7004 152.17 52.1104C152.1 52.3104 152.04 52.5004 151.97 52.6904C151.75 52.0904 151.47 51.5004 151.25 50.9504C150.31 48.5604 149.96 45.9404 150.2 43.3804C150.34 44.9404 150.67 46.4804 151.25 47.9404H151.24Z" fill="#E5DDCD"/>
</g>
<g style="mix-blend-mode:multiply">
<path d="M198.47 88.9402C198.4 88.2302 198.37 87.5202 198.41 86.7702C198.47 85.8802 198.54 84.9902 198.59 84.1102C199.64 85.0502 200.57 86.0002 201.31 86.9002C202.57 88.4402 204.9 87.6402 206.37 86.9502C208.3 86.0502 210.29 85.8302 211.84 84.1302C212.65 83.2402 213.09 81.9602 213.93 81.1302C214.5 80.5702 215.29 80.2802 215.88 79.6902C216.51 79.0502 216.44 78.4402 216.82 77.7202C217.65 77.8002 218.45 78.1702 219.05 78.7602C219.71 79.4102 221.54 81.4702 221.91 79.3402C222 79.5802 222.48 80.5602 222.38 80.7802C221.86 81.8202 221.83 82.9202 221.56 84.0102C221.3 85.0702 217.86 83.6202 216.93 84.2402C215.74 85.0502 214.51 85.8602 213.12 86.2502C212.46 86.4402 214.59 88.5102 213.91 88.5902C213.56 88.6402 213.21 88.6802 212.85 88.7302C212.34 88.8002 211.83 88.8602 211.32 88.9302C207.37 90.4902 202.66 91.5802 201.29 89.9202C200.55 89.0102 199.61 88.0602 198.57 87.1302C198.53 87.7402 198.49 88.3502 198.45 88.9602L198.47 88.9402Z" fill="#E5DDCD"/>
</g>
<path d="M209.99 85.4303H210.01C210.67 86.2303 211.45 87.0103 212.39 87.7903C213.8 88.9803 214.5 89.6003 214.81 89.8803C214.83 89.8803 214.83 89.8903 214.83 89.8903C214.77 89.8803 214.72 89.8603 214.71 89.8803C214.71 89.8903 214.73 89.8903 214.74 89.9103C214.89 90.0203 215.27 90.2903 214.85 89.8903C215.11 89.9403 215.71 90.0603 216.55 90.2103C222.57 91.3103 240.91 94.3803 236.73 89.8803C236.65 89.7903 236.56 89.7003 236.49 89.6103C228.83 81.1403 225.67 67.1803 225.67 67.1803C225.67 67.1803 218.84 54.1503 218.18 59.7703C217.95 61.6103 200.42 74.1303 210 85.4203L209.99 85.4303Z" fill="#F5EAD8"/>
<path d="M248.77 94.0305C248.61 93.9805 248.44 93.9505 248.29 93.9305C247.5 93.8305 246.61 94.2205 245.91 94.5305C243.58 95.5705 243.64 96.1305 242.44 96.4005C241.24 96.6705 240.85 97.4905 240.72 98.2205C240.59 98.9505 240.73 100.411 241.84 100.461C242.95 100.511 244.67 100.791 247.27 97.8605C248.02 97.0205 248.98 96.1005 249.43 95.0505C249.68 94.4605 249.26 94.1705 248.77 94.0205V94.0305Z" fill="#F6EDDE"/>
<g style="mix-blend-mode:multiply">
<path d="M242.07 99.6802C243.08 99.7402 244.47 99.8102 246.67 97.3302L247.11 96.8502C247.71 96.2002 248.33 95.5302 248.65 94.8302C248.62 94.8202 248.58 94.8102 248.54 94.7902C248.47 94.7702 248.4 94.7502 248.33 94.7402C247.6 94.6502 246.77 95.0102 246.23 95.2602C245.12 95.7502 244.6 96.1202 244.19 96.4202C243.74 96.7402 243.36 97.0102 242.61 97.1802C241.95 97.3302 241.62 97.6802 241.5 98.3602C241.42 98.8302 241.53 99.6102 241.83 99.6602L242.08 99.6802H242.07Z" fill="#E5DDCD"/>
</g>
<path d="M241.51 93.8403C241.51 93.7403 241.53 93.6503 241.57 93.5703C241.72 93.3003 242.32 93.0903 242.58 92.9203C243.48 92.2903 244.26 91.4903 244.84 90.5603C246.39 88.0803 245.61 93.6403 244.2 95.3403C243.95 95.6403 243.59 96.1703 243.23 96.3303C242.82 96.5203 242.53 96.1303 242.35 95.7803C242.22 95.5303 242.08 95.2803 241.95 95.0203C241.81 94.7503 241.51 94.2403 241.51 93.8403Z" fill="#54545B"/>
<g style="mix-blend-mode:multiply">
<path d="M151.82 56.2504C155.04 60.1804 166.38 66.7304 166.38 66.7304C166.38 66.7304 177.08 74.3904 185.07 76.1904C186.11 76.4304 187.68 76.9104 188.53 77.5704C189.47 78.2904 189.73 79.7604 190.14 80.8004C190.28 81.1704 190.44 81.5304 190.62 81.8804C191.97 84.6404 194.2 86.9204 196.53 88.9604C197.13 89.4904 197.75 90.0004 198.4 90.4904C198.4 91.6104 198.53 92.6604 198.72 93.7404C197.96 93.1904 197.23 92.5905 196.53 91.9705C194.2 89.9305 191.97 87.6504 190.62 84.8904C190.44 84.5404 190.28 84.1804 190.14 83.8104C189.73 82.7604 189.46 81.3004 188.53 80.5804C187.68 79.9204 186.12 79.4404 185.07 79.2004C177.08 77.4004 166.38 69.7404 166.38 69.7404C166.38 69.7404 155.04 63.2004 151.82 59.2604C151.71 59.1304 151.63 58.9504 151.58 58.7504C151.34 57.8204 151.53 57.0204 151.8 56.2104C151.8 56.2204 151.81 56.2404 151.82 56.2504Z" fill="#E5DDCD"/>
</g>
<path d="M188.85 79.5503C188.93 79.9303 189.02 80.2903 189.13 80.6603C189.52 82.1003 190.06 83.5003 190.62 84.8903C191 85.8403 191.39 86.7803 191.74 87.7403C192.17 88.8903 192.89 90.3103 192.79 91.5703C192.69 92.8003 192.57 93.9303 192.65 95.1903C192.68 95.5803 192.71 95.9603 192.78 96.3403C192.87 96.7503 193 97.1403 193.13 97.5403C193.54 98.7403 194.4 99.9803 194.56 101.24C194.69 102.35 194.76 103.6 194.44 104.69C194.35 104.98 194.24 105.27 194.22 105.57C194.18 106.05 194.35 106.53 194.34 107.02C194.32 107.85 193.78 108.57 193.75 109.38C193.72 110.18 193.92 111.01 193.96 111.82C193.98 112.18 193.99 112.54 194.11 112.88C194.24 113.28 194.5 113.64 194.79 113.95C196.33 115.63 196.83 114.65 198.81 113.27C198.94 113.17 200.97 114.71 201.02 114.55C201.05 114.43 201.04 114.31 201.02 114.18C200.89 113.53 200.53 112.94 200.28 112.32C200.13 111.97 200.02 111.6 199.92 111.23C199.26 108.97 198.33 106.74 198.06 104.38C197.94 103.29 197.71 102.19 198.15 101.17C198.72 99.8203 199.33 98.5303 199.28 97.0203C199.26 96.5003 199.17 95.9903 199.08 95.4803C198.97 94.8803 198.86 94.3003 198.76 93.7303C198.53 92.4203 198.37 91.1603 198.45 89.7603C198.51 88.8703 198.58 87.9803 198.63 87.1003C198.65 86.8203 198.67 86.5503 198.69 86.2703C198.72 85.7603 199.51 84.4003 200.55 82.6403C201.2 81.5403 201.94 80.3003 202.65 79.0103C204.41 75.8603 205.99 72.4703 205.59 70.5203C204.77 66.5103 202.9 63.4203 201.41 60.8703C199.91 58.3203 194.42 63.8703 194.42 63.8703C194.42 63.8703 191.51 68.9403 189.88 73.6003C189.86 73.6703 189.83 73.7503 189.81 73.8203C189.05 76.0303 188.6 78.1303 188.9 79.5303L188.85 79.5503Z" fill="#F5EAD8"/>
<path d="M199.76 113.26C199.83 113.21 200.38 113.58 200.91 113.94C200.93 114.02 200.98 114.09 200.99 114.18C201.02 114.3 201.03 114.43 200.99 114.55C200.96 114.66 199.99 113.97 199.35 113.56C199.48 113.46 199.6 113.37 199.75 113.27L199.76 113.26Z" fill="#E5DDCD"/>
<path d="M189.76 73.8403C189.78 73.7703 189.81 73.6903 189.83 73.6203C191.47 68.9603 194.38 63.8903 194.38 63.8903C194.38 63.8903 198.15 60.0803 200.29 60.2403C197.97 61.4303 195.35 63.8903 195.35 63.8903C195.35 63.8903 192.44 68.9603 190.81 73.6203C190.79 73.6903 190.76 73.7703 190.74 73.8403C189.98 76.0503 189.53 78.1503 189.83 79.5503C189.91 79.9203 190 80.2903 190.11 80.6603C190.5 82.1003 191.04 83.5003 191.6 84.8903C191.98 85.8403 192.37 86.7803 192.72 87.7403C193.15 88.8903 193.87 90.3103 193.76 91.5703C193.66 92.8003 192.8 93.8803 192.88 95.1403C192.91 95.5303 192.94 95.9103 193.01 96.2903C193.1 96.7003 193.23 97.0903 193.36 97.4903C193.77 98.6903 195.38 99.9903 195.53 101.25C195.66 102.36 195.73 103.61 195.41 104.7C195.32 104.99 195.21 105.28 195.19 105.58C195.15 106.06 195.32 106.54 195.31 107.03C195.29 107.86 194.75 108.58 194.72 109.39C194.69 110.19 194.89 111.02 194.93 111.83C194.95 112.19 194.96 112.55 195.08 112.89C195.21 113.29 195.47 113.65 195.76 113.96C196.13 114.36 196.43 114.6 196.71 114.73C196.11 114.98 195.59 114.84 194.79 113.96C194.51 113.64 194.24 113.29 194.11 112.89C194 112.55 193.98 112.19 193.96 111.83C193.92 111.03 193.72 110.2 193.75 109.39C193.78 108.58 194.32 107.85 194.34 107.03C194.35 106.54 194.18 106.06 194.22 105.58C194.25 105.28 194.36 104.99 194.44 104.7C194.76 103.62 194.69 102.37 194.56 101.25C194.41 99.9903 193.54 98.7503 193.13 97.5503C192.99 97.1502 192.86 96.7603 192.78 96.3503C192.71 95.9703 192.68 95.5803 192.65 95.2003C192.57 93.9403 192.69 92.8102 192.79 91.5802C192.89 90.3202 192.18 88.9003 191.74 87.7503C191.38 86.8003 191 85.8503 190.62 84.9003C190.06 83.5103 189.52 82.1203 189.13 80.6703C189.02 80.3103 188.93 79.9403 188.85 79.5603C188.55 78.1603 189 76.0603 189.76 73.8503V73.8403Z" fill="#E5DDCD"/>
<path d="M194.54 67.3502C194.74 65.8802 195.44 64.8602 196.13 63.8602C196.9 62.7502 197.72 61.6202 199.03 61.4102C199.41 62.3202 200.07 63.1202 200.71 63.8402C201.35 64.5602 202.03 65.3002 202.48 66.2002C202.93 67.0902 203.07 68.1902 202.58 68.5002C201.98 68.8802 200.9 67.9402 200.09 67.8702C199.12 67.7802 198.76 68.9702 198.84 70.2202C198.92 71.4702 199.32 72.8602 199.36 74.0802C199.42 75.9902 198.55 77.3602 197.17 77.5402C196.61 77.6102 195.96 77.5102 195.53 77.8402C194.88 78.3302 193.88 79.3902 193.46 77.1102C193.25 75.9502 193.6 75.1502 193.98 74.4502C195 72.5402 194.21 69.7902 194.54 67.3502Z" fill="#F9F2E7"/>
<path d="M154.63 60.8902C154.63 60.8902 152.87 69.1802 159.02 73.1402C166.54 77.9902 170.18 72.7102 170.18 72.2402C170.18 71.7702 167.1 63.8202 161.25 61.7702C155.4 59.7202 154.63 60.8802 154.63 60.8802V60.8902Z" fill="#FF866A"/>
<path d="M160.15 63.7603C160.15 63.7603 160.83 62.9803 161.79 62.0103C167.28 64.3503 170.17 71.8003 170.17 72.2503C170.17 72.3703 169.9 72.8403 169.38 73.3603C167.55 73.8903 164.98 73.7303 161.65 71.5903C155.5 67.6303 160.14 63.7603 160.14 63.7603H160.15Z" fill="#FFAB91"/>
<path d="M149.14 45.19C149.14 45.19 147.21 38.64 150.59 37.04C153.97 35.44 161.22 36.86 163.73 40.53C166.24 44.2 164.89 48.89 163.05 55.96C161.21 63.03 155.64 63.51 155 66.24C154.36 68.97 152.62 71.15 151.65 72.81C150.68 74.47 151.53 79.98 151.79 81.61C151.95 82.61 152.23 83.59 152.46 84.58C152.6 85.2 153.22 85.45 153.58 86C153.71 86.2 153.45 86.76 153.51 86.98C153.58 87.26 153.37 87.61 153.2 87.81C153 88.06 152.74 88.26 152.51 88.48C152.39 88.6 152.28 88.72 152.14 88.81C152.02 88.88 151.89 88.92 151.75 88.96C151 89.18 150.51 89.44 149.75 89.16C149.1 88.93 148.51 88.51 148.15 87.92C147.5 86.86 147.77 85.49 147.78 84.3C147.78 83.43 147.31 82.31 147.12 81.45C147.03 81.02 146.94 80.57 147.08 80.16C147.26 79.65 147.58 79.26 147.65 78.71C147.71 78.2 147.65 77.65 147.65 77.14C147.65 76.04 147.63 74.94 147.61 73.84C147.57 72.22 147.63 70.48 147.29 68.88C146.77 66.51 146.39 64.59 146.77 63.85C147.16 63.11 148.12 60.05 148.83 56.54C149.54 53.03 149.15 45.19 149.15 45.19H149.14Z" fill="#F5EAD8"/>
<g style="mix-blend-mode:multiply">
<path d="M149.97 49.1901C150.45 51.2901 150.93 53.4601 150.6 55.5901C150.24 57.9001 148.97 59.9601 148.01 62.0901C147.46 63.2901 147.04 64.5401 146.68 65.8101C146.56 64.9201 146.56 64.2301 146.75 63.8501C147.14 63.1101 148.1 60.0501 148.81 56.5401C149.43 53.4801 149.21 47.1401 149.15 45.5601C149.42 46.7701 149.7 47.9801 149.97 49.1901Z" fill="#E5DDCD"/>
<path d="M149.74 89.1701C149.09 88.9401 148.5 88.5201 148.14 87.9301C147.49 86.8701 147.76 85.5001 147.77 84.3101C147.77 83.4401 147.3 82.3201 147.11 81.4601C147.02 81.0301 146.93 80.5801 147.07 80.1701C147.25 79.6601 147.57 79.2701 147.64 78.7201C147.7 78.2101 147.64 77.6601 147.64 77.1501C147.64 76.0501 147.62 74.9501 147.6 73.8501C147.56 72.2301 147.62 70.4901 147.28 68.8901C147.26 68.7801 147.23 68.6701 147.21 68.5601C148.72 71.1101 148.92 74.2701 148.84 77.2601C148.76 80.4301 148.46 83.6901 149.43 86.7201C149.71 87.5801 150.09 88.4401 150.42 89.2901C150.21 89.2901 150 89.2701 149.75 89.1801L149.74 89.1701Z" fill="#E5DDCD"/>
</g>
<path d="M149.39 36.9303C150.2 38.9803 151.82 40.8303 153.41 41.7603C155.01 42.6903 156.55 42.7403 157.71 42.1403C158.42 41.7703 159.03 41.1603 159.92 41.2103C160.62 41.2503 161.43 41.6903 162.14 41.7303C162.67 41.7603 163.16 41.4003 162.95 40.6603C162.85 40.3003 162.61 39.9603 162.37 39.6503C160.88 37.7503 159.09 36.4603 157.35 35.2403C155.99 34.2703 154.63 33.3103 153.26 32.3403C151.88 31.3603 149.89 30.1903 149.11 31.3403C148.38 32.4103 148.67 35.1203 149.38 36.9303H149.39Z" fill="#F9F2E7"/>
<path d="M193.74 109.35C193.74 109.35 195.13 111.37 197.03 111.5C198.93 111.63 199.57 110.3 199.57 110.3C199.57 110.3 201.24 112.43 201.42 113.1C201.6 113.78 201.08 114.35 200.32 114.57L199.06 113.08L199.56 115.04C199.09 115.35 197.38 116.06 195.45 114.46C193.52 112.86 194.08 113.01 193.87 112.37C193.67 111.73 193.75 109.34 193.75 109.34L193.74 109.35Z" fill="#22222C"/>
<path d="M147.75 84.5303C147.75 84.5303 148.38 86.4603 150.89 86.5603C152.79 86.6303 153.31 85.4103 153.31 85.4103C153.31 85.4103 155.13 87.3403 155.33 88.0103C155.53 88.6803 155.04 89.2703 154.28 89.5103L152.96 88.0703L153.53 90.0203C153.07 90.3503 151.39 91.1203 149.4 89.5903C147.41 88.0603 147.98 88.1803 147.75 87.5503C147.52 86.9203 147.75 84.5303 147.75 84.5303Z" fill="#22222C"/>
<path d="M163.57 79.3801C163.57 79.3801 164.42 80.8301 166.32 80.9501C168.22 81.0701 168.63 79.7401 168.63 79.7401C168.63 79.7401 170.53 81.8501 170.71 82.5201C170.89 83.1901 170.38 83.7701 169.62 83.9901L168.35 82.5101L168.86 84.4701C168.39 84.7801 166.69 85.5101 164.75 83.9201C162.8 82.3401 163.37 82.4801 163.16 81.8401C162.95 81.2001 163.58 79.3701 163.58 79.3701L163.57 79.3801Z" fill="#22222C"/>
<path d="M207.26 104.13C207.26 104.13 208.64 106.16 210.53 106.31C212.43 106.46 213.08 105.14 213.08 105.14C213.08 105.14 214.73 107.28 214.9 107.96C215.07 108.64 214.55 109.2 213.78 109.42L212.53 107.92L213.01 109.89C212.54 110.2 210.82 110.89 208.9 109.28C206.98 107.66 207.54 107.81 207.34 107.17C207.14 106.53 207.25 104.14 207.25 104.14L207.26 104.13Z" fill="#22222C"/>
<path d="M147.75 84.5303C147.75 84.5303 148 85.2903 148.79 85.8803C148.77 86.5303 148.77 87.2403 148.88 87.5403C149.11 88.1703 148.54 88.0503 150.53 89.5703C151.23 90.1103 151.89 90.3503 152.48 90.4403C151.7 90.6003 150.61 90.5203 149.4 89.5903C147.41 88.0603 147.97 88.1803 147.75 87.5503C147.53 86.9203 147.75 84.5303 147.75 84.5303Z" fill="#31313A"/>
<path d="M163.57 79.3804C163.57 79.3804 163.85 79.8504 164.44 80.2704C164.3 80.8304 164.18 81.5004 164.29 81.8304C164.5 82.4704 163.94 82.3304 165.88 83.9104C166.6 84.5004 167.28 84.7604 167.89 84.8604C167.1 85.0104 165.98 84.9304 164.75 83.9404C162.8 82.3604 163.37 82.5004 163.16 81.8604C162.95 81.2204 163.58 79.3904 163.58 79.3904L163.57 79.3804Z" fill="#31313A"/>
<path d="M193.74 109.35C193.74 109.35 194.23 110.04 195.01 110.64C195.01 111.24 195.05 111.85 195.14 112.13C195.34 112.77 194.78 112.62 196.72 114.22C197.64 114.98 198.51 115.21 199.22 115.22C198.51 115.53 197.06 115.81 195.44 114.47C193.51 112.87 194.07 113.02 193.86 112.38C193.66 111.74 193.74 109.35 193.74 109.35Z" fill="#31313A"/>
<path d="M207.26 104.13C207.26 104.13 207.74 104.83 208.51 105.43C208.51 106.03 208.54 106.63 208.63 106.91C208.83 107.55 208.27 107.4 210.19 109.02C211.12 109.8 211.99 110.03 212.7 110.04C212 110.35 210.53 110.63 208.91 109.27C206.99 107.65 207.55 107.8 207.35 107.16C207.15 106.52 207.26 104.13 207.26 104.13Z" fill="#31313A"/>
<path d="M214.68 89.87L214.7 89.89C214.7 89.89 214.72 89.9 214.73 89.92C215.12 90.45 218.99 95.73 221.56 102.46C224.06 108.96 226.98 110.1 229.54 112.86C232.08 115.61 233.42 120.35 236.31 121.82C240.01 123.7 247.25 118.24 247.39 117.14C247.4 117.11 247.4 117.09 247.4 117.08C247.34 116.07 246.44 112.26 245.16 108.79C243.9 105.31 244.74 104.52 244.84 101.54C244.95 98.55 244.09 95.08 241.06 91.94C239.69 90.51 238.07 89.83 236.47 89.62C232.54 89.06 228.71 91.17 228.71 91.17L216.42 90.04L214.81 89.89L214.69 89.87H214.68Z" fill="#F5EAD8"/>
<g style="mix-blend-mode:multiply">
<path d="M210 85.4302C210.66 86.2302 211.44 87.0102 212.38 87.7902C213.79 88.9802 214.49 89.6002 214.8 89.8802L214.68 89.8602L214.7 89.8802C214.7 89.8802 214.72 89.8902 214.73 89.9102C215.12 90.4402 218.99 95.7202 221.56 102.45C224.06 108.95 226.98 110.09 229.54 112.85C232.08 115.6 233.42 120.34 236.31 121.81C240.01 123.69 247.25 118.23 247.39 117.13C246.71 116.96 246.14 116.92 246.14 116.92C246.14 116.92 239.31 121.78 237.17 120.89C235.05 120 230.96 112.63 229.39 110.69C227.83 108.75 223.15 103.18 222.77 100.61C222.39 98.0502 218.84 94.3802 216.54 90.2102C216.51 90.1802 216.49 90.1502 216.48 90.1202C216.47 90.0902 216.45 90.0602 216.42 90.0302C214.25 86.1802 210.48 85.4902 210.01 85.4302H210Z" fill="#E5DDCD"/>
</g>
<path d="M246.3 115.35C246.3 115.35 244.78 116.43 244.08 116.77C242.61 117.48 239.82 117.04 238.71 118.29C238.06 119.02 237.97 120.35 236.78 121.1C236.33 121.39 236.64 123.07 237.93 122.68C239.65 122.17 240.72 121.6 242.28 121.23C243.88 120.84 245.29 120.18 246.51 118.96C247.73 117.74 248.04 114.5 246.29 115.35H246.3Z" fill="#E0957C"/>
<path d="M230.01 100.44C229.88 100.49 224.8 99.7902 226.37 93.7402C228.46 96.1602 230.41 97.3502 230.72 97.4202C231.04 97.4902 232.29 99.5802 230.01 100.44Z" fill="#54545B"/>
<path d="M233.91 106.58C233.2 106.48 232.7 105.42 232.7 105.42C232.7 105.42 233.34 104.52 234.04 104.62C234.75 104.72 235.25 105.78 235.25 105.78C235.25 105.78 234.61 106.68 233.91 106.58Z" fill="#22222C"/>
<path d="M233.86 105.58C233.51 105.53 233.21 105.2 233.21 105.2C233.21 105.2 233.53 104.75 233.88 104.8C234.23 104.85 234.6 105.27 234.6 105.27C234.6 105.27 234.21 105.63 233.86 105.59V105.58Z" fill="#6A6A70"/>
<path d="M229.63 100.87C229.63 100.87 229.35 100.87 228.14 100.83C226.93 100.8 225.89 100.25 224.21 101.07C222.53 101.89 221.31 102.41 221.33 103.22C221.35 104.04 222.76 105.35 224.61 105.31C226.46 105.28 229.06 104.56 229.71 103.77C230.36 102.98 229.63 100.87 229.63 100.87Z" fill="#F6EDDE"/>
<g style="mix-blend-mode:multiply">
<path d="M224.49 104.4C224.78 104.45 225.09 104.48 225.41 104.47C227.32 104.44 229.53 103.68 229.9 103.22C230.08 103 229.99 102.5 229.95 102.25C229.94 102.14 229.94 102.01 229.85 101.93C229.62 101.72 229.1 101.84 228.82 101.83C228.16 101.8 227.49 101.62 226.83 101.67C226.4 101.68 225.88 101.71 225.48 101.89C224.94 102.14 224.4 102.43 223.88 102.72C223.62 102.87 223.37 103.02 223.13 103.2C223 103.3 222.81 103.43 222.75 103.6C222.8 103.72 223.38 104.2 224.48 104.4H224.49Z" fill="#E5DDCD"/>
</g>
<path d="M226.71 105.57L226.28 105.38V103.95C226.28 103.71 226.14 103.55 225.96 103.58L225.35 103.7C225.17 103.73 225.03 103.95 225.03 104.19V105.62L224.6 105.98C224.5 106.06 224.44 106.2 224.44 106.33V108.04C224.44 108.24 224.58 108.38 224.75 108.34L226.55 107.99C226.72 107.96 226.86 107.77 226.86 107.56V105.85C226.86 105.72 226.8 105.61 226.7 105.56L226.71 105.57Z" fill="#FFB800"/>
<g style="mix-blend-mode:multiply">
<path d="M81.9101 64.7502C81.9101 64.7502 73.8801 64.9102 70.2401 70.3902C66.6001 75.8702 23.8501 94.0602 19.0601 97.6402C14.2701 101.22 17.9101 105.47 24.0301 108.99C30.1501 112.51 40.1301 113.77 49.5901 107.63C59.0601 101.49 64.9601 94.0202 82.7801 86.7102C100.6 79.4002 103.81 77.2602 103.81 74.2402C103.81 71.2202 89.0401 62.9602 81.9001 64.7502H81.9101Z" fill="#B0B0B0"/>
</g>
<path d="M102.91 9.00019C103.15 9.13019 103.4 9.26019 103.63 9.40019C103.96 9.60019 104.21 9.87019 104.4 10.2102C105.18 11.5302 105.13 13.3302 105.06 14.8002C104.76 20.9102 104.17 19.5802 104.52 23.5602C104.87 27.5402 104.29 33.8202 104.26 35.0702C104.23 36.3202 102.1 42.0002 103.6 44.4402C105.1 46.8902 106.14 47.1502 106.14 47.1502C106.14 47.1502 106.09 45.1702 106.14 44.8602C106.19 44.5602 105.61 42.9602 106.36 43.3102C107.12 43.6602 107.7 43.6602 107.7 43.6602L106.89 40.4102L107.7 41.1402C107.7 41.1402 107.64 39.3802 107.24 38.7602C106.84 38.1302 106.61 38.6602 106.41 36.0602C106.2 33.4602 105.74 31.0802 105.74 31.0802C105.74 31.0802 105.74 22.7802 106.41 15.7702C106.63 13.3902 106.64 10.7002 105.56 8.51019C104.55 6.47019 102.33 6.13019 100.31 5.50019C99.2201 5.16019 98.1201 4.84019 97.0101 4.53019C96.8501 4.48019 96.6701 4.44019 96.5101 4.48019C96.3401 4.52019 96.19 4.67019 96.21 4.84019C96.23 4.97019 96.3301 5.07019 96.4401 5.15019C97.7301 6.19019 99.2001 7.01019 100.65 7.81019C101.39 8.22019 102.17 8.60019 102.92 9.00019H102.91Z" fill="#7A3D24"/>
<path d="M106.36 43.3204C107.12 43.6704 107.7 43.6704 107.7 43.6704L106.89 40.4304L107.7 41.1604C107.7 41.1604 107.64 39.4004 107.24 38.7804C106.84 38.1504 106.61 38.6804 106.41 36.0804C106.3 34.7004 106.12 33.3904 105.97 32.4604C105.89 32.4104 105.34 31.7704 105.29 31.7804C105 31.8704 104.69 32.1504 104.41 32.4804C104.33 33.7204 104.27 34.6804 104.26 35.0904C104.23 36.3404 102.09 42.0204 103.6 44.4604C105.1 46.9104 106.14 47.1704 106.14 47.1704C106.14 47.1704 106.09 45.1904 106.14 44.8804C106.19 44.5804 105.61 42.9804 106.36 43.3304V43.3204Z" fill="#7C4739"/>
<path d="M80.3801 22.1703C80.3801 22.1703 82.6901 14.3403 78.6501 12.4303C74.6101 10.5203 67.6001 13.2803 64.6001 17.6703C61.6001 22.0603 61.5501 22.3603 63.7501 30.8103C65.9501 39.2603 72.6101 39.8403 73.3801 43.1003C74.1501 46.3703 76.2301 48.9703 77.3901 50.9503C78.5501 52.9303 78.2401 60.4503 77.9301 62.3903C77.6901 63.9303 77.0101 65.4403 76.4801 66.9003C76.3701 67.2003 75.9701 67.8603 76.0101 68.1803C76.0601 68.6103 76.4901 68.6503 76.9401 68.7703C77.6601 68.9703 79.4401 69.3603 80.1101 68.8903C80.6301 68.5303 82.4701 67.1303 82.6701 66.5703C83.0901 65.4003 81.9601 64.2703 82.1601 63.0403C82.2401 62.5503 82.0101 49.0803 82.6201 46.2503C83.2401 43.4203 83.7001 41.1203 83.2401 40.2403C82.7801 39.3603 81.6201 35.6903 80.7801 31.5003C79.9301 27.3003 80.3901 22.1703 80.3901 22.1703H80.3801Z" fill="#763820"/>
<path d="M32.7101 81.8601C32.9401 81.2401 33.1701 80.6101 33.3101 79.9501C33.8301 77.4501 33.6701 74.8701 33.9501 72.3401C34.5801 66.7801 37.8301 61.2901 38.8601 56.0301C39.8901 50.7701 31.8801 37.4401 31.8801 37.4401C31.8801 37.4401 27.6501 31.7801 25.9201 34.8701C24.1901 37.9501 21.4401 42.3201 20.5501 47.1301C19.6601 51.9401 27.1701 62.4101 27.3201 64.3101C27.4801 66.2501 27.6601 68.1801 27.8201 70.1201C27.8201 71.6501 28.5001 73.1601 28.4901 74.7101C28.4901 76.1401 27.8101 77.5201 27.8201 78.9301C27.8301 80.0601 27.8001 81.3601 28.0401 82.4701C28.3001 83.6301 28.5801 84.7801 28.4701 85.9801C28.2601 88.4001 27.4901 90.7301 26.6201 92.9901C26.1901 94.1201 25.6601 95.0701 24.9801 96.0801C24.3301 97.0301 24.0701 97.9501 24.2001 99.2401C24.2001 99.2901 24.2101 99.3401 24.2401 99.3701C24.2801 99.4201 24.3601 99.4301 24.4301 99.4401C26.3801 99.5601 28.4801 99.8201 30.1401 98.5801C30.7001 98.1601 31.2801 97.7101 31.5601 97.0601C31.9301 96.1701 31.7601 95.8901 31.9401 94.8801C32.0501 94.2801 31.0901 93.5101 31.3301 92.9601C31.4101 92.7701 31.5401 92.6101 31.6501 92.4401C32.5801 90.9601 31.5901 89.2501 31.6301 87.7101C31.6601 86.3101 31.8601 84.8101 32.2001 83.4501C32.3301 82.9201 32.5201 82.4001 32.7101 81.8901V81.8601Z" fill="#763820"/>
<path d="M99.24 6.1402C97.6199 3.7402 94.7599 4.6002 92.38 3.4002C92.35 3.4002 92.34 3.3702 92.31 3.3602C91.43 2.9002 90.6199 2.3302 89.7299 1.8902C78.0399 -3.8398 69.9499 9.5202 61.6499 14.9502C52.6399 20.8502 46.66 22.6702 36.68 26.5702C34.67 27.3602 31.93 31.7302 23.74 32.7402C23.35 32.7902 22.95 32.8302 22.53 32.8702C18.41 33.1902 17.62 35.2902 15.56 37.1302C14.69 37.9102 15 37.5602 15.74 40.1502C16.12 41.4402 16.28 42.5102 15.79 42.8302C14.8 43.5002 13.65 43.8902 12.64 44.5902C11.96 45.0802 11.26 45.6902 10.7 46.3702C14.12 48.6902 22.09 50.3502 21.85 55.8202C21.82 56.6602 21.93 57.7002 22.18 58.8802C22.34 59.7702 22.59 60.7602 22.9 61.8302C23.01 62.1902 23.11 62.5502 23.24 62.9302C24.72 67.3702 27.27 71.1702 31.59 73.3802C32.13 73.6502 32.69 73.9202 33.24 74.1302C33.7999 73.1402 34.19 71.6902 34.3 71.0102C34.49 69.9302 34.8699 69.1202 35.4 68.3602C35.84 67.7702 36.35 67.1902 36.95 66.5602C38.05 65.3902 39.21 64.2502 40.53 63.2802C42.02 62.1402 43.65 61.2402 45.5 60.8302C48.75 60.1102 52.41 58.5402 55.78 56.8202C56.34 56.5302 56.89 56.2502 57.43 55.9502C57.72 55.7902 58 55.6502 58.32 55.4702C60.74 54.1402 58.48 54.9502 60.14 53.8902C60.98 55.1502 62.2299 56.2802 64.0099 56.6002C66.0099 56.9802 68.6699 56.3402 72.1899 53.7602C76.9299 50.3102 81.17 45.5402 84.1199 40.5202C84.1399 40.4902 84.1499 40.4302 84.1899 40.3902C85.85 37.5902 88.5599 33.7402 88.7199 30.5302C88.9599 26.4202 87.8199 27.0402 89.7299 23.0702C90.7499 20.9502 92.6099 19.3902 94.41 17.8802C96.45 15.8302 98.44 14.8702 101.03 13.7902C101.76 13.4902 102.56 13.0902 102.96 12.4602C103.08 12.2802 103.17 12.0602 103.2 11.8402C103.44 10.1502 100.14 7.5002 99.2299 6.1602L99.24 6.1402Z" fill="#874B2D"/>
<g style="mix-blend-mode:multiply">
<path d="M92.31 3.36031C92.07 3.33031 91.82 3.28031 91.56 3.23031C91.56 3.23031 86.01 0.870307 81.84 1.94031C77.68 3.00031 75.03 6.22031 66.49 13.6303C51.43 26.7003 42.95 23.2303 37.15 27.0203C31.49 30.7203 29.33 33.3703 23.75 32.7403C31.95 31.7303 34.68 27.3603 36.69 26.5703C46.67 22.6803 52.65 20.8603 61.66 14.9503C69.96 9.52031 78.05 -3.84969 89.74 1.89031C90.63 2.33031 91.44 2.89031 92.32 3.36031H92.31Z" fill="#D2C5BD"/>
</g>
<path d="M101.68 29.9205C100.83 35.8405 100.65 36.4905 97.2201 41.2005C97.1801 41.2205 97.1301 41.2405 97.0601 41.2705C96.3601 41.5005 93.9101 41.9205 93.7901 42.0805C89.9401 46.7805 79.4001 54.2805 79.4001 54.2805C79.0001 54.2805 78.5201 54.6905 78.0701 55.2005H78.0501C78.0001 55.2505 77.9601 55.3105 77.9101 55.3605C77.8901 55.3605 77.8901 55.3805 77.8901 55.3805C77.3901 55.9405 76.9501 56.5705 76.7001 56.8405C75.7801 57.8505 74.8101 58.8205 73.7301 59.7005C73.6801 59.7505 73.6201 59.8105 73.5701 59.8405C72.2401 60.9205 70.7801 61.8405 69.4501 62.9205C66.3001 65.5105 68.4801 66.8505 64.9901 69.0305C60.9801 71.5305 56.7301 73.6005 52.2001 74.8405C52.0001 74.8905 51.8201 74.9505 51.6201 74.9805C51.2201 75.0905 50.8301 75.1805 50.4101 75.2705C48.8101 75.6305 47.1501 75.8805 45.5201 75.9905C44.7601 76.0405 44.0101 76.0605 43.2701 76.0405C42.1001 76.0405 40.9501 75.9505 39.8201 75.8205C39.3201 75.7705 38.8101 75.6805 38.3101 75.5905C38.2001 75.5705 38.0901 75.5505 38.0001 75.5405C36.9601 75.3405 35.9301 75.0905 34.9401 74.7505C34.8101 74.7305 34.6901 74.6805 34.5801 74.6405C34.1501 74.4805 33.7201 74.3205 33.2801 74.1505C32.7001 73.9205 32.1501 73.6605 31.5901 73.3805C27.2701 71.1705 24.7201 67.3705 23.2401 62.9305C23.1101 62.5505 23.0101 62.1905 22.9001 61.8305C22.5901 60.7705 22.3401 59.7805 22.1801 58.8805C21.9301 57.7105 21.8201 56.6705 21.8601 55.8205C22.0901 50.3505 14.1201 48.7005 10.7101 46.3805C9.58009 45.5905 8.95009 44.7405 9.31009 43.6605C9.87009 41.9705 12.3101 40.8705 15.7501 40.1505C25.5401 38.0605 43.3501 38.9805 47.9101 37.2505C54.0601 34.9305 47.5001 33.6205 57.5201 29.2505C63.3701 26.7005 69.6801 24.5705 74.5701 20.3105C76.9401 18.2205 78.8501 19.8605 79.7501 16.8005C80.8501 13.0805 82.4701 10.4705 86.1201 8.58049C86.6801 8.29049 87.2501 8.04049 87.8601 7.91049C88.4401 7.78049 89.0301 7.77049 89.6201 7.75049C92.6601 7.70049 96.7101 6.72049 99.3001 8.47049C100.81 9.50049 102.16 10.8405 102.95 12.4505C103.38 13.3105 103.67 14.2705 103.72 15.2905C104.19 23.3105 102.55 23.7505 101.67 29.9205H101.68Z" fill="#7E452E"/>
<path d="M31.3101 53.3303C31.4601 53.2303 31.6101 53.1203 31.6701 52.9503C31.7501 52.7003 31.5601 52.4403 31.3901 52.2403C30.8301 51.6003 30.2701 50.9603 29.7001 50.3203C27.6001 47.9303 25.3301 45.4303 22.2901 44.4903C19.8101 43.7303 17.1501 44.1103 14.5901 44.5003C14.1601 44.5703 13.6501 44.6803 13.4701 45.0803C13.3101 45.4203 13.4501 45.8103 13.6101 46.1403C15.0101 49.0203 17.9201 50.8003 20.1401 53.1103C21.2201 54.2403 22.1501 55.5103 22.9201 56.8703C23.3001 57.5403 24.1901 60.6903 25.2001 59.8503C25.5201 59.5903 25.5801 58.7903 25.8101 58.4303C26.2201 57.7503 26.8801 57.1403 27.4301 56.5803C28.6101 55.3703 29.9201 54.2703 31.3201 53.3303H31.3101Z" fill="#834B35"/>
<g style="mix-blend-mode:multiply">
<path d="M53.5899 72.4402C52.7999 73.6202 51.8899 74.9202 50.4099 75.2602C50.1799 75.3102 49.9399 75.3102 49.6999 75.3102C49.1599 75.3102 48.6199 75.3002 48.0899 75.2902C47.9899 75.2902 47.8899 75.2902 47.8099 75.2502C47.2099 74.9702 47.2899 74.0802 46.6199 73.8302C45.9299 73.5702 44.5599 74.0802 43.9599 74.4102C42.5299 75.1802 41.5399 75.7202 39.8199 75.8302C36.9599 75.4902 34.1699 74.7002 31.5999 73.3802C27.2799 71.1702 24.7299 67.3702 23.2499 62.9302C23.1199 62.5502 23.0199 62.1902 22.9099 61.8302C22.5999 60.7702 22.3499 59.7802 22.1899 58.8802C22.6999 58.5602 22.8899 58.3802 23.4799 58.4502C23.9599 58.5002 24.2799 58.5302 24.7099 58.1202C25.0199 57.8302 25.2499 57.4502 25.4799 57.0902C26.4199 55.6402 27.5999 54.3602 28.5899 52.9402C29.1899 52.0702 30.0699 49.3702 31.2599 51.1302C31.5599 51.5602 31.6499 52.1002 31.7299 52.6202C31.9599 54.1402 32.0599 55.6802 32.0499 57.2202C32.0299 58.7502 32.2999 60.0602 32.6699 61.5302C32.8199 62.1202 32.7399 62.6602 33.0899 63.2002C33.5499 63.9002 34.3199 64.2402 34.9499 64.7602C35.6099 65.3102 36.0999 66.0702 36.3199 66.9002C36.3899 66.0702 36.4599 65.2102 36.1399 64.4402C35.9799 64.0602 35.7399 63.7302 35.5299 63.3802C34.7999 62.1002 34.6499 60.5702 34.6399 59.1002C34.6399 58.0002 34.6999 56.8702 35.0699 55.8402C36.0499 53.1102 38.8899 52.7902 41.4499 52.8502C42.0499 52.8602 42.6799 52.8802 43.2199 53.1502C43.6499 53.3602 43.9999 53.7102 44.2999 54.0902C45.2899 55.3302 45.9899 57.2202 46.3599 58.7502C46.6899 60.0702 46.7099 62.2502 47.6499 63.3202C48.0899 63.8202 48.8399 63.9002 49.4999 63.9202C53.2199 64.0002 56.9199 63.1502 60.3599 61.7402C63.3799 60.5002 61.7699 60.9902 64.4299 59.1002C66.8999 57.3502 67.9499 54.7302 69.7399 52.3602C71.9399 49.4302 75.1499 47.3502 77.1899 44.3102C78.0799 42.9902 78.7199 41.5202 79.2599 40.0202C80.0099 37.9402 80.1299 35.9202 80.5299 33.7602C80.7999 32.3702 81.0699 30.9702 81.5699 29.6602C82.1799 28.0402 83.1299 26.5802 84.0699 25.1402C84.9499 23.7902 85.8899 26.6202 87.2699 25.7702C88.3899 25.1002 89.6799 24.8302 90.9599 24.6002C91.9099 24.4002 92.8799 24.2202 93.8399 24.0402C95.3699 23.7302 97.2399 23.5702 98.1399 24.8302C98.5199 25.3302 98.6399 25.9802 98.7199 26.6102C99.0999 29.8102 98.6799 28.8902 97.4999 31.9202C96.8899 33.4702 95.8299 35.2102 96.3799 36.9002C96.8699 38.3402 97.4999 39.6302 97.0799 41.2402C97.0799 41.2602 97.0599 41.2902 97.0599 41.3102C97.0099 41.5302 96.9199 41.7102 96.8099 41.8502C92.9599 46.5502 79.3999 54.3702 79.3999 54.3702C79.3999 54.3702 78.4499 55.0502 76.8499 56.1002C76.8099 56.1402 76.7599 56.1502 76.7199 56.1902C75.8199 57.0902 74.3899 57.5002 73.3999 58.2902C72.6299 58.9102 72.0499 59.7702 71.2899 60.4302C69.1899 62.2602 67.0299 64.0402 64.6899 65.5802C62.5899 66.9602 64.8099 65.9702 62.5899 67.1402C60.3699 68.3102 58.1499 69.4902 55.9299 70.6602C54.8499 71.2302 54.2799 71.4702 53.5999 72.4802L53.5899 72.4402Z" fill="#D2C5BD"/>
</g>
<g style="mix-blend-mode:multiply">
<path d="M97.4801 28.2805C96.8701 29.8405 95.8101 31.5805 96.3701 33.2705C96.4501 33.5005 96.5301 33.7305 96.6101 33.9605C96.8701 33.2405 97.2101 32.5405 97.4701 31.8705C98.5901 29.0105 99.0101 30.1205 98.7201 27.0605C98.5501 28.9305 98.1501 26.5405 97.4701 28.2805H97.4801Z" fill="#E5DDCD"/>
</g>
<path d="M45.4601 75.1007C45.4201 74.3807 45.3701 73.6407 45.3201 72.9407C45.2501 73.0107 45.1801 73.0707 45.1001 73.1407C44.5601 73.6307 44.0401 74.1307 43.5701 74.6207C42.9901 75.3207 41.5901 75.7207 39.8101 75.8307C36.9501 75.4907 34.1601 74.7007 31.5901 73.3807C27.2701 71.1707 24.7201 67.3707 23.2401 62.9307C23.1101 62.5507 23.0101 62.1907 22.9001 61.8307C23.1001 61.7807 23.3101 61.7407 23.5301 61.7207C23.6001 61.7207 24.5901 64.3107 24.7401 64.6207C25.2801 65.8607 26.0001 67.0107 26.6801 68.1607C27.1101 68.8807 27.5601 69.6007 28.1901 70.1707C28.6201 70.5707 29.1301 70.8707 29.6501 71.1607C31.7701 72.2607 34.1701 72.7307 36.5401 73.0507C37.5701 73.2107 38.6301 73.3207 39.6501 73.2107C42.1901 72.9207 43.5701 70.9407 45.3201 69.3407C45.3901 70.4007 45.4601 71.4607 45.5401 72.5207V72.7407C45.5901 73.5507 45.5601 74.3207 45.4701 75.1007H45.4601Z" fill="#5A2E1B"/>
<path d="M97.2002 40.1504C97.2002 40.4704 97.1602 40.8304 97.0702 41.1904C97.0702 41.2104 97.0502 41.2404 97.0502 41.2604C96.3502 41.4904 93.9002 41.9104 93.7802 42.0704C89.9302 46.7704 79.3902 54.2704 79.3902 54.2704C78.9202 54.6104 78.4702 54.9004 78.0602 55.1904H78.0402C77.6302 55.4804 77.2302 55.7504 76.8302 56.0504C76.7902 56.0904 76.7402 56.1004 76.7002 56.1404C76.5602 56.2504 76.4302 56.3704 76.2902 56.5004C75.9102 56.8404 75.5502 57.2204 75.1702 57.7104C74.6702 58.3604 74.2002 59.0204 73.7102 59.6904C73.6602 59.7404 73.6002 59.8004 73.5502 59.8304C72.2202 60.9104 70.7602 61.8304 69.4302 62.9104C66.2802 65.5004 68.4602 66.8404 64.9702 69.0204C60.9602 71.5204 56.7102 73.5904 52.1802 74.8304C51.9802 74.8804 51.8002 74.9404 51.6002 74.9704C51.2002 75.0804 50.8102 75.1704 50.3902 75.2604C48.7902 75.6204 47.1302 75.8704 45.5002 75.9804C44.7402 76.0304 43.9902 76.0504 43.2502 76.0304C43.3402 75.4904 43.5202 74.9704 43.7402 74.4804C44.4402 73.0904 45.6602 71.9404 47.0102 71.1504C49.1002 69.9404 51.4702 69.4404 53.7602 68.7204C55.2502 68.2304 56.7102 67.6804 58.1502 67.1004C59.8802 66.4204 61.6002 65.7504 63.3102 65.0704C65.0702 64.3904 62.4102 65.8504 64.0102 64.8404C65.8802 63.6704 67.4602 62.1204 69.0502 60.5804C70.9902 58.6904 72.9402 56.7804 74.8802 54.8804C76.3602 53.4404 77.7002 51.9104 79.3802 50.7204C79.3802 50.7204 92.9402 42.9104 96.7902 38.2004C96.7902 38.2004 96.7902 38.1604 96.8102 38.1504C96.9202 38.4904 97.0302 38.8204 97.0802 39.1604C97.1202 39.3204 97.1302 39.4804 97.1502 39.6304C97.1702 39.8104 97.1902 39.9704 97.1902 40.1504H97.2002Z" fill="#5A2E1B"/>
<path d="M53.95 65.4802C53.86 65.9302 53.75 66.3701 53.62 66.8001C53.15 68.5301 52.51 70.1902 51.84 71.8502C51.39 72.9802 50.92 74.1102 50.5 75.2502C49.98 76.6302 49.13 78.3302 49.25 79.8302C49.37 81.3002 49.51 82.6602 49.41 84.1602C49.38 84.6202 49.34 85.0802 49.25 85.5402C49.15 86.0302 48.99 86.5002 48.83 86.9702C48.34 88.4002 47.31 89.8902 47.13 91.3902C46.97 92.7202 46.89 94.2102 47.27 95.5102C47.37 95.8601 47.51 96.2002 47.54 96.5602C47.59 97.1402 47.38 97.7102 47.4 98.2902C47.43 99.2802 48.07 100.15 48.11 101.12C48.15 102.08 47.9 103.07 47.86 104.03C47.84 104.46 47.82 104.89 47.68 105.29C47.52 105.77 47.21 106.19 46.87 106.57C46.2 107.32 45.39 107.92 44.4 107.42C43.91 107.17 43.48 106.81 43.04 106.47C42.78 106.27 42.48 105.96 42.19 105.83C41.86 105.69 41.46 105.73 41.12 105.56C40.83 105.41 40.36 105.03 40.33 104.67C40.31 104.48 40.49 104.2 40.55 104.02C40.63 103.79 40.69 103.56 40.76 103.32C41.55 100.62 42.65 97.9602 42.98 95.1402C43.1 94.0702 43.31 92.9702 43.07 91.9002C42.85 90.9102 42.52 89.9802 42.25 89.0002C41.9 87.7402 42.04 86.8402 42.05 85.5902C42.07 82.9202 42.7 80.3402 42.53 77.6702C42.46 76.6102 42.38 75.5402 42.32 74.4902C42.29 74.1602 42.27 73.8302 42.25 73.5002C42.22 72.9002 41.27 71.2702 40.03 69.1602C39.26 67.8502 38.37 66.3602 37.52 64.8202C35.42 61.0502 33.53 57.0002 34 54.6702C34.98 49.8802 37.21 46.1902 39 43.1402C40.79 40.0902 47.35 46.7302 47.35 46.7302C47.35 46.7302 50.83 52.7902 52.78 58.3602C52.81 58.4502 52.84 58.5402 52.87 58.6202C53.77 61.2602 54.32 63.7702 53.96 65.4502L53.95 65.4802Z" fill="#7E452E"/>
<path d="M43.9201 104.2C43.8401 104.14 43.1801 104.58 42.5401 105.01C42.5101 105.11 42.4601 105.2 42.4401 105.29C42.4101 105.44 42.3901 105.59 42.4401 105.73C42.4801 105.86 43.6301 105.04 44.4001 104.55C44.2401 104.43 44.1001 104.32 43.9201 104.2Z" fill="#E5DDCD"/>
<g style="mix-blend-mode:multiply">
<path d="M52.86 58.6505C52.83 58.5605 52.8 58.4705 52.77 58.3905C50.81 52.8205 47.34 46.7605 47.34 46.7605C47.34 46.7605 42.83 42.2105 40.27 42.3905C43.99 42.9305 47.16 47.1505 47.16 47.1505C47.16 47.1505 49.65 52.8105 51.61 58.3805C51.64 58.4705 51.67 58.5605 51.7 58.6405C52.6 61.2805 53.15 63.7905 52.79 65.4705C52.7 65.9205 52.59 66.3605 52.46 66.7905C51.99 68.5205 51.35 70.1805 50.68 71.8405C50.23 72.9705 49.76 74.1005 49.34 75.2405C48.82 76.6205 47.97 78.3205 48.09 79.8205C48.21 81.2905 48.23 82.2405 48.13 83.7505C48.1 84.2105 48.06 84.6705 47.97 85.1305C47.87 85.6205 47.71 86.0905 47.55 86.5605C47.06 87.9905 46.15 89.8805 45.96 91.3805C45.8 92.7105 45.72 94.2005 46.1 95.5005C46.2 95.8505 46.34 96.1905 46.37 96.5505C46.42 97.1305 46.21 97.7005 46.23 98.2805C46.26 99.2705 46.9 100.14 46.94 101.11C46.98 102.07 46.73 103.06 46.69 104.02C46.67 104.45 46.65 104.88 46.51 105.28C46.35 105.76 46.04 106.18 45.7 106.56C45.26 107.04 44.9 107.32 44.56 107.48C45.27 107.78 45.9 107.61 46.86 106.56C47.2 106.18 47.51 105.76 47.67 105.28C47.81 104.87 47.83 104.44 47.85 104.02C47.9 103.06 48.14 102.07 48.1 101.11C48.06 100.14 47.42 99.2705 47.39 98.2805C47.37 97.7005 47.58 97.1305 47.53 96.5505C47.5 96.1905 47.36 95.8505 47.26 95.5005C46.88 94.2005 46.96 92.7105 47.12 91.3805C47.3 89.8705 48.34 88.3905 48.82 86.9605C48.98 86.4805 49.14 86.0205 49.24 85.5305C49.33 85.0805 49.36 84.6105 49.4 84.1505C49.49 82.6405 49.35 81.2905 49.24 79.8205C49.12 78.3205 49.97 76.6205 50.49 75.2405C50.92 74.1005 51.38 72.9705 51.83 71.8405C52.5 70.1805 53.14 68.5105 53.61 66.7905C53.74 66.3605 53.85 65.9105 53.94 65.4705C54.3 63.8005 53.76 61.2905 52.85 58.6405L52.86 58.6505Z" fill="#D2C5BD"/>
</g>
<path d="M47.1501 50.8905C46.9101 49.1405 46.0701 47.9105 45.2401 46.7205C44.3201 45.4005 43.3401 44.0405 41.7801 43.7905C41.3301 44.8805 40.5401 45.8305 39.7701 46.7005C39.0001 47.5705 38.1901 48.4505 37.6501 49.5205C37.1101 50.5905 36.9401 51.9005 37.5301 52.2705C38.2501 52.7305 39.5401 51.6005 40.5001 51.5105C41.6601 51.4105 42.0901 52.8205 41.9901 54.3205C41.8901 55.8105 41.4201 57.4705 41.3701 58.9405C41.2901 61.2205 42.3301 62.8605 43.9901 63.0805C44.6601 63.1705 45.4401 63.0505 45.9501 63.4405C46.7201 64.0205 47.9201 65.2905 48.4301 62.5605C48.6901 61.1705 48.2601 60.2105 47.8101 59.3805C46.5901 57.0905 47.5401 53.8105 47.1401 50.8905H47.1501Z" fill="#874B2D"/>
<path d="M93.4301 43.7604C93.4301 43.7604 95.5301 53.6704 88.1901 58.4104C79.2001 64.2004 74.8501 57.8904 74.8501 57.3404C74.8501 56.7904 78.5301 47.2704 85.5301 44.8204C92.5201 42.3704 93.4401 43.7604 93.4401 43.7604H93.4301Z" fill="#FF866A"/>
<path d="M78.1699 57.6904V62.5804C78.1699 63.2704 78.6399 63.8304 79.2299 63.8304C79.8199 63.8304 80.2899 63.2704 80.2899 62.5804V57.6904H78.1799H78.1699Z" fill="#FF866A"/>
<path d="M85.54 62.6605C85.54 63.3505 86.02 63.9105 86.62 63.9105C87.22 63.9105 87.7 63.3505 87.7 62.6605V57.7705H85.54V62.6605Z" fill="#FF866A"/>
<path d="M88.5 55.2104V60.1004C88.5 60.7904 88.92 61.3504 89.44 61.3504C89.96 61.3504 90.38 60.7904 90.38 60.1004V55.2104H88.5Z" fill="#FF866A"/>
<path d="M86.8401 47.1901C86.8401 47.1901 86.0201 46.2601 84.8701 45.1001C78.3101 47.8901 74.8501 56.8001 74.8501 57.3401C74.8501 57.4901 75.1701 58.0501 75.7901 58.6701C77.9801 59.3001 81.0501 59.1201 85.0301 56.5501C92.3801 51.8101 86.8301 47.1901 86.8301 47.1901H86.8401Z" fill="#FFAB91"/>
<path d="M100 24.9901C100 24.9901 102.31 21.3901 98.27 19.4901C94.23 17.5801 87.29 15.8101 84.29 20.2001C81.29 24.5901 81.18 29.4201 83.37 37.8801C85.57 46.3301 90.85 48.1601 91.62 51.4301C92.39 54.7001 95.84 56.0401 97 58.0301C98.16 60.0101 97.14 66.6001 96.83 68.5501C96.64 69.7501 96.31 70.9201 96.03 72.1001C95.86 72.8401 95.12 73.1401 94.7 73.8001C94.54 74.0401 94.86 74.7101 94.79 74.9801C94.71 75.3101 94.96 75.7301 95.16 75.9701C95.4 76.2701 95.71 76.5001 95.99 76.7701C96.13 76.9101 96.26 77.0601 96.43 77.1601C96.57 77.2501 96.73 77.2901 96.89 77.3401C97.79 77.6101 98.37 77.9101 99.29 77.5801C100.06 77.3001 100.78 76.8001 101.21 76.0901C101.98 74.8201 101.66 73.1801 101.65 71.7601C101.64 70.7201 102.21 69.3801 102.44 68.3601C102.55 67.8501 102.66 67.3101 102.49 66.8201C102.28 66.2101 101.89 65.7501 101.81 65.0801C101.74 64.4701 101.81 63.8201 101.81 63.2001C101.81 61.8901 101.83 60.5701 101.86 59.2601C101.9 57.3201 101.83 55.2401 102.25 53.3301C102.87 50.5001 103.33 48.2001 102.87 47.3201C102.41 46.4401 101.25 42.7701 100.41 38.5801C99.56 34.3901 100.02 25.0101 100.02 25.0101L100 24.9901Z" fill="#7E452E"/>
<g style="mix-blend-mode:multiply">
<path d="M99 29.7702C98.43 32.2902 97.86 34.8702 98.25 37.4202C98.68 40.1902 100.19 42.6402 101.35 45.1902C102 46.6202 102.51 48.1202 102.94 49.6402C103.08 48.5702 103.09 47.7502 102.85 47.3002C102.39 46.4202 101.23 42.7502 100.39 38.5602C99.65 34.9002 99.91 27.3202 99.99 25.4302C99.66 26.8802 99.33 28.3202 99.01 29.7702H99Z" fill="#E5DDCD"/>
<path d="M99.28 77.5604C100.05 77.2804 100.77 76.7804 101.2 76.0704C101.97 74.8004 101.65 73.1604 101.64 71.7404C101.63 70.7004 102.2 69.3604 102.43 68.3404C102.54 67.8304 102.65 67.2904 102.48 66.8004C102.27 66.1904 101.88 65.7304 101.8 65.0604C101.73 64.4504 101.8 63.8004 101.8 63.1804C101.8 61.8704 101.82 60.5504 101.85 59.2404C101.89 57.3004 101.82 55.2204 102.24 53.3104C102.27 53.1804 102.3 53.0504 102.32 52.9204C100.51 55.9704 100.28 59.7404 100.37 63.3204C100.47 67.1104 100.83 71.0104 99.67 74.6204C99.34 75.6504 98.89 76.6704 98.49 77.6904C98.74 77.6904 98.99 77.6704 99.29 77.5604H99.28Z" fill="#E5DDCD"/>
</g>
<path d="M99.6901 19.3503C98.7201 21.8003 96.7901 24.0103 94.8801 25.1203C92.9701 26.2303 91.1201 26.2903 89.7401 25.5803C88.8901 25.1403 88.1601 24.4103 87.0901 24.4703C86.2501 24.5103 85.2801 25.0403 84.4401 25.0903C83.8101 25.1303 83.2201 24.7003 83.4701 23.8103C83.5901 23.3803 83.8801 22.9703 84.1701 22.6103C85.9501 20.3403 88.1001 18.8003 90.1701 17.3303C91.8001 16.1803 93.4301 15.0203 95.0501 13.8703C96.7001 12.7003 99.0801 11.3003 100.02 12.6703C100.89 13.9503 100.55 17.1903 99.7001 19.3503H99.6901Z" fill="#874B2D"/>
<path d="M48.1099 101.11C48.1099 101.11 46.4399 103.52 44.1699 103.68C41.8999 103.83 41.1399 102.25 41.1399 102.25C41.1399 102.25 39.1399 104.79 38.9299 105.6C38.7199 106.41 39.3399 107.09 40.2499 107.35L41.3399 106.52L41.1699 107.93C41.7299 108.3 43.7699 109.15 46.0799 107.24C48.3899 105.33 47.7199 105.5 47.9699 104.74C48.2099 103.98 48.1099 101.12 48.1099 101.12V101.11Z" fill="#22222C"/>
<path d="M101.66 72.0205C101.66 72.0205 100.91 74.3305 97.9 74.4505C95.63 74.5405 95.01 73.0805 95.01 73.0805C95.01 73.0805 92.83 75.3905 92.6 76.1905C92.37 76.9905 92.95 77.6905 93.86 77.9905L94.93 77.2505L94.76 78.6005C95.31 78.9905 97.32 79.9105 99.7 78.0805C102.08 76.2505 101.4 76.4005 101.67 75.6505C101.94 74.9005 101.67 72.0305 101.67 72.0305L101.66 72.0205Z" fill="#22222C"/>
<path d="M82.7501 65.8701C82.7501 65.8701 81.7301 67.6101 79.4601 67.7501C77.1901 67.8901 76.6901 66.3101 76.6901 66.3101C76.6901 66.3101 74.4201 68.8301 74.2001 69.6401C73.9801 70.4501 74.5901 71.1301 75.5101 71.4001L76.5301 70.5001L76.4201 71.9701C76.9801 72.3501 79.0101 73.2101 81.3401 71.3201C83.6701 69.4301 83.0001 69.5901 83.2401 68.8301C83.4901 68.0701 82.7401 65.8701 82.7401 65.8701H82.7501Z" fill="#22222C"/>
<path d="M31.94 94.8604C31.94 94.8604 30.3 97.2904 28.03 97.4704C25.76 97.6504 24.98 96.0704 24.98 96.0704C24.98 96.0704 23.01 98.6303 22.8 99.4403C22.6 100.25 23.22 100.92 24.14 101.18L25.17 100.38L25.06 101.74C25.62 102.11 27.67 102.94 29.97 101C32.26 99.0704 31.6 99.2503 31.83 98.4803C32.07 97.7203 31.93 94.8604 31.93 94.8604H31.94Z" fill="#22222C"/>
<path d="M101.66 72.0203C101.66 72.0203 101.37 72.9203 100.41 73.6303C100.44 74.4103 100.44 75.2503 100.31 75.6103C100.04 76.3603 100.71 76.2103 98.34 78.0403C97.5 78.6903 96.71 78.9803 96.01 79.0803C96.94 79.2703 98.25 79.1803 99.7 78.0603C102.08 76.2303 101.4 76.3803 101.67 75.6303C101.94 74.8803 101.67 72.0103 101.67 72.0103L101.66 72.0203Z" fill="#31313A"/>
<path d="M82.7501 65.8703C82.7501 65.8703 82.4101 66.4304 81.7101 66.9304C81.8801 67.6004 82.0301 68.4003 81.8901 68.8003C81.6401 69.5603 82.3101 69.3904 79.9901 71.2904C79.1301 71.9904 78.3101 72.3103 77.5901 72.4203C78.5301 72.6103 79.8801 72.5103 81.3401 71.3103C83.6701 69.4203 83.0001 69.5804 83.2401 68.8204C83.4901 68.0604 82.7401 65.8604 82.7401 65.8604L82.7501 65.8703Z" fill="#31313A"/>
<path d="M48.1101 101.11C48.1101 101.11 47.5301 101.94 46.5901 102.66C46.5801 103.38 46.5401 104.11 46.4401 104.44C46.2001 105.2 46.8701 105.03 44.5501 106.94C43.4501 107.85 42.4101 108.13 41.5701 108.13C42.4201 108.5 44.1501 108.84 46.0901 107.23C48.4001 105.32 47.7301 105.49 47.9801 104.73C48.2201 103.97 48.1201 101.11 48.1201 101.11H48.1101Z" fill="#31313A"/>
<path d="M31.9399 94.8604C31.9399 94.8604 31.3699 95.6903 30.4399 96.4203C30.4399 97.1303 30.3999 97.8603 30.2999 98.1903C30.0599 98.9503 30.7299 98.7804 28.4399 100.71C27.3299 101.64 26.2899 101.92 25.4399 101.93C26.2799 102.3 28.0299 102.64 29.9799 101.01C32.2699 99.0803 31.6099 99.2603 31.8399 98.4903C32.0799 97.7303 31.9399 94.8703 31.9399 94.8703V94.8604Z" fill="#31313A"/>
<path d="M11.2801 41.0502C10.0501 42.3802 7.43012 41.9502 5.42012 40.0902C3.41012 38.2302 4.01012 34.3202 4.01012 34.3202C4.01012 34.3202 7.86012 33.4202 9.87012 35.2802C11.8801 37.1402 12.5101 39.7202 11.2801 41.0502Z" fill="#874B2D"/>
<path d="M10.1001 41.0204C9.41008 41.7704 7.64008 41.2604 6.16008 39.8804C4.68008 38.5004 4.72008 36.0404 4.72008 36.0404C4.72008 36.0404 7.18008 35.8004 8.66008 37.1804C10.1401 38.5604 10.7901 40.2804 10.1001 41.0204Z" fill="#4A2109"/>
<path d="M5.50013 41.3404L5.86013 41.3204V40.1304C5.86013 39.9304 5.98013 39.8404 6.13013 39.9304L6.65013 40.2304C6.80013 40.3204 6.92013 40.5404 6.92013 40.7404V41.9304L7.28013 42.3704C7.36013 42.4704 7.42013 42.6004 7.42013 42.7104V44.1304C7.42013 44.3004 7.30013 44.3604 7.16013 44.2804L5.64013 43.4004C5.49013 43.3204 5.38013 43.1104 5.38013 42.9504V41.5304C5.38013 41.4204 5.43013 41.3504 5.52013 41.3404H5.50013Z" fill="#FFB800"/>
<path d="M32.3799 47.4303C32.0899 48.5403 31.7699 49.6803 31.6099 50.9303C31.0099 55.5103 29.0899 55.8403 24.1499 60.2403C19.2099 64.6403 18.2899 61.4103 13.0599 65.4203C11.8399 66.3603 11.2999 66.8103 10.6999 66.9103C9.85994 67.0503 8.91994 66.5303 5.91994 65.7003C0.759943 64.2803 1.50994 58.1703 1.88994 57.2803C2.26994 56.3903 6.15994 52.1803 6.68994 50.0903C7.21994 48.0003 8.94994 40.5703 10.1899 37.6903C11.4299 34.8103 15.5899 33.9203 19.6099 32.3903C23.6399 30.8503 30.5899 37.7503 30.8699 38.1203C33.7599 41.8103 33.1499 44.5003 32.3799 47.4503V47.4303Z" fill="#7E452E"/>
<g style="mix-blend-mode:multiply">
<path d="M26.39 48.3903C27.05 48.6503 27.76 48.7903 28.47 48.8203C28.78 48.8303 29.12 48.8703 29.41 48.7603C29.8 48.6103 30.19 48.6203 30.58 48.4703C31.03 48.2903 31.42 48.0003 31.8 47.7003C32.06 47.5003 32.32 47.2903 32.47 47.0003C32.63 46.6703 32.61 46.2703 32.49 45.9203C32.21 45.1203 31.73 44.4603 30.94 44.1403C29.8 43.6803 28.54 43.5903 27.31 43.5903C26.79 43.5903 26.27 43.6003 25.78 43.7503C24.93 44.0103 23.57 45.1303 23.82 46.1603C23.92 46.5903 24.48 47.0803 24.78 47.3703C25.24 47.8103 25.79 48.1603 26.38 48.3903H26.39Z" fill="#D2C5BD"/>
</g>
<g style="mix-blend-mode:multiply">
<path d="M31.79 48.4004C31.74 48.5804 31.9799 49.1304 32.01 49.3404C32.05 49.7004 32.06 50.0604 32.02 50.4204C31.95 51.1604 31.68 51.7904 31.35 52.4504C31.09 52.9704 31.03 53.5204 30.73 54.0204C30.34 54.6804 29.84 55.3304 29.29 55.8604C27.69 57.4304 25.83 58.7404 24.15 60.2304C19.21 64.6304 18.29 61.4004 13.06 65.4104C11.84 66.3504 11.3 66.8004 10.7 66.9004C10.7 66.9004 10.7 63.5004 10.7 63.4904C12.36 62.6804 14.01 61.8604 15.66 61.0304C16.77 60.4704 17.89 59.9104 18.99 59.3304C20.42 58.5804 22.01 58.2004 23.38 57.3004C24.13 56.8104 24.81 56.1804 25.29 55.4204C25.53 55.0304 25.6 54.5604 25.81 54.1904C26.01 53.8304 26.41 53.5604 26.74 53.3104C28.2 52.1904 29.98 51.3904 31.06 49.8504C31.38 49.4004 31.62 48.9004 31.78 48.3804L31.79 48.4004Z" fill="#D2C5BD"/>
</g>
<path d="M19.73 48.1406C19.73 48.1406 20.16 48.6306 20.47 48.6606C20.78 48.6906 21.08 48.7006 21.08 48.7006C21.08 48.7006 20.52 49.1406 20.35 49.4506C20.18 49.7606 19.96 50.5906 18.86 50.7006C17.75 50.8206 17.04 50.1206 17.04 50.1206C17.04 50.1206 17.23 49.0106 17.63 48.5906C18.03 48.1706 19.73 48.1406 19.73 48.1406Z" fill="#2D211D"/>
<path d="M6.56004 58.5906C6.56004 58.5906 4.45004 56.1306 3.18004 56.4406C1.91004 56.7506 0.720044 58.2906 0.890044 61.1206C1.05004 63.9506 2.07004 65.6806 4.95004 67.0206C7.82004 68.3606 11.39 67.2706 12.29 65.3406C13.19 63.4106 13.02 59.1706 9.91004 59.3006C7.70004 59.4006 7.51004 58.9406 6.57004 58.5806L6.56004 58.5906Z" fill="#E0957C"/>
<path d="M9.93002 62.9603C9.64002 63.3603 9.11002 63.4703 8.62002 63.5003C7.55002 63.5603 6.48002 63.3603 5.44002 63.0803C5.11002 62.9903 4.77002 62.8903 4.46002 62.7303C3.55002 62.2603 2.96002 61.3603 2.41002 60.4903C2.21002 60.1703 2.01002 59.8503 1.87002 59.5103C1.74002 59.1803 1.66002 58.8203 1.75002 58.4803C1.84002 58.1403 2.15002 57.8403 2.50002 57.8403C2.81002 57.8403 3.08002 58.0803 3.25002 58.3403C3.42002 58.6103 3.52002 58.9103 3.68002 59.1803C4.07002 59.8303 4.80002 60.2003 5.53002 60.3903C6.26002 60.5703 7.03002 60.5903 7.78002 60.6903C8.46002 60.7803 9.17002 60.9503 9.73002 61.3703C10.18 61.7103 10.24 62.5203 9.91002 62.9703L9.93002 62.9603Z" fill="#FFAB91"/>
<path d="M23.56 45.2305C23.83 47.0205 26.24 48.1405 28.95 47.7305C31.65 47.3205 33.35 43.7505 33.35 43.7505C33.35 43.7505 30.67 40.8405 27.96 41.2505C25.25 41.6605 23.29 43.4405 23.56 45.2305Z" fill="#874B2D"/>
<path d="M24.3001 45.8605C24.4601 46.8905 26.2601 47.4705 28.3301 47.1605C30.4001 46.8505 31.8001 44.7205 31.8001 44.7205C31.8001 44.7205 29.8401 43.1105 27.7701 43.4205C25.7001 43.7305 24.1501 44.8305 24.3001 45.8605Z" fill="#4A2109"/>
<path d="M17.3102 50.0805C17.3102 50.0805 18.6502 50.8405 19.4202 50.3505C20.1902 49.8705 20.4902 48.9705 20.0902 48.3305C19.6902 47.7005 18.7502 47.5705 17.9802 48.0605C17.2102 48.5505 17.3102 50.0805 17.3102 50.0805Z" fill="#22222C"/>
<path d="M19.7701 48.7802C19.7901 49.1302 19.5201 49.4402 19.1701 49.4602C18.8201 49.4802 18.5101 49.2102 18.4901 48.8602C18.4701 48.5102 18.7401 48.2002 19.0901 48.1802C19.4401 48.1602 19.7501 48.4302 19.7701 48.7802Z" fill="#4C4C54"/>
<path d="M13.25 28.4304C13.23 28.5404 13.06 28.7204 13 28.8104C12.79 29.1404 12.58 29.4804 12.39 29.8304C11.86 30.7804 11.4 31.8004 11.17 32.8704C11 33.6704 10.95 34.5804 11.38 35.3104C11.6 35.6804 11.9 36.0204 12.33 36.0504C12.86 36.0804 13.46 36.0004 13.95 35.8004C14.44 35.6004 14.85 35.2404 15.26 34.8904C15.38 34.7804 15.51 34.6704 15.6 34.5304C15.93 33.9904 15.19 33.8804 14.84 33.6404C14.45 33.3804 14.11 33.0404 13.86 32.6404C13.07 31.4104 13.07 29.8204 13.27 28.4204L13.25 28.4304Z" fill="#E2D1A8"/>
<path d="M13.05 28.8706C13.05 28.8706 11.78 30.8106 12.01 32.3406C12.23 33.8706 13.16 35.1906 13.8 35.2706C14.45 35.3506 15.26 34.4906 15.3 34.2806C15.34 34.0706 13.78 33.4206 13.34 32.4206C12.72 31.0106 13.04 28.8706 13.04 28.8706H13.05Z" fill="#FFF6E1"/>
<path d="M28.41 35.9404C28.41 35.9404 28.29 40.0304 26.22 41.4404C24.91 42.3404 22.94 42.4504 22.01 40.9704C21.94 40.8604 21.87 40.7504 21.8 40.6404C21.73 40.5304 21.66 40.4204 21.62 40.3004C21.58 40.1804 21.57 40.0504 21.56 39.9204C21.56 39.7904 21.54 39.6504 21.57 39.5204C21.63 39.2704 21.83 39.0804 22.06 38.9604C22.52 38.7204 23.16 38.5704 23.68 38.5904C24.25 38.6004 24.82 38.7404 25.37 38.5804C26.66 38.2104 27.63 36.9704 28.4 35.9504L28.41 35.9404Z" fill="#E2D1A8"/>
<path d="M28.1501 37.0105C28.2101 36.7705 28.2601 36.5305 28.3001 36.2905C28.2801 36.3805 28.1301 36.5205 28.0801 36.5905C27.9501 36.7705 27.8201 36.9405 27.6901 37.1205C27.2801 37.6705 26.6701 38.0505 26.1401 38.4705C25.5401 38.9405 24.6201 38.9205 23.8901 38.9005C23.5601 38.9005 23.2601 38.9505 22.9301 38.9805C22.5901 39.0105 22.0001 39.1205 21.9201 39.5305C21.8701 39.7905 21.7901 40.0705 22.1001 40.1805C22.7201 40.4005 23.3901 40.3905 24.0401 40.3905C24.2801 40.3905 24.5201 40.3905 24.7501 40.3305C24.9401 40.2805 25.1201 40.2005 25.3001 40.1205C25.7901 39.8905 26.2601 39.6305 26.7101 39.3305C26.9801 39.1505 27.2301 38.9805 27.4301 38.7205C27.8101 38.2205 28.0101 37.6205 28.1501 37.0305V37.0105Z" fill="#FFF6E1"/>
<path d="M81.95 59.0801V63.8401C81.95 64.5001 82.4399 65.0401 83.0399 65.0401C83.6399 65.0401 84.13 64.5001 84.13 63.8401V59.0801H81.95Z" fill="#FF866A"/>
</svg>
