<svg width="241" height="222" viewBox="0 0 241 222" fill="none" xmlns="http://www.w3.org/2000/svg">
<g style="mix-blend-mode:multiply">
<path d="M192.11 100.685L149.86 126.775L172.86 139.635C172.6 141.315 173.51 143.035 175.54 144.395C173.36 146.135 169.27 148.935 166.76 148.685C163.69 148.385 150.32 141.945 145.43 139.485L144.75 140.835C145.48 141.205 162.64 149.805 166.61 150.185C166.76 150.195 166.9 150.205 167.05 150.205C170.6 150.205 175.46 146.415 176.97 145.155C181.33 147.205 187.71 147.095 191.75 144.765C194.01 143.455 195.07 141.725 194.95 140.005H207.67L192.11 100.675V100.685Z" fill="#C7C7C7"/>
</g>
<path d="M63.92 190.665L13.75 161.695V158.615L63.92 187.585V190.665Z" fill="#444342"/>
<path d="M13.75 158.615L146.42 82.0249L196.59 110.985L63.92 187.585L13.75 158.615Z" fill="#71706F"/>
<g style="mix-blend-mode:multiply">
<path d="M128 107.465C128 107.465 117.41 107.675 112.61 114.905C107.81 122.125 51.45 146.115 45.13 150.835C38.82 155.555 43.61 161.155 51.68 165.795C59.75 170.435 72.9 172.095 85.38 164.005C97.86 155.915 105.65 146.055 129.15 136.425C152.65 126.795 156.88 123.965 156.88 119.985C156.88 116.005 137.4 105.105 128 107.475V107.465Z" fill="#B0B0B0"/>
</g>
<path d="M18.01 160.085L63.92 186.265L194.03 111.015L149.82 83.9849L196.59 110.985L63.92 187.585L13.75 158.615L18.01 160.085Z" fill="#848382"/>
<path d="M196.59 114.065L63.92 190.665V187.585L196.59 110.985V114.065Z" fill="#5F5E5D"/>
<path d="M143.92 4.105L140.49 2.125V77.875L143.92 79.845V4.105Z" fill="#7A7A7A"/>
<path d="M143.92 4.10502L140.49 2.12502L143.92 0.14502L147.35 2.12502L143.92 4.10502Z" fill="#BCBDBD"/>
<path d="M143.92 4.105L147.35 2.125V77.875L143.92 79.845V4.105Z" fill="#C9C7C6"/>
<path d="M146.31 17.055V56.315C146.31 57.195 146.39 58.095 146.55 59.015C147.57 64.865 151.67 71.185 156.56 74.005L165.28 79.035C170.93 82.295 175.54 79.675 175.54 73.185V33.935C175.54 29.065 172.95 23.385 169.27 19.475C169.25 19.455 169.23 19.425 169.21 19.415C168 18.135 166.67 17.055 165.28 16.255L156.56 11.225C155.61 10.675 154.68 10.295 153.81 10.075C149.49 8.965 146.31 11.685 146.31 17.075V17.055ZM172.75 32.315V71.575C172.75 76.295 169.4 78.205 165.28 75.835L156.56 70.805C152.45 68.425 149.09 62.655 149.09 57.925V18.675C149.09 13.955 152.44 12.045 156.56 14.415L165.28 19.445C169.4 21.825 172.75 27.595 172.75 32.315Z" fill="#B8B8B8"/>
<path d="M154.49 69.2649V71.3349H156.83V70.9549L156.57 70.7949C155.85 70.3749 155.15 69.8649 154.49 69.2549V69.2649ZM164.07 75.1249V76.8149H166.4V76.4749L164.07 75.1249ZM169.49 78.2549V79.9149H171.82V79.6049L169.49 78.2549ZM163.87 75.0149V76.5049H166.21V76.3049C165.91 76.1749 165.6 76.0249 165.29 75.8349L163.87 75.0149Z" fill="#B8B8B8"/>
<path d="M146.31 17.055V56.725C146.31 57.605 146.39 58.505 146.55 59.425C147.76 64.475 151.32 69.675 155.51 72.095L164.42 77.305C169.6 80.305 173.82 77.895 173.82 71.945V32.275C173.82 27.595 171.2 22.085 167.55 18.495C167.53 18.475 167.51 18.445 167.49 18.435C166.53 17.495 165.49 16.685 164.42 16.065L155.51 10.855C154.93 10.515 154.36 10.255 153.81 10.055C149.49 8.94498 146.31 11.665 146.31 17.055ZM147.19 16.835C147.19 11.575 150.92 9.44498 155.51 12.095L164.42 17.305C169.01 19.955 172.74 26.395 172.74 31.665V71.335C172.74 76.595 169.01 78.725 164.42 76.075L155.51 70.865C150.92 68.215 147.19 61.775 147.19 56.505V16.835Z" fill="#EBEBEB"/>
<path d="M147.19 38.5149C147.19 37.9449 147.59 37.2549 148.08 36.9749C148.3 36.8449 148.5 36.8249 148.65 36.8849C148.65 36.8849 148.73 36.9249 148.77 36.9549L172.75 50.8049V53.7149L147.45 39.0949C147.29 39.0049 147.2 38.8049 147.2 38.5249L147.19 38.5149Z" fill="#B8B8B8"/>
<path d="M175.66 33.6951V72.9551C175.66 73.8351 175.74 74.7351 175.9 75.6551C176.92 81.5051 181.02 87.8251 185.91 90.6451L194.63 95.6751C200.28 98.9351 204.89 96.3151 204.89 89.8251V50.5751C204.89 45.7051 202.3 40.0251 198.62 36.1151C198.6 36.0951 198.58 36.0651 198.56 36.0551C197.35 34.7751 196.02 33.6951 194.63 32.8951L185.91 27.8651C184.96 27.3151 184.03 26.9351 183.16 26.7151C178.84 25.6051 175.66 28.3251 175.66 33.7151V33.6951ZM202.1 48.9551V88.2151C202.1 92.9351 198.75 94.8451 194.63 92.4751L185.91 87.4451C181.8 85.0651 178.44 79.2951 178.44 74.5651V35.3051C178.44 30.5851 181.79 28.6751 185.91 31.0451L194.63 36.0751C198.75 38.4551 202.1 44.2251 202.1 48.9451V48.9551Z" fill="#B8B8B8"/>
<path d="M183.84 85.905V87.975H186.18V87.595L185.92 87.435C185.2 87.015 184.5 86.505 183.84 85.895V85.905ZM193.42 91.765V93.455H195.75V93.115L193.42 91.765ZM198.84 94.895V96.555H201.17V96.245L198.84 94.895ZM193.22 91.655V93.145H195.56V92.945C195.26 92.815 194.95 92.665 194.64 92.475L193.22 91.655Z" fill="#B8B8B8"/>
<path d="M175.66 33.6951V73.3651C175.66 74.2451 175.74 75.1451 175.9 76.0651C177.11 81.1151 180.67 86.3151 184.86 88.7351L193.77 93.9451C198.95 96.9451 203.17 94.5351 203.17 88.5851V48.9151C203.17 44.2351 200.55 38.7251 196.9 35.1351C196.88 35.1151 196.86 35.0851 196.84 35.0751C195.88 34.1351 194.84 33.3251 193.77 32.7051L184.86 27.4951C184.28 27.1551 183.71 26.8951 183.16 26.6951C178.84 25.5851 175.66 28.3051 175.66 33.6951ZM176.54 33.4751C176.54 28.2151 180.27 26.0851 184.86 28.7351L193.77 33.9451C198.36 36.5951 202.09 43.0351 202.09 48.3051V87.9751C202.09 93.2351 198.36 95.3651 193.77 92.7151L184.86 87.5051C180.27 84.8551 176.54 78.4151 176.54 73.1451V33.4751Z" fill="#EBEBEB"/>
<path d="M176.54 55.155C176.54 54.585 176.94 53.895 177.43 53.615C177.65 53.485 177.85 53.465 178 53.525C178 53.525 178.08 53.565 178.12 53.595L202.1 67.445V70.355L176.8 55.735C176.64 55.645 176.55 55.445 176.55 55.165L176.54 55.155Z" fill="#B8B8B8"/>
<path d="M206.92 40.4751L203.49 38.4951V114.245L206.92 116.215V40.4751Z" fill="#737F7E"/>
<path d="M206.92 40.4751L203.49 38.4951L206.92 36.5151L210.34 38.4951L206.92 40.4751Z" fill="#677473"/>
<path d="M206.92 40.4751L210.34 38.4951V114.245L206.92 116.215V40.4751Z" fill="#8B9594"/>
<path d="M135.82 10.9852C134.94 11.2052 134.02 11.5852 133.07 12.1352L15.71 79.9052C14.32 80.7052 12.99 81.7952 11.78 83.0652C11.76 83.0752 11.74 83.1052 11.72 83.1252C8.04 87.0352 5.45 92.7252 5.45 97.5852V136.835C5.45 143.325 10.05 145.955 15.71 142.685L133.07 74.9252C137.96 72.1052 142.06 65.7852 143.08 59.9352C143.24 59.0152 143.32 58.1152 143.32 57.2352V17.9852C143.32 12.5952 140.14 9.87516 135.82 10.9852ZM15.71 83.1052L133.07 15.3452C137.18 12.9652 140.54 14.8752 140.54 19.6052V58.8552C140.54 63.5852 137.19 69.3552 133.07 71.7352L15.71 139.495C11.59 141.875 8.24 139.965 8.24 135.235V95.9752C8.24 91.2552 11.59 85.4752 15.71 83.1052Z" fill="#B8B8B8"/>
<path d="M133.07 71.7351L132.81 71.8951V72.2751H135.15V70.2051C134.49 70.8051 133.79 71.3251 133.07 71.7451V71.7351ZM123.24 77.4151V77.7551H125.57V76.0651L123.24 77.4151ZM113.67 82.9351V83.2451H116V81.5851L113.67 82.9351ZM104.1 88.4551V88.7351H106.43V87.1051L104.1 88.4551ZM94.52 93.9851V94.2151H96.86V92.6251L94.52 93.9851ZM84.95 99.5051V99.7051H87.29V98.1451L84.95 99.4951V99.5051ZM85.54 99.1651V99.3351H87.88V97.8151L85.54 99.1651ZM15.71 139.495C15.4 139.675 15.09 139.835 14.79 139.965V140.165H17.13V138.675L15.71 139.495Z" fill="#B8B8B8"/>
<path d="M135.82 10.9852C135.27 11.1852 134.7 11.4552 134.12 11.7852L16.57 79.7252C15.5 80.3452 14.46 81.1552 13.5 82.0952C13.48 82.1052 13.46 82.1352 13.44 82.1552C9.79 85.7352 7.17 91.2552 7.17 95.9352V135.605C7.17 141.555 11.39 143.955 16.57 140.965L134.13 73.0252C138.32 70.6052 141.87 65.4052 143.09 60.3552C143.25 59.4352 143.33 58.5352 143.33 57.6552V17.9852C143.33 12.5952 140.15 9.87516 135.83 10.9852H135.82ZM142.44 57.4352C142.44 62.7052 138.71 69.1452 134.12 71.7952L16.57 139.725C11.98 142.375 8.25 140.245 8.25 134.985V95.3152C8.25 90.0452 11.98 83.6052 16.57 80.9552L134.12 13.0252C138.71 10.3752 142.44 12.5052 142.44 17.7652V57.4352Z" fill="#EBEBEB"/>
<path d="M142.45 39.445C142.45 38.875 142.05 38.185 141.56 37.905C141.34 37.775 141.14 37.755 140.99 37.815C140.99 37.815 140.91 37.855 140.87 37.885L8.23999 114.465V117.375L142.18 40.025C142.34 39.935 142.43 39.735 142.43 39.455L142.45 39.445Z" fill="#B8B8B8"/>
<path d="M155.69 33.955C156.01 34.125 156.33 34.305 156.64 34.485C157.08 34.745 157.4 35.105 157.66 35.545C158.68 37.285 158.63 39.665 158.53 41.595C158.14 49.655 157.36 47.905 157.82 53.145C158.28 58.385 157.51 66.675 157.48 68.325C157.44 69.975 154.63 77.455 156.61 80.685C158.59 83.915 159.96 84.255 159.96 84.255C159.96 84.255 159.89 81.645 159.96 81.245C160.03 80.845 159.26 78.735 160.26 79.205C161.26 79.665 162.02 79.665 162.02 79.665L160.95 75.385L162.02 76.345C162.02 76.345 161.94 74.025 161.41 73.205C160.88 72.375 160.59 73.065 160.31 69.645C160.04 66.215 159.43 63.075 159.43 63.075C159.43 63.075 159.44 52.135 160.31 42.885C160.61 39.755 160.61 36.205 159.19 33.315C157.86 30.625 154.94 30.175 152.27 29.355C150.83 28.905 149.38 28.485 147.92 28.075C147.7 28.015 147.48 27.955 147.26 28.005C147.04 28.055 146.84 28.255 146.87 28.475C146.89 28.645 147.03 28.775 147.17 28.875C148.88 30.255 150.81 31.325 152.72 32.385C153.69 32.925 154.72 33.425 155.71 33.955H155.69Z" fill="#FDDFD3"/>
<path d="M160.25 79.2052C161.25 79.6652 162.01 79.6652 162.01 79.6652L160.94 75.3852L162.01 76.3452C162.01 76.3452 161.93 74.0252 161.4 73.2052C160.87 72.3752 160.57 73.0652 160.3 69.6452C160.16 67.8252 159.92 66.1052 159.72 64.8752C159.61 64.8152 158.89 63.9652 158.83 63.9852C158.45 64.1052 158.04 64.4752 157.67 64.9052C157.57 66.5352 157.48 67.8052 157.47 68.3452C157.43 69.9952 154.62 77.4752 156.6 80.7052C158.58 83.9352 159.95 84.2752 159.95 84.2752C159.95 84.2752 159.88 81.6652 159.95 81.2652C160.02 80.8652 159.25 78.7552 160.25 79.2252V79.2052Z" fill="white"/>
<path d="M125.98 51.3251C125.98 51.3251 129.03 41.0051 123.7 38.4851C118.37 35.9651 109.13 39.6151 105.17 45.3951C101.21 51.1751 101.15 51.5751 104.05 62.7251C106.94 73.8751 115.73 74.6251 116.74 78.9351C117.76 83.2451 120.5 86.6751 122.02 89.2851C123.54 91.9051 123.14 101.805 122.73 104.375C122.41 106.405 121.52 108.405 120.82 110.325C120.67 110.725 120.15 111.595 120.21 112.005C120.28 112.575 120.84 112.625 121.44 112.785C122.39 113.045 124.73 113.565 125.62 112.945C126.3 112.475 128.73 110.635 129 109.885C129.55 108.345 128.07 106.845 128.32 105.225C128.42 104.585 128.12 86.8151 128.93 83.0851C129.74 79.3551 130.35 76.3251 129.74 75.1551C129.13 73.9951 127.61 69.1651 126.49 63.6251C125.37 58.0951 125.98 51.3251 125.98 51.3251Z" fill="#763820"/>
<path d="M63.14 130.025C63.44 129.205 63.75 128.375 63.93 127.505C64.62 124.205 64.4 120.805 64.78 117.465C65.61 110.135 69.9 102.895 71.25 95.9553C72.6 89.0153 62.05 71.4453 62.05 71.4453C62.05 71.4453 56.47 63.9853 54.19 68.0553C51.91 72.1153 48.28 77.8753 47.1 84.2253C45.93 90.5753 55.82 104.375 56.02 106.875C56.22 109.425 56.47 111.975 56.68 114.535C56.68 116.545 57.57 118.535 57.57 120.585C57.57 122.475 56.67 124.285 56.69 126.145C56.71 127.635 56.66 129.345 56.98 130.815C57.32 132.345 57.69 133.865 57.55 135.445C57.27 138.635 56.25 141.705 55.11 144.685C54.54 146.175 53.85 147.435 52.94 148.765C52.09 150.015 51.74 151.225 51.91 152.935C51.91 152.995 51.92 153.065 51.96 153.115C52.02 153.185 52.12 153.195 52.21 153.205C54.78 153.365 57.55 153.715 59.74 152.065C60.48 151.515 61.25 150.915 61.61 150.065C62.1 148.895 61.87 148.525 62.12 147.185C62.26 146.405 61 145.385 61.32 144.655C61.43 144.405 61.6 144.195 61.74 143.965C62.96 142.015 61.67 139.755 61.72 137.725C61.76 135.875 62.02 133.895 62.47 132.105C62.65 131.405 62.89 130.725 63.14 130.045V130.025Z" fill="#FFFBF0"/>
<path d="M62.58 122.415C62.22 121.855 61.69 121.715 61.69 120.835C61.69 120.775 61.69 120.705 61.64 120.665C61.6 120.625 61.54 120.625 61.49 120.625C61.14 120.625 60.81 120.805 60.5 120.965C60.2 121.125 59.89 121.285 59.67 121.555C59.08 122.285 59.48 123.375 59.36 124.305C59.14 125.905 57.36 126.405 57.28 127.915C57.19 129.565 57.43 131.355 58.04 132.895C58.36 133.705 58.81 134.475 58.99 135.325C59.64 138.385 56.74 141.345 57.28 144.425C57.34 144.795 58.79 143.165 58.82 143.135C59.47 142.635 60.04 142.695 60.36 141.755C60.77 140.535 61.19 139.305 61.39 138.035C61.49 137.385 61.53 136.735 61.63 136.085C61.93 134.045 62.77 132.115 63.17 130.095C63.65 127.695 63.52 125.175 62.78 122.845C62.73 122.675 62.66 122.545 62.58 122.425V122.415Z" fill="#383838"/>
<path d="M150.85 30.1852C148.71 27.0252 144.94 28.1552 141.81 26.5752C141.78 26.5652 141.75 26.5452 141.72 26.5152C140.56 25.9052 139.49 25.1552 138.32 24.5752C122.91 17.0152 112.25 34.6352 101.3 41.7952C89.42 49.5752 81.54 51.9752 68.38 57.1052C65.73 58.1552 62.12 63.9052 51.31 65.2452C50.8 65.3152 50.26 65.3652 49.72 65.4152C44.29 65.8352 43.25 68.6152 40.52 71.0252C39.37 72.0452 39.79 71.5952 40.75 75.0152C41.25 76.7152 41.46 78.1252 40.82 78.5452C39.52 79.4252 38 79.9452 36.67 80.8752C35.77 81.5252 34.84 82.3252 34.11 83.2252C38.62 86.2852 49.13 88.4652 48.82 95.6852C48.78 96.7952 48.92 98.1652 49.25 99.7152C49.46 100.895 49.8 102.195 50.2 103.605C50.34 104.085 50.48 104.555 50.65 105.055C52.6 110.915 55.96 115.925 61.66 118.835C62.37 119.195 63.11 119.545 63.84 119.825C64.57 118.525 65.1 116.605 65.23 115.705C65.48 114.275 65.98 113.215 66.68 112.205C67.26 111.425 67.94 110.665 68.73 109.835C70.18 108.295 71.71 106.785 73.45 105.505C75.41 104.005 77.57 102.825 80 102.275C84.29 101.325 89.11 99.2552 93.56 96.9852C94.29 96.6052 95.03 96.2252 95.74 95.8352C96.12 95.6252 96.5 95.4352 96.91 95.2052C100.11 93.4452 97.12 94.5152 99.3 93.1252C100.41 94.7852 102.05 96.2752 104.4 96.6952C107.04 97.1952 110.55 96.3452 115.19 92.9552C121.44 88.4052 127.04 82.1152 130.92 75.4952C130.94 75.4552 130.96 75.3752 131.01 75.3252C133.19 71.6252 136.78 66.5552 136.99 62.3252C137.3 56.9052 135.81 57.7252 138.33 52.4852C139.68 49.6952 142.13 47.6352 144.5 45.6352C147.19 42.9252 149.81 41.6752 153.23 40.2452C154.2 39.8452 155.25 39.3252 155.77 38.4852C155.93 38.2552 156.05 37.9652 156.09 37.6652C156.4 35.4352 152.06 31.9452 150.86 30.1752L150.85 30.1852Z" fill="#FFFBF0"/>
<path d="M71.62 59.3449C72.42 58.6349 73.02 57.7149 73.85 57.0449C75.02 56.1149 76.54 55.7649 78 55.4549C82.21 54.5349 86.43 53.6149 90.64 52.6949C91.44 52.5249 92.27 52.3349 92.9 51.8049C93.42 51.3649 93.75 50.7349 94.18 50.2049C95.33 48.7749 97.16 48.1349 98.74 47.2049C101.23 45.7449 103.23 43.4749 104.34 40.8149C103.16 40.9549 102.07 41.4949 101 42.0249C96.89 44.0749 92.78 46.1349 88.92 48.6349C87.59 49.4949 86.29 50.4049 84.87 51.1149C83.54 51.7749 82.13 52.2349 80.73 52.6849C76.62 54.0249 72.52 55.3549 68.41 56.6949C67.98 56.8349 67.53 56.9849 67.18 57.2749C66.33 57.9749 64.06 60.2949 65.21 61.1649C66.53 62.1649 70.62 60.2249 71.62 59.3449Z" fill="#383838"/>
<g style="mix-blend-mode:multiply">
<path d="M141.72 26.5252C141.41 26.4852 141.07 26.4252 140.73 26.3552C140.73 26.3552 133.42 23.2452 127.92 24.6552C122.43 26.0552 118.94 30.2952 107.68 40.0652C87.83 57.2952 76.64 52.7252 68.99 57.7252C61.53 62.6052 58.68 66.0952 51.32 65.2652C62.13 63.9252 65.74 58.1752 68.39 57.1252C81.55 51.9952 89.43 49.5952 101.31 41.8152C112.25 34.6552 122.92 17.0352 138.33 24.5952C139.5 25.1752 140.57 25.9152 141.73 26.5352L141.72 26.5252Z" fill="#E0DACE"/>
</g>
<path d="M154.07 61.5351C152.96 69.3351 152.72 70.1951 148.19 76.4051C148.14 76.4251 148.07 76.4551 147.98 76.4951C147.06 76.8051 143.83 77.3451 143.66 77.5651C138.58 83.7551 124.68 93.6451 124.68 93.6451C124.16 93.6451 123.52 94.1951 122.92 94.8551H122.9C122.83 94.9251 122.78 94.9951 122.71 95.0651C122.69 95.0651 122.69 95.0851 122.69 95.0851C122.03 95.8251 121.46 96.6551 121.12 97.0051C119.91 98.3351 118.63 99.6151 117.21 100.775C117.14 100.845 117.07 100.915 117 100.965C115.24 102.385 113.32 103.595 111.57 105.025C107.42 108.445 110.29 110.215 105.69 113.085C100.4 116.385 94.8 119.105 88.83 120.745C88.57 120.815 88.33 120.885 88.07 120.935C87.55 121.075 87.03 121.195 86.48 121.315C84.37 121.785 82.19 122.125 80.03 122.265C79.03 122.335 78.04 122.355 77.07 122.335C75.53 122.335 74.01 122.215 72.52 122.055C71.86 121.985 71.19 121.865 70.53 121.745C70.39 121.725 70.25 121.695 70.13 121.675C68.75 121.415 67.4 121.085 66.1 120.635C65.93 120.615 65.77 120.545 65.63 120.495C65.06 120.285 64.49 120.065 63.92 119.855C63.16 119.545 62.43 119.215 61.69 118.835C56 115.915 52.63 110.915 50.68 105.055C50.51 104.555 50.37 104.085 50.23 103.605C49.83 102.205 49.49 100.905 49.28 99.7151C48.95 98.1751 48.81 96.7951 48.85 95.6851C49.16 88.4751 38.65 86.2951 34.14 83.2351C32.65 82.1951 31.82 81.0751 32.29 79.6551C33.03 77.4251 36.25 75.9751 40.78 75.0251C53.68 72.2751 77.17 73.4851 83.19 71.2051C91.3 68.1451 82.65 66.4251 95.86 60.6551C103.57 57.2851 111.89 54.4851 118.35 48.8651C121.48 46.1151 124 48.2751 125.18 44.2351C126.63 39.3251 128.76 35.8851 133.58 33.3951C134.32 33.0151 135.07 32.6851 135.88 32.5151C136.64 32.3451 137.42 32.3251 138.2 32.3051C142.21 32.2351 147.55 30.9551 150.96 33.2551C152.95 34.6051 154.73 36.3851 155.78 38.4951C156.35 39.6351 156.73 40.8951 156.8 42.2451C157.42 52.8251 155.26 53.3951 154.1 61.5251L154.07 61.5351Z" fill="#FFFBF0"/>
<path d="M78.11 64.6452C76.91 64.6252 75.65 64.6052 74.57 65.1252C73.49 65.6452 72.64 66.8852 72.99 68.0352C73.31 69.1152 74.47 69.6852 75.55 70.0052C76.63 70.3252 77.81 70.5452 78.59 71.3652C79.22 72.0352 79.49 73.0152 80.22 73.5752C80.97 74.1452 81.99 74.1152 82.93 74.0652C83.27 74.0452 83.62 74.0252 83.92 73.8752C84.27 73.7052 84.51 73.3852 84.74 73.0752C86.01 71.3852 88.51 67.4252 86.48 65.4352C84.84 63.8252 80.15 64.6752 78.11 64.6352V64.6452Z" fill="#383838"/>
<path d="M103.6 88.7252C106.79 86.5152 109.42 84.5952 112.92 82.9452C113.45 82.6952 114.02 82.4352 114.6 82.4852C115.24 82.5352 115.78 82.9352 116.36 83.1952C117.98 83.9252 119.94 83.5552 121.44 82.5952C122.94 81.6452 124.04 80.1852 124.97 78.6652C125.22 78.2552 125.47 77.8252 125.51 77.3552C125.56 76.7552 125.27 76.1752 124.94 75.6652C123.51 73.4552 121.23 71.8352 120.08 69.4652C118.77 66.7752 119.16 63.6152 119.1 60.6252C119.09 59.9052 118.93 59.0352 118.25 58.7952C117.95 58.6952 117.62 58.7552 117.31 58.8152C114.39 59.3752 111.46 59.9452 108.54 60.5052C106.84 60.8352 105.09 61.1752 103.64 62.1252C100.41 64.2252 101.15 69.1452 100.32 72.4552C100.04 73.5652 99.45 74.6052 98.64 75.4152C97.28 76.7752 95.38 77.4452 93.88 78.6552C92.38 79.8652 91.32 82.1052 92.42 83.6852C92.79 84.2252 93.37 84.6052 93.68 85.1852C94 85.7752 93.99 86.4852 93.98 87.1552C93.93 89.3752 93.88 91.5852 93.84 93.8052C93.84 94.0752 93.84 94.3752 94.03 94.5752C94.22 94.7652 94.52 94.7852 94.79 94.7852H98.95C99.29 92.1852 101.45 90.2352 103.61 88.7352L103.6 88.7252Z" fill="#383838"/>
<path d="M61.29 92.4053C61.48 92.2753 61.69 92.1353 61.76 91.9053C61.87 91.5653 61.62 91.2353 61.38 90.9653C60.64 90.1253 59.9 89.2753 59.16 88.4353C56.39 85.2853 53.4 81.9853 49.39 80.7553C46.12 79.7553 42.61 80.2553 39.24 80.7653C38.67 80.8553 38.01 81.0053 37.76 81.5253C37.55 81.9653 37.74 82.4853 37.95 82.9253C39.8 86.7253 43.63 89.0753 46.56 92.1153C47.99 93.6053 49.21 95.2853 50.22 97.0753C50.72 97.9553 51.89 102.105 53.22 101.005C53.64 100.655 53.72 99.6053 54.02 99.1253C54.57 98.2353 55.44 97.4253 56.16 96.6853C57.72 95.0853 59.44 93.6453 61.29 92.3953V92.4053Z" fill="#FFEEE7"/>
<g style="mix-blend-mode:multiply">
<path d="M90.67 117.595C89.63 119.145 88.42 120.865 86.47 121.315C86.16 121.385 85.85 121.385 85.53 121.375L83.37 121.355C83.26 121.355 83.08 121.325 82.98 121.275C82.23 120.875 82.32 119.745 81.46 119.425C80.55 119.085 78.75 119.755 77.95 120.185C76.09 121.185 74.81 121.895 72.61 122.045C72.53 122.045 72.45 122.045 72.38 122.045C68.65 121.585 65.01 120.545 61.65 118.835C55.96 115.915 52.59 110.915 50.64 105.055C50.47 104.555 50.33 104.085 50.19 103.605C49.86 102.465 49.58 101.395 49.37 100.395C49.28 99.965 49.49 99.525 49.88 99.325C50.18 99.165 50.46 99.095 50.94 99.145C51.57 99.215 51.99 99.245 52.56 98.715C52.97 98.325 53.27 97.835 53.57 97.355C54.81 95.445 56.37 93.755 57.67 91.885C58.46 90.735 59.62 87.175 61.19 89.495C62.02 90.715 61.67 92.545 62.39 93.485C62.56 93.705 62.61 93.985 62.56 94.255C61.89 97.875 62.32 100.305 63.04 103.195C63.23 103.975 63.13 104.685 63.59 105.395C64.19 106.315 65.22 106.765 66.04 107.445C66.91 108.175 67.55 109.175 67.84 110.265C67.94 109.175 68.02 108.035 67.6 107.025C67.39 106.525 67.07 106.095 66.8 105.625C65.84 103.935 65.64 101.925 65.63 99.985C65.62 98.535 65.71 97.055 66.19 95.685C67.48 92.085 71.23 91.665 74.61 91.735C75.41 91.755 76.23 91.775 76.95 92.125C77.52 92.405 77.98 92.865 78.38 93.365C79.69 95.005 80.6 97.485 81.1 99.505C81.62 101.625 81.56 105.405 83.78 106.205C83.88 106.245 83.99 106.255 84.1 106.265C89.38 106.585 94.68 105.445 99.56 103.435C103.55 101.795 101.42 102.445 104.93 99.955C108.19 97.645 109.58 94.195 111.93 91.065C114.84 87.205 119.06 84.455 121.75 80.445C122.92 78.705 123.76 76.765 124.48 74.785C125.47 72.035 125.62 69.385 126.16 66.535C126.52 64.705 126.87 62.855 127.54 61.125C128.35 58.995 129.6 57.065 130.84 55.175C132 53.395 133.24 57.115 135.06 56.005C136.53 55.125 138.24 54.775 139.92 54.465C141.18 54.205 142.46 53.965 143.72 53.725C145.74 53.325 148.2 53.105 149.39 54.765C149.89 55.425 150.05 56.285 150.15 57.115C150.65 61.335 150.1 60.125 148.54 64.115C147.73 66.155 146.33 68.455 147.07 70.685C147.71 72.585 148.54 74.295 147.99 76.405C147.99 76.425 147.97 76.475 147.97 76.495C147.9 76.775 147.78 77.015 147.64 77.205C142.7 83.235 125.63 93.165 124.72 93.695C124.69 93.715 124.67 93.725 124.65 93.745C124.44 93.895 123.23 94.755 121.32 95.995C121.27 96.045 121.2 96.065 121.15 96.115C119.96 97.305 118.08 97.835 116.77 98.885C115.75 99.705 114.99 100.835 113.99 101.705C111.22 104.125 108.37 106.465 105.29 108.495C101.47 111.015 108.53 107.545 95.92 113.925C95.89 113.935 95.86 113.955 95.84 113.975C92.9 115.865 91.92 115.725 90.66 117.595H90.67Z" fill="#E0DACE"/>
</g>
<g style="mix-blend-mode:multiply">
<path d="M148.54 59.3751C147.73 61.4251 146.34 63.7251 147.08 65.9451C147.18 66.2551 147.29 66.5551 147.4 66.8551C147.75 65.9151 148.2 64.9851 148.54 64.1051C150.02 60.3351 150.57 61.7951 150.19 57.7651C149.97 60.2251 149.44 57.0751 148.54 59.3751Z" fill="#E5DDCD"/>
</g>
<path d="M79.95 121.115C79.9 120.165 79.83 119.195 79.76 118.265C79.67 118.355 79.57 118.435 79.48 118.525C78.77 119.165 78.08 119.825 77.46 120.475C76.7 121.405 74.85 121.925 72.5 122.065C68.73 121.615 65.05 120.575 61.66 118.835C55.97 115.915 52.6 110.915 50.65 105.055C50.48 104.555 50.34 104.085 50.2 103.605C50.46 103.535 50.75 103.485 51.03 103.465C51.12 103.465 52.43 106.885 52.62 107.285C53.33 108.925 54.28 110.435 55.18 111.955C55.75 112.905 56.34 113.855 57.17 114.615C57.74 115.135 58.4 115.545 59.09 115.915C61.89 117.365 65.04 117.975 68.17 118.405C69.52 118.615 70.92 118.765 72.27 118.615C75.61 118.235 77.44 115.625 79.74 113.515C79.83 114.915 79.93 116.315 80.02 117.715V117.995C80.09 119.065 80.04 120.085 79.93 121.105L79.95 121.115Z" fill="#DDC4BA"/>
<path d="M148.17 75.0353C148.17 75.4653 148.12 75.9353 148 76.4153C148 76.4353 147.98 76.4853 147.98 76.5053C147.06 76.8153 143.83 77.3553 143.66 77.5753C138.58 83.7653 124.68 93.6553 124.68 93.6553C124.06 94.1053 123.47 94.4853 122.92 94.8653H122.9C122.35 95.2453 121.83 95.6053 121.31 96.0053C121.26 96.0553 121.19 96.0753 121.14 96.1253C120.95 96.2653 120.78 96.4353 120.59 96.5953C120.09 97.0453 119.62 97.5453 119.12 98.1853C118.46 99.0353 117.84 99.9153 117.2 100.795C117.13 100.865 117.06 100.935 116.99 100.985C115.23 102.405 113.31 103.615 111.56 105.045C107.41 108.465 110.28 110.235 105.68 113.105C100.39 116.405 94.79 119.125 88.82 120.765C88.56 120.835 88.32 120.905 88.06 120.955C87.54 121.095 87.02 121.215 86.47 121.335C84.36 121.805 82.18 122.145 80.02 122.285C79.46 122.325 78.91 122.345 78.36 122.355C77.67 122.365 77.18 121.665 77.42 121.015C77.51 120.775 77.6 120.545 77.7 120.315C78.63 118.485 80.24 116.975 82.02 115.925C84.77 114.335 87.9 113.675 90.91 112.725C92.88 112.085 94.8 111.345 96.7 110.595C98.98 109.695 101.25 108.815 103.51 107.915C105.83 107.015 102.33 108.945 104.44 107.615C106.91 106.075 108.99 104.035 111.08 101.995C113.64 99.5053 116.2 96.9953 118.77 94.4753C120.7 92.5953 122.47 90.5953 124.65 89.0353C124.68 89.0153 124.71 88.9953 124.75 88.9753C125.77 88.3853 142.74 78.5253 147.66 72.4953C147.66 72.4953 147.66 72.4453 147.68 72.4253C147.82 72.8753 147.96 73.3053 148.04 73.7553C148.09 73.9653 148.11 74.1853 148.13 74.3753C148.15 74.6153 148.18 74.8253 148.18 75.0653L148.17 75.0353Z" fill="#DDC4BA"/>
<path d="M106.51 107.405C105.42 108.035 104.46 108.865 103.5 109.695C103.35 109.825 103.19 109.975 103.12 110.165C103 110.525 103.25 110.955 103.08 111.295C103 111.465 102.82 111.575 102.66 111.675C101.23 112.515 99.59 113.065 98.38 114.195C98.09 114.465 97.83 114.765 97.5 114.995C97.07 115.295 96.56 115.455 96.06 115.605C95.23 115.855 94.39 116.105 93.53 116.195C92.79 116.275 92.03 116.225 91.29 116.335C90.51 116.445 89.75 116.725 89.09 117.135C88.97 117.205 88.86 117.285 88.78 117.405C88.69 117.545 88.66 117.705 88.61 117.865C88.37 118.755 87.59 119.475 86.69 119.655C87.83 119.955 89.04 119.735 90.14 119.315C91.24 118.895 92.24 118.275 93.29 117.735C95.48 116.605 97.83 115.835 100.21 115.195C101.01 114.985 101.82 114.785 102.6 114.515C103.51 114.205 104.39 113.805 105.22 113.315C106.93 112.315 108.48 110.855 109.33 109.035C109.55 108.575 110.32 106.845 109.78 106.445C109.13 105.975 107.07 107.085 106.51 107.415V107.405Z" fill="#383838"/>
<path d="M91.14 108.425C91.01 109.015 90.87 109.595 90.7 110.175C90.08 112.445 89.23 114.645 88.35 116.835C87.75 118.325 87.14 119.815 86.58 121.325C85.9 123.145 84.77 125.385 84.93 127.365C85.08 129.305 85.27 131.095 85.14 133.075C85.1 133.685 85.05 134.295 84.93 134.895C84.8 135.535 84.59 136.155 84.37 136.785C83.73 138.675 82.36 140.635 82.12 142.615C81.91 144.365 81.8 146.335 82.31 148.045C82.45 148.505 82.62 148.955 82.66 149.435C82.73 150.195 82.45 150.955 82.47 151.715C82.51 153.015 83.35 154.165 83.4 155.445C83.45 156.715 83.12 158.015 83.07 159.285C83.04 159.845 83.02 160.415 82.84 160.955C82.63 161.595 82.22 162.145 81.77 162.645C80.89 163.625 79.82 164.425 78.51 163.765C77.86 163.435 77.29 162.955 76.72 162.515C76.38 162.255 75.99 161.845 75.6 161.675C75.16 161.485 74.64 161.545 74.19 161.325C73.81 161.135 73.19 160.625 73.14 160.155C73.12 159.915 73.35 159.535 73.43 159.295C73.53 158.995 73.62 158.685 73.71 158.375C74.76 154.815 76.21 151.305 76.64 147.585C76.8 146.175 77.08 144.725 76.76 143.315C76.47 142.015 76.03 140.785 75.68 139.495C75.22 137.825 75.4 136.655 75.41 134.995C75.43 131.475 76.26 128.075 76.04 124.545C75.95 123.145 75.84 121.745 75.76 120.345C75.72 119.905 75.7 119.475 75.67 119.035C75.63 118.235 74.38 116.085 72.74 113.315C71.72 111.585 70.56 109.625 69.43 107.595C66.66 102.625 64.16 97.275 64.79 94.215C66.09 87.895 69.03 83.035 71.38 79.005C73.74 74.985 82.39 83.735 82.39 83.735C82.39 83.735 86.97 91.735 89.55 99.075C89.59 99.195 89.63 99.305 89.67 99.425C90.86 102.905 91.58 106.225 91.1 108.425H91.14Z" fill="#FFFBF0"/>
<path d="M78.21 133.545C78.16 136.805 78.12 140.065 78.08 143.315C78.08 143.995 78.12 144.805 78.7 145.165C79.3 145.545 80.13 145.175 80.52 144.585C80.91 143.995 80.98 143.265 81.08 142.565C81.27 141.225 81.61 139.895 82.18 138.665C82.67 137.595 83.33 136.605 83.71 135.495C84.25 133.875 85.17 128.465 82.69 128.035C79.83 127.545 78.26 131.425 78.23 133.535L78.21 133.545Z" fill="#383838"/>
<path d="M77.92 159.475C77.82 159.395 76.95 159.975 76.1 160.545C76.06 160.675 76 160.785 75.97 160.915C75.93 161.115 75.91 161.305 75.97 161.495C76.03 161.665 77.54 160.585 78.56 159.935C78.35 159.785 78.16 159.635 77.93 159.475H77.92Z" fill="#E5DDCD"/>
<g style="mix-blend-mode:multiply">
<path d="M89.71 99.4252C89.67 99.3052 89.63 99.1952 89.59 99.0752C87.2 92.2652 83.08 84.8852 82.49 83.8552C82.44 83.7752 82.39 83.7052 82.32 83.6352C81.53 82.8552 76.22 77.7552 73.1 77.9752C77.62 78.6252 81.53 83.4152 82.12 84.1652C82.17 84.2352 82.21 84.2952 82.25 84.3752C82.67 85.3452 85.67 92.2652 88.06 99.0752C88.1 99.1952 88.14 99.3052 88.18 99.4252C89.37 102.905 90.09 106.225 89.61 108.425C89.48 109.015 89.34 109.595 89.17 110.175C88.55 112.445 87.7 114.645 86.82 116.835C86.22 118.325 85.61 119.815 85.05 121.325C84.37 123.145 83.24 125.385 83.4 127.365C83.55 129.305 83.58 130.565 83.46 132.545C83.42 133.155 83.37 133.765 83.25 134.365C83.12 135.005 82.91 135.625 82.69 136.255C82.05 138.145 80.84 140.635 80.6 142.615C80.39 144.365 80.28 146.335 80.79 148.045C80.93 148.505 81.1 148.955 81.14 149.435C81.21 150.195 80.93 150.955 80.95 151.715C80.99 153.015 81.83 154.165 81.88 155.445C81.93 156.715 81.61 158.015 81.54 159.285C81.51 159.845 81.49 160.415 81.31 160.955C81.1 161.595 80.69 162.145 80.24 162.645C79.66 163.275 79.18 163.655 78.74 163.855C79.68 164.255 80.5 164.025 81.77 162.645C82.22 162.145 82.63 161.585 82.84 160.955C83.02 160.415 83.05 159.855 83.07 159.285C83.13 158.015 83.45 156.715 83.4 155.445C83.35 154.165 82.5 153.025 82.47 151.715C82.45 150.945 82.72 150.195 82.65 149.435C82.61 148.955 82.43 148.505 82.3 148.045C81.79 146.335 81.9 144.365 82.11 142.615C82.35 140.635 83.72 138.675 84.36 136.785C84.58 136.155 84.78 135.535 84.92 134.895C85.04 134.295 85.08 133.685 85.13 133.075C85.26 131.085 85.07 129.305 84.92 127.365C84.76 125.385 85.89 123.145 86.57 121.325C87.13 119.825 87.74 118.335 88.34 116.835C89.22 114.645 90.07 112.445 90.69 110.175C90.86 109.605 91 109.015 91.13 108.425C91.6 106.225 90.89 102.905 89.7 99.4252H89.71Z" fill="#E0DACE"/>
</g>
<path d="M82.17 89.195C81.85 86.885 80.75 85.265 79.66 83.695C78.45 81.955 77.16 80.155 75.09 79.835C74.5 81.275 73.45 82.525 72.44 83.665C71.43 84.805 70.36 85.975 69.64 87.385C68.93 88.795 68.71 90.525 69.48 91.015C70.43 91.615 72.13 90.135 73.4 90.015C74.92 89.875 75.49 91.745 75.37 93.715C75.24 95.685 74.62 97.865 74.56 99.805C74.46 102.815 75.83 104.975 78.02 105.265C78.9 105.385 79.93 105.225 80.61 105.735C81.63 106.505 83.21 108.175 83.88 104.575C84.22 102.745 83.65 101.485 83.07 100.385C81.46 97.375 82.71 93.045 82.19 89.195H82.17Z" fill="#383838"/>
<path d="M143.2 79.7852C143.2 79.7852 145.97 92.8552 136.29 99.1052C124.43 106.745 118.7 98.4252 118.7 97.6952C118.7 96.9652 123.56 84.4152 132.78 81.1952C142 77.9652 143.21 79.7952 143.21 79.7952L143.2 79.7852Z" fill="#FF866A"/>
<path d="M123.08 98.165V104.605C123.08 105.515 123.7 106.255 124.47 106.255C125.24 106.255 125.86 105.515 125.86 104.605V98.165H123.07H123.08Z" fill="#FF866A"/>
<path d="M132.8 104.705C132.8 105.615 133.44 106.355 134.23 106.355C135.02 106.355 135.66 105.615 135.66 104.705V98.2651H132.81V104.705H132.8Z" fill="#FF866A"/>
<path d="M136.7 94.8853V101.325C136.7 102.235 137.25 102.975 137.94 102.975C138.62 102.975 139.18 102.235 139.18 101.325V94.8853H136.7Z" fill="#FF866A"/>
<path d="M134.5 84.3049C134.5 84.3049 133.42 83.0749 131.91 81.5449C123.26 85.2249 118.69 96.9749 118.69 97.6849C118.69 97.8749 119.11 98.6149 119.93 99.4449C122.81 100.275 126.86 100.035 132.12 96.6449C141.81 90.4049 134.5 84.3049 134.5 84.3049Z" fill="#FFAB91"/>
<path d="M151.85 55.0453C151.85 55.0453 154.9 50.3053 149.57 47.7853C144.24 45.2653 135.09 42.9353 131.13 48.7153C127.17 54.4953 127.02 60.8753 129.92 72.0253C132.81 83.1653 139.79 85.5853 140.8 89.8853C141.82 94.1953 146.37 95.9653 147.89 98.5853C149.41 101.205 148.08 109.885 147.67 112.455C147.42 114.035 146.98 115.575 146.62 117.135C146.39 118.115 145.42 118.515 144.86 119.375C144.65 119.695 145.07 120.575 144.98 120.925C144.87 121.355 145.21 121.925 145.47 122.235C145.79 122.625 146.2 122.935 146.56 123.295C146.74 123.475 146.92 123.675 147.14 123.805C147.33 123.915 147.54 123.985 147.75 124.045C148.94 124.395 149.7 124.805 150.91 124.365C151.93 123.995 152.87 123.345 153.44 122.405C154.46 120.725 154.04 118.575 154.02 116.695C154.01 115.325 154.75 113.555 155.06 112.205C155.21 111.535 155.35 110.825 155.13 110.175C154.85 109.375 154.34 108.755 154.24 107.885C154.14 107.085 154.23 106.215 154.24 105.405C154.25 103.675 154.27 101.935 154.31 100.205C154.37 97.6453 154.27 94.9053 154.82 92.3853C155.63 88.6553 156.24 85.6253 155.63 84.4553C155.02 83.2953 153.5 78.4653 152.38 72.9253C151.26 67.3953 151.87 55.0353 151.87 55.0353L151.85 55.0453Z" fill="#FFFBF0"/>
<path d="M147.08 84.4353C145.92 82.7153 144.81 80.9153 144.34 78.8953C143.91 77.0453 144.02 75.0753 143.39 73.2753C142.76 71.4753 140.94 69.8353 139.11 70.3653C138.41 70.5653 137.75 71.2153 137.87 71.9453C137.98 72.6253 138.67 73.0253 139.03 73.6053C139.63 74.5853 139.21 75.8253 139.05 76.9653C138.81 78.6653 139.2 80.3953 139.6 82.0653C140.36 85.3053 141.12 88.5453 141.87 91.7853C142 92.3253 142.13 92.8853 142.43 93.3553C143.13 94.4453 144.51 94.7953 145.69 95.3053C145.95 95.4153 146.23 95.5553 146.38 95.7953C146.57 96.0853 146.55 96.4553 146.57 96.7953C146.66 98.1653 147.46 98.6253 148.21 99.5753C149.04 100.635 148.64 101.835 148.55 103.295C148.33 106.625 148.28 109.975 148.4 113.315C149.6 113.675 151.01 113.035 151.54 111.905C151.98 110.955 151.82 109.835 151.5 108.835C151.18 107.835 150.71 106.885 150.53 105.855C150.18 103.835 151.01 101.805 151.82 99.9153C151.96 99.5853 152.1 99.2553 152.24 98.9253C152.96 97.2453 153.09 95.4953 153.47 93.7453C153.85 92.0153 153.65 90.1053 152.23 88.8853C151.47 88.2353 150.54 88.1753 149.74 87.6553C148.61 86.9253 147.82 85.5153 147.08 84.4253V84.4353Z" fill="#383838"/>
<g style="mix-blend-mode:multiply">
<path d="M150.53 61.3452C149.78 64.6652 149.02 68.0752 149.54 71.4352C150.1 75.0852 152.1 78.3152 153.63 81.6752C154.49 83.5652 155.16 85.5352 155.72 87.5352C155.91 86.1252 155.92 85.0452 155.61 84.4552C155 83.2952 153.48 78.4652 152.36 72.9252C151.39 68.1052 151.72 58.1052 151.83 55.6152C151.4 57.5252 150.97 59.4252 150.53 61.3352V61.3452Z" fill="#E0DACE"/>
<path d="M150.91 124.365C151.93 123.995 152.87 123.345 153.44 122.405C154.46 120.725 154.04 118.575 154.02 116.695C154.01 115.325 154.75 113.555 155.06 112.205C155.21 111.535 155.35 110.825 155.13 110.175C154.85 109.375 154.34 108.755 154.24 107.885C154.14 107.085 154.23 106.215 154.24 105.415C154.25 103.685 154.27 101.945 154.31 100.215C154.37 97.655 154.27 94.915 154.82 92.395C154.86 92.215 154.89 92.045 154.93 91.875C152.54 95.895 152.24 100.875 152.36 105.585C152.49 110.585 152.97 115.725 151.44 120.495C151 121.855 150.41 123.195 149.88 124.545C150.21 124.545 150.54 124.515 150.93 124.375L150.91 124.365Z" fill="#E0DACE"/>
</g>
<path d="M151.45 47.6051C150.17 50.8251 147.62 53.7551 145.11 55.2151C142.59 56.6751 140.15 56.7651 138.33 55.8151C137.21 55.2351 136.25 54.2751 134.84 54.3451C133.73 54.4051 132.46 55.0951 131.35 55.1651C130.52 55.2151 129.74 54.6451 130.07 53.4851C130.23 52.9251 130.61 52.3751 130.99 51.8951C133.34 48.9051 136.17 46.8751 138.9 44.9351C141.05 43.4151 143.19 41.8951 145.34 40.3751C147.51 38.8351 150.65 36.9951 151.89 38.7951C153.04 40.4751 152.59 44.7551 151.46 47.6051H151.45Z" fill="#383838"/>
<path d="M83.43 155.405C83.43 155.405 81.23 158.585 78.24 158.795C75.25 158.995 74.24 156.905 74.24 156.905C74.24 156.905 71.61 160.265 71.33 161.325C71.05 162.385 71.86 163.285 73.07 163.635L74.51 162.535L74.28 164.385C75.02 164.875 77.71 165.995 80.76 163.475C83.81 160.955 82.93 161.185 83.25 160.175C83.57 159.175 83.43 155.395 83.43 155.395V155.405Z" fill="#22222C"/>
<path d="M154.05 117.055C154.05 117.055 153.06 120.105 149.1 120.255C146.1 120.375 145.29 118.445 145.29 118.445C145.29 118.445 142.42 121.485 142.11 122.545C141.79 123.595 142.57 124.525 143.77 124.915L145.18 123.935L144.95 125.705C145.67 126.225 148.32 127.435 151.46 125.025C154.6 122.615 153.71 122.805 154.06 121.815C154.42 120.825 154.06 117.045 154.06 117.045L154.05 117.055Z" fill="#22222C"/>
<path d="M129.11 108.945C129.11 108.945 127.77 111.235 124.77 111.415C121.78 111.595 121.12 109.515 121.12 109.515C121.12 109.515 118.13 112.835 117.84 113.905C117.55 114.965 118.36 115.875 119.56 116.225L120.91 115.045L120.76 116.985C121.49 117.475 124.18 118.625 127.25 116.125C130.32 113.625 129.43 113.845 129.76 112.845C130.09 111.845 129.1 108.945 129.1 108.945H129.11Z" fill="#22222C"/>
<path d="M62.12 147.165C62.12 147.165 59.95 150.365 56.96 150.605C53.97 150.835 52.94 148.755 52.94 148.755C52.94 148.755 50.34 152.135 50.07 153.205C49.8 154.275 50.62 155.165 51.83 155.495L53.18 154.445L53.04 156.245C53.78 156.725 56.49 157.825 59.51 155.275C62.54 152.725 61.66 152.965 61.97 151.955C62.28 150.945 62.11 147.175 62.11 147.175L62.12 147.165Z" fill="#22222C"/>
<path d="M154.05 117.055C154.05 117.055 153.66 118.245 152.4 119.175C152.44 120.205 152.43 121.315 152.26 121.785C151.9 122.775 152.79 122.585 149.66 124.995C148.55 125.845 147.51 126.235 146.59 126.365C147.81 126.615 149.54 126.495 151.45 125.025C154.59 122.615 153.7 122.805 154.05 121.815C154.41 120.825 154.05 117.045 154.05 117.045V117.055Z" fill="#31313A"/>
<path d="M129.11 108.945C129.11 108.945 128.66 109.675 127.74 110.345C127.96 111.225 128.16 112.275 127.98 112.805C127.65 113.805 128.54 113.585 125.47 116.085C124.34 117.005 123.26 117.435 122.31 117.575C123.55 117.815 125.33 117.695 127.26 116.115C130.33 113.615 129.44 113.835 129.77 112.835C130.1 111.835 129.11 108.935 129.11 108.935V108.945Z" fill="#31313A"/>
<path d="M125.41 115.155C125.33 115.205 125.23 115.235 125.12 115.235C124.99 115.235 124.85 115.185 124.71 115.085C124.23 114.285 123.89 113.355 123.75 112.425C123.61 111.495 123.61 110.565 123.68 109.665C123.76 109.515 123.86 109.415 123.97 109.355C124.06 109.305 124.16 109.285 124.26 109.285C124.3 109.285 124.33 109.295 124.37 109.305C124.46 109.335 124.55 109.395 124.63 109.475C124.69 109.545 124.75 109.635 124.79 109.735C124.66 111.445 124.8 113.115 125.68 114.515C125.68 114.625 125.68 114.725 125.65 114.815C125.62 114.925 125.57 115.015 125.5 115.085C125.47 115.115 125.45 115.135 125.42 115.155H125.41Z" fill="#F1EDAE"/>
<path d="M124.29 113.535C124.03 112.775 123.93 111.985 123.9 111.205C123.88 110.585 123.9 109.965 123.96 109.345C123.85 109.405 123.75 109.505 123.67 109.655C123.64 110.165 123.62 110.685 123.63 111.205C123.66 112.005 123.77 112.825 124.03 113.615C124.2 114.125 124.43 114.615 124.7 115.075C124.84 115.175 124.98 115.225 125.11 115.225C124.78 114.695 124.48 114.135 124.28 113.525L124.29 113.535Z" fill="#DED37E"/>
<path d="M125.49 115.085C124.94 114.245 124.55 113.305 124.4 112.315C124.24 111.325 124.28 110.315 124.36 109.305C124.45 109.335 124.54 109.395 124.62 109.475C124.55 110.415 124.53 111.365 124.67 112.275C124.81 113.185 125.15 114.035 125.65 114.815C125.62 114.925 125.57 115.015 125.5 115.085H125.49Z" fill="#F9F5C6"/>
<path d="M129.15 113.335C129.07 113.385 128.97 113.415 128.86 113.415C128.73 113.415 128.59 113.365 128.45 113.265C127.97 112.465 127.63 111.535 127.49 110.605C127.35 109.675 127.35 108.745 127.42 107.845C127.5 107.695 127.6 107.595 127.71 107.535C127.8 107.485 127.9 107.465 128 107.465C128.04 107.465 128.07 107.475 128.11 107.485C128.2 107.515 128.29 107.575 128.37 107.655C128.43 107.725 128.49 107.815 128.53 107.915C128.4 109.625 128.54 111.295 129.42 112.695C129.42 112.805 129.42 112.905 129.39 112.995C129.36 113.105 129.31 113.195 129.24 113.265C129.21 113.295 129.19 113.315 129.16 113.335H129.15Z" fill="#F1EDAE"/>
<path d="M128.04 111.715C127.78 110.955 127.68 110.165 127.65 109.385C127.63 108.765 127.65 108.145 127.71 107.525C127.6 107.585 127.5 107.685 127.42 107.835C127.39 108.345 127.37 108.865 127.38 109.385C127.41 110.185 127.52 111.005 127.78 111.795C127.95 112.305 128.19 112.795 128.45 113.255C128.59 113.355 128.73 113.405 128.86 113.405C128.53 112.875 128.23 112.315 128.03 111.705L128.04 111.715Z" fill="#DED37E"/>
<path d="M129.24 113.265C128.69 112.425 128.3 111.485 128.15 110.495C127.99 109.505 128.03 108.495 128.11 107.485C128.2 107.515 128.29 107.575 128.37 107.655C128.3 108.595 128.27 109.545 128.42 110.455C128.56 111.365 128.9 112.215 129.4 112.995C129.37 113.105 129.32 113.195 129.25 113.265H129.24Z" fill="#F9F5C6"/>
<path d="M132.9 111.505C132.82 111.555 132.72 111.585 132.61 111.585C132.48 111.585 132.34 111.535 132.2 111.435C131.72 110.635 131.38 109.705 131.24 108.775C131.1 107.845 131.1 106.915 131.17 106.015C131.25 105.865 131.35 105.765 131.46 105.705C131.55 105.655 131.65 105.635 131.75 105.635C131.79 105.635 131.82 105.645 131.86 105.655C131.95 105.685 132.04 105.745 132.12 105.825C132.18 105.895 132.24 105.985 132.28 106.085C132.15 107.795 132.29 109.465 133.17 110.865C133.17 110.975 133.17 111.075 133.14 111.165C133.11 111.275 133.06 111.365 132.99 111.435C132.96 111.465 132.94 111.485 132.91 111.505H132.9Z" fill="#F1EDAE"/>
<path d="M131.78 109.885C131.52 109.125 131.42 108.335 131.39 107.555C131.37 106.935 131.39 106.315 131.45 105.695C131.34 105.755 131.24 105.855 131.16 106.005C131.13 106.515 131.11 107.035 131.12 107.555C131.15 108.355 131.26 109.175 131.52 109.965C131.69 110.475 131.92 110.965 132.19 111.425C132.33 111.525 132.47 111.575 132.6 111.575C132.27 111.045 131.97 110.485 131.77 109.875L131.78 109.885Z" fill="#DED37E"/>
<path d="M132.98 111.435C132.43 110.595 132.04 109.655 131.89 108.665C131.73 107.675 131.77 106.665 131.85 105.655C131.94 105.685 132.03 105.745 132.11 105.825C132.04 106.765 132.01 107.715 132.16 108.625C132.3 109.535 132.64 110.385 133.14 111.165C133.11 111.275 133.06 111.365 132.99 111.435H132.98Z" fill="#F9F5C6"/>
<path d="M134.3 109.365L116.3 119.655L116.37 119.765C116.31 119.895 116.28 120.045 116.28 120.235C116.28 120.985 116.8 121.905 117.45 122.285C117.61 122.375 117.76 122.425 117.9 122.445L117.96 122.555L135.96 112.265C136.17 112.145 136.3 111.875 136.3 111.505C136.3 110.755 135.78 109.835 135.13 109.455C134.81 109.265 134.51 109.245 134.3 109.375V109.365Z" fill="url(#paint0_linear_1_148)"/>
<path d="M129.46 111.515C129.56 111.515 129.66 111.525 129.75 111.585C129.86 111.645 129.96 111.755 130.04 111.915C130.08 112.845 130.07 113.845 129.65 114.815C129.44 115.295 129.11 115.755 128.66 116.095C128.22 116.445 127.69 116.605 127.19 116.705C127 116.665 126.87 116.585 126.78 116.485C126.71 116.405 126.67 116.315 126.66 116.215C126.66 116.175 126.66 116.145 126.66 116.105C126.67 116.005 126.71 115.905 126.78 115.815C126.83 115.735 126.9 115.665 126.98 115.605C127.75 115.475 128.33 115.055 128.62 114.355C128.92 113.665 128.97 112.805 128.92 111.955C128.96 111.855 129.02 111.765 129.08 111.695C129.16 111.615 129.25 111.555 129.34 111.525C129.38 111.515 129.41 111.505 129.45 111.505L129.46 111.515Z" fill="#F1EDAE"/>
<path d="M129.72 113.505C129.62 114.305 129.32 115.165 128.65 115.745C128.13 116.215 127.44 116.435 126.78 116.485C126.86 116.585 127 116.655 127.19 116.705C127.76 116.595 128.35 116.365 128.83 115.945C129.57 115.305 129.89 114.365 129.99 113.535C130.07 112.985 130.07 112.435 130.04 111.905C129.96 111.745 129.86 111.645 129.75 111.575C129.8 112.205 129.81 112.845 129.72 113.495V113.505Z" fill="#DED37E"/>
<path d="M129.35 111.535C129.42 112.555 129.43 113.615 129.04 114.545C128.84 115.005 128.52 115.405 128.1 115.665C127.68 115.925 127.18 116.055 126.68 116.105C126.69 116.005 126.73 115.905 126.8 115.815C127.71 115.735 128.47 115.245 128.8 114.435C129.15 113.625 129.16 112.655 129.1 111.695C129.18 111.615 129.27 111.555 129.36 111.525L129.35 111.535Z" fill="#F9F5C6"/>
<path d="M134.17 108.815C134.27 108.815 134.37 108.825 134.46 108.885C134.57 108.945 134.67 109.055 134.75 109.215C134.79 110.145 134.78 111.145 134.36 112.115C134.15 112.595 133.82 113.055 133.37 113.395C132.93 113.745 132.4 113.905 131.9 114.005C131.71 113.965 131.58 113.885 131.49 113.785C131.42 113.705 131.38 113.615 131.37 113.515C131.37 113.475 131.37 113.445 131.37 113.405C131.38 113.305 131.42 113.205 131.49 113.115C131.54 113.035 131.61 112.965 131.69 112.905C132.46 112.775 133.04 112.355 133.33 111.655C133.63 110.965 133.68 110.105 133.63 109.255C133.67 109.155 133.73 109.065 133.79 108.995C133.87 108.915 133.96 108.855 134.05 108.825C134.09 108.815 134.12 108.805 134.16 108.805L134.17 108.815Z" fill="#F1EDAE"/>
<path d="M134.43 110.805C134.33 111.605 134.03 112.465 133.36 113.045C132.84 113.515 132.15 113.735 131.49 113.785C131.57 113.885 131.71 113.955 131.9 114.005C132.47 113.895 133.06 113.665 133.54 113.245C134.28 112.605 134.6 111.665 134.7 110.835C134.78 110.285 134.78 109.735 134.75 109.205C134.67 109.045 134.57 108.945 134.46 108.875C134.5 109.505 134.52 110.145 134.43 110.795V110.805Z" fill="#DED37E"/>
<path d="M134.06 108.835C134.13 109.855 134.14 110.915 133.75 111.845C133.55 112.305 133.23 112.705 132.81 112.965C132.39 113.225 131.89 113.355 131.39 113.405C131.4 113.305 131.44 113.205 131.51 113.115C132.42 113.035 133.18 112.545 133.51 111.735C133.86 110.925 133.87 109.955 133.81 108.995C133.89 108.915 133.98 108.855 134.07 108.825L134.06 108.835Z" fill="#F9F5C6"/>
<path d="M138.07 106.465C138.17 106.465 138.27 106.475 138.36 106.535C138.47 106.595 138.57 106.705 138.65 106.865C138.69 107.795 138.68 108.795 138.26 109.765C138.05 110.245 137.72 110.705 137.27 111.045C136.83 111.395 136.3 111.555 135.8 111.655C135.61 111.615 135.48 111.535 135.39 111.435C135.32 111.355 135.28 111.265 135.27 111.165C135.27 111.125 135.27 111.095 135.27 111.055C135.28 110.955 135.32 110.855 135.39 110.765C135.44 110.685 135.51 110.615 135.59 110.555C136.36 110.425 136.94 110.005 137.23 109.305C137.53 108.615 137.58 107.755 137.53 106.905C137.57 106.805 137.63 106.715 137.69 106.645C137.77 106.565 137.86 106.505 137.95 106.475C137.99 106.465 138.02 106.455 138.06 106.455L138.07 106.465Z" fill="#F1EDAE"/>
<path d="M138.33 108.455C138.23 109.255 137.93 110.115 137.26 110.695C136.74 111.165 136.05 111.385 135.39 111.435C135.47 111.535 135.61 111.605 135.8 111.655C136.37 111.545 136.96 111.315 137.44 110.895C138.18 110.255 138.5 109.315 138.6 108.485C138.68 107.935 138.68 107.385 138.65 106.855C138.57 106.695 138.47 106.595 138.36 106.525C138.4 107.155 138.42 107.795 138.33 108.445V108.455Z" fill="#DED37E"/>
<path d="M137.96 106.485C138.03 107.505 138.04 108.565 137.65 109.495C137.45 109.955 137.13 110.355 136.71 110.615C136.29 110.875 135.79 111.005 135.29 111.055C135.3 110.955 135.34 110.855 135.41 110.765C136.32 110.685 137.08 110.195 137.41 109.385C137.76 108.575 137.77 107.605 137.71 106.645C137.79 106.565 137.88 106.505 137.97 106.475L137.96 106.485Z" fill="#F9F5C6"/>
<path d="M117.13 119.735C117.78 120.115 118.3 121.025 118.3 121.785C118.3 122.545 117.77 122.845 117.12 122.465C116.47 122.085 115.95 121.175 115.95 120.415C115.95 119.665 116.48 119.355 117.13 119.735Z" fill="#8B8A89"/>
<path d="M83.43 155.405C83.43 155.405 82.66 156.495 81.43 157.445C81.42 158.395 81.37 159.355 81.23 159.795C80.91 160.805 81.79 160.575 78.74 163.095C77.29 164.295 75.92 164.655 74.81 164.665C75.93 165.155 78.21 165.595 80.76 163.485C83.81 160.965 82.93 161.195 83.25 160.185C83.57 159.185 83.43 155.405 83.43 155.405Z" fill="#31313A"/>
<path d="M62.12 147.165C62.12 147.165 61.36 148.265 60.14 149.215C60.14 150.155 60.09 151.105 59.96 151.545C59.65 152.555 60.53 152.315 57.5 154.865C56.04 156.095 54.66 156.465 53.54 156.475C54.65 156.955 56.96 157.415 59.52 155.255C62.55 152.705 61.67 152.945 61.98 151.935C62.29 150.925 62.12 147.155 62.12 147.155V147.165Z" fill="#31313A"/>
<path d="M34.88 76.2153C33.26 77.9653 29.8 77.3953 27.15 74.9453C24.51 72.4953 25.3 67.3353 25.3 67.3353C25.3 67.3353 30.38 66.1553 33.03 68.6053C35.68 71.0553 36.5 74.4553 34.88 76.2153Z" fill="#383838"/>
<path d="M33.32 76.1751C32.41 77.1551 30.08 76.4851 28.12 74.6751C26.16 72.8651 26.23 69.6051 26.23 69.6051C26.23 69.6051 29.47 69.2951 31.43 71.1051C33.39 72.9151 34.24 75.1851 33.32 76.1751Z" fill="#CDA188"/>
<path d="M27.25 76.6054L27.73 76.5754V75.0154C27.73 74.7554 27.89 74.6354 28.08 74.7454L28.76 75.1354C28.95 75.2454 29.11 75.5454 29.11 75.8054V77.3654L29.59 77.9354C29.7 78.0654 29.77 78.2454 29.77 78.3854V80.2554C29.77 80.4754 29.61 80.5654 29.42 80.4554L27.42 79.2954C27.23 79.1854 27.07 78.9154 27.07 78.6954V76.8254C27.07 76.6754 27.14 76.5854 27.25 76.5754V76.6054Z" fill="#FFB800"/>
<path d="M62.7 84.6351C62.32 86.0951 61.9 87.5951 61.69 89.2451C60.9 95.2751 58.36 95.7151 51.86 101.515C45.35 107.315 44.13 103.055 37.24 108.355C35.64 109.595 34.91 110.195 34.12 110.325C33.02 110.515 31.77 109.825 27.82 108.735C21.01 106.855 22 98.7951 22.5 97.6251C23 96.4551 28.13 90.9051 28.82 88.1351C29.52 85.3851 31.8 75.5851 33.43 71.7751C35.07 67.9751 40.56 66.7951 45.86 64.7851C51.17 62.7551 60.33 71.8551 60.71 72.3351C64.52 77.2051 63.72 80.7451 62.7 84.6351Z" fill="#FFFBF0"/>
<path d="M57.97 98.1852C57.65 97.9552 57.34 97.6152 57.04 97.4852C56.09 97.0552 54.94 97.5852 53.95 97.2452C53.75 97.1752 53.56 97.0752 53.36 97.0552C52.77 96.9952 52.33 97.5452 51.93 97.9752C51.16 98.8152 50.12 99.4252 49.01 99.6852C47.84 99.9552 46.59 99.8652 45.49 100.325C43.88 101.005 42.95 102.695 41.54 103.735C40.61 104.425 39.42 104.895 38.89 105.925C39.85 105.715 40.67 105.065 41.64 104.845C42.29 104.695 42.97 104.765 43.63 104.755C44.39 104.745 45.15 104.625 45.91 104.505C46.83 104.365 47.78 104.235 48.65 103.895C49.35 103.625 49.93 103.015 50.43 104.005C50.63 104.395 50.66 104.855 50.75 105.285C50.93 106.095 51.33 106.835 51.74 107.565C52.68 109.265 53.64 110.975 54.97 112.395C56.3 113.815 58.06 114.915 60 115.055C59.92 114.265 59.94 113.475 60.05 112.685C60.11 112.265 60.2 111.815 60.49 111.505C60.99 110.965 61.91 111.025 62.54 111.405C63.17 111.785 63.61 112.415 64.1 112.975C65.31 114.345 66.9 115.375 68.66 115.895C68.93 115.975 69.22 116.045 69.49 115.975C69.71 115.915 69.9 115.765 70.07 115.615C70.75 115.005 71.32 114.175 71.32 113.255C71.32 112.295 70.72 111.425 70 110.795C69.28 110.155 68.44 109.665 67.73 109.015C66.05 107.455 65.36 105.135 64.73 102.935C64.51 102.165 64.29 101.365 64.38 100.565C64.57 98.9052 66.07 97.6052 66.18 95.9452C66.24 95.0152 65.85 94.0952 65.28 93.3552C64.71 92.6152 63.97 92.0252 63.24 91.4452C63.02 91.2752 62.78 91.0852 62.5 91.0652C61.9 91.0252 61.54 91.7052 61.34 92.2752L59.57 97.2952C59.45 97.6352 59.32 98.0052 59.03 98.2352C58.65 98.5452 58.29 98.4152 57.96 98.1752L57.97 98.1852Z" fill="#383838"/>
<path d="M41 69.365C40.59 69.725 40.19 70.105 39.73 70.395C39.23 70.705 38.66 70.885 38.13 71.165C34.67 72.995 34.4 77.975 31.61 80.725C30.77 76.295 32.26 71.475 35.47 68.305C35.77 68.015 36.09 67.725 36.47 67.565C36.91 67.385 37.41 67.375 37.89 67.355C39.61 67.275 41.32 66.965 42.96 66.415C44.3 65.965 45.59 65.365 46.97 65.055C48.05 64.815 49.82 64.715 48.23 65.625C47.13 66.255 45.62 66.435 44.45 67.035C43.21 67.675 42.05 68.455 41.01 69.375L41 69.365Z" fill="#383838"/>
<path d="M49.28 75.5253C48.7 74.9653 47.52 74.4253 46.78 74.0953C46.39 73.9253 45.96 73.9153 45.55 73.7953C45.15 73.6753 44.78 73.4453 44.37 73.3453C44.02 73.2653 43.65 73.2953 43.3 73.3453C42.85 73.4053 42.41 73.4853 41.97 73.5953C41.72 73.6553 41.45 73.7553 41.33 73.9753C41.21 74.2253 41.33 74.5253 41.28 74.8053C41.2 75.3353 40.64 75.6053 40.38 76.0353C40.15 76.4353 40.07 76.9353 39.83 77.3653C39.24 78.4153 38.54 79.4353 38.34 80.6453C38.14 81.8853 38.14 82.9453 37.47 84.1153C36.82 85.2453 35.83 86.1553 35.19 87.2953C34.55 88.4353 34.34 89.9953 35.23 90.9553C35.54 91.2953 35.96 91.5153 36.33 91.7753C37.16 92.3753 37.8 93.2453 38.12 94.2153C38.24 94.5953 38.33 94.9953 38.6 95.2953C38.76 95.4753 38.98 95.5953 39.2 95.6853C40.39 96.1953 41.79 96.0953 43 95.6153C44.21 95.1353 45.25 94.3053 46.17 93.3953C46.94 92.6353 47.66 91.7953 48.04 90.7853C48.19 90.3853 48.29 89.9553 48.52 89.5953C49.45 88.1153 51.9 88.4453 53.04 87.1153C53.5 86.5853 53.67 85.8553 53.68 85.1453C53.7 82.6053 51.84 80.5053 50.77 78.2053C50.33 77.2653 50 76.2353 49.26 75.5153L49.28 75.5253Z" fill="#383838"/>
<g style="mix-blend-mode:multiply">
<path d="M54.8 85.8854C55.67 86.2354 56.61 86.4054 57.55 86.4554C57.95 86.4754 58.41 86.5254 58.78 86.3754C59.29 86.1754 59.81 86.1954 60.33 85.9854C60.92 85.7554 61.44 85.3554 61.94 84.9754C62.28 84.7154 62.63 84.4354 62.82 84.0554C63.03 83.6154 63 83.0854 62.84 82.6254C62.48 81.5754 61.84 80.6954 60.8 80.2754C59.3 79.6654 57.64 79.5554 56.02 79.5454C55.34 79.5454 54.65 79.5654 54 79.7554C52.88 80.0954 51.08 81.5754 51.41 82.9354C51.55 83.5054 52.27 84.1454 52.68 84.5354C53.29 85.1154 54.02 85.5754 54.8 85.8854Z" fill="#E0DACE"/>
</g>
<g style="mix-blend-mode:multiply">
<path d="M61.92 85.905C61.85 86.135 62.17 86.865 62.21 87.145C62.27 87.615 62.27 88.095 62.22 88.565C62.12 89.545 61.77 90.375 61.33 91.245C60.98 91.925 60.91 92.655 60.51 93.325C59.99 94.195 59.34 95.045 58.61 95.755C56.5 97.825 54.04 99.545 51.84 101.515C45.33 107.315 44.11 103.055 37.22 108.355C36.6 108.835 36.11 109.215 35.69 109.515C35.03 109.995 34.1 109.525 34.1 108.705C34.1 107.925 34.1 107.025 34.1 106.445C34.1 106.065 34.32 105.725 34.66 105.555C36.66 104.575 38.66 103.585 40.65 102.585C42.12 101.845 43.59 101.115 45.04 100.345C46.93 99.355 49.02 98.855 50.82 97.675C51.81 97.025 52.71 96.205 53.34 95.195C53.69 94.635 53.77 93.935 54.12 93.425C54.17 93.355 54.22 93.295 54.28 93.245C56.31 91.265 59.27 90.235 60.95 87.835C61.37 87.245 61.69 86.585 61.9 85.895L61.92 85.905Z" fill="#E0DACE"/>
</g>
<path d="M46.02 85.5552C46.02 85.5552 46.59 86.1952 47 86.2452C47.41 86.2952 47.8 86.3052 47.8 86.3052C47.8 86.3052 47.07 86.8852 46.84 87.2952C46.61 87.7052 46.33 88.7952 44.87 88.9452C43.41 89.1052 42.47 88.1752 42.47 88.1752C42.47 88.1752 42.72 86.7052 43.25 86.1552C43.78 85.6052 46.02 85.5552 46.02 85.5552Z" fill="#2D211D"/>
<path d="M28.65 99.345C28.65 99.345 25.87 96.095 24.2 96.505C22.53 96.915 20.96 98.945 21.17 102.675C21.39 106.405 22.73 108.685 26.52 110.455C30.31 112.225 35.01 110.785 36.2 108.245C37.39 105.705 37.16 100.105 33.06 100.285C30.15 100.415 29.89 99.805 28.65 99.335V99.345Z" fill="#E0957C"/>
<path d="M33.1 105.105C32.72 105.625 32.01 105.775 31.37 105.815C29.96 105.895 28.54 105.635 27.18 105.255C26.74 105.135 26.3 105.005 25.89 104.795C24.69 104.175 23.91 102.985 23.19 101.845C22.93 101.425 22.67 101.005 22.48 100.545C22.3 100.115 22.2 99.6354 22.32 99.1854C22.44 98.7354 22.85 98.3354 23.31 98.3454C23.72 98.3454 24.08 98.6654 24.3 99.0154C24.52 99.3654 24.65 99.7654 24.87 100.115C25.39 100.965 26.35 101.465 27.31 101.705C28.28 101.945 29.29 101.965 30.27 102.105C31.16 102.225 32.1 102.445 32.84 102.995C33.43 103.435 33.51 104.505 33.08 105.105H33.1Z" fill="#FFAB91"/>
<path d="M51.07 81.725C51.43 84.085 54.61 85.555 58.17 85.015C61.73 84.475 63.98 79.765 63.98 79.765C63.98 79.765 60.44 75.935 56.88 76.475C53.32 77.015 50.72 79.365 51.07 81.725Z" fill="#383838"/>
<path d="M52.04 82.5549C52.25 83.9149 54.63 84.6849 57.36 84.2649C60.09 83.8549 61.93 81.0549 61.93 81.0549C61.93 81.0549 59.34 78.9249 56.61 79.3449C53.88 79.7549 51.83 81.1949 52.04 82.5549Z" fill="#CDA188"/>
<path d="M42.82 88.115C42.82 88.115 44.59 89.115 45.6 88.475C46.61 87.845 47.01 86.645 46.48 85.815C45.95 84.985 44.71 84.815 43.7 85.455C42.69 86.095 42.82 88.115 42.82 88.115Z" fill="#22222C"/>
<path d="M46.07 86.4053C46.1 86.8753 45.74 87.2753 45.27 87.2953C44.8 87.3153 44.4 86.9653 44.38 86.4953C44.36 86.0253 44.71 85.6253 45.18 85.6053C45.65 85.5853 46.05 85.9353 46.07 86.4053Z" fill="#4C4C54"/>
<path d="M37.47 59.5752C37.45 59.7152 37.21 59.9552 37.14 60.0752C36.86 60.5152 36.59 60.9652 36.34 61.4152C35.65 62.6752 35.03 64.0152 34.73 65.4252C34.5 66.4852 34.44 67.6752 35.01 68.6452C35.3 69.1352 35.69 69.5852 36.26 69.6152C36.95 69.6552 37.75 69.5552 38.39 69.2852C39.04 69.0152 39.58 68.5452 40.11 68.0852C40.27 67.9452 40.44 67.7952 40.55 67.6052C40.98 66.8852 40.01 66.7452 39.54 66.4352C39.02 66.0952 38.58 65.6452 38.25 65.1152C37.21 63.4952 37.21 61.3952 37.47 59.5552V59.5752Z" fill="#E2D1A8"/>
<path d="M37.21 60.1553C37.21 60.1553 35.54 62.7153 35.84 64.7353C36.14 66.7553 37.35 68.4953 38.21 68.5953C39.06 68.6953 40.14 67.5653 40.19 67.2953C40.24 67.0153 38.19 66.1653 37.61 64.8453C36.8 62.9853 37.21 60.1653 37.21 60.1653V60.1553Z" fill="#FFF6E1"/>
<path d="M57.47 69.4854C57.47 69.4854 57.31 74.8754 54.59 76.7454C52.87 77.9254 50.27 78.0754 49.03 76.1354C48.94 75.9854 48.85 75.8454 48.75 75.6954C48.66 75.5554 48.57 75.4054 48.51 75.2454C48.46 75.0854 48.45 74.9054 48.43 74.7354C48.42 74.5554 48.41 74.3754 48.45 74.2054C48.53 73.8754 48.79 73.6154 49.09 73.4654C49.7 73.1554 50.54 72.9554 51.22 72.9754C51.97 72.9954 52.72 73.1654 53.45 72.9554C55.15 72.4654 56.44 70.8254 57.45 69.4854H57.47Z" fill="#E2D1A8"/>
<path d="M57.12 70.8851C57.19 70.5651 57.26 70.2551 57.32 69.9351C57.3 70.0551 57.1 70.2351 57.03 70.3251C56.86 70.5551 56.69 70.7951 56.52 71.0251C55.99 71.7551 55.17 72.2551 54.47 72.8051C53.68 73.4251 52.47 73.4051 51.51 73.3751C51.07 73.3651 50.67 73.4351 50.24 73.4751C49.79 73.5151 49.01 73.6551 48.91 74.1951C48.84 74.5451 48.74 74.9051 49.15 75.0551C49.96 75.3451 50.84 75.3351 51.71 75.3251C52.02 75.3251 52.34 75.3251 52.65 75.2451C52.9 75.1851 53.14 75.0751 53.38 74.9651C54.02 74.6651 54.64 74.3151 55.24 73.9251C55.6 73.6851 55.92 73.4651 56.19 73.1151C56.7 72.4651 56.95 71.6651 57.13 70.8851H57.12Z" fill="#FFF6E1"/>
<path d="M128.06 99.9849V106.265C128.06 107.135 128.7 107.845 129.5 107.845C130.3 107.845 130.94 107.135 130.94 106.265V99.9849H128.07H128.06Z" fill="#FF866A"/>
<path d="M127.68 104.165V110.725C127.68 111.635 128.5 112.375 129.5 112.375C130.5 112.375 131.32 111.635 131.32 110.725V104.165H127.68Z" fill="#A5A4A3"/>
<path d="M130.96 105.145C130.15 104.675 128.84 104.675 128.04 105.145C127.23 105.605 127.24 106.365 128.04 106.835C128.85 107.305 130.16 107.305 130.96 106.835C131.76 106.375 131.76 105.615 130.96 105.145Z" fill="#04817C"/>
<path d="M127.43 104.165V105.985L131.57 105.925L131.56 104.125L127.43 104.165Z" fill="#04817C"/>
<path d="M130.96 103.275C130.15 102.805 128.84 102.805 128.04 103.275C127.23 103.735 127.24 104.495 128.04 104.965C128.85 105.435 130.16 105.435 130.96 104.965C131.76 104.505 131.76 103.745 130.96 103.275Z" fill="#43A4A3"/>
<path d="M130.51 103.095C129.95 102.775 129.04 102.765 128.48 103.095C127.92 103.415 127.92 103.945 128.48 104.265C129.04 104.585 129.95 104.595 130.51 104.265C131.07 103.945 131.07 103.415 130.51 103.095Z" fill="#FF866A"/>
<path d="M130.94 103.725V102.925L128.06 102.565V103.675L130.94 103.725Z" fill="#FF866A"/>
<path d="M123.03 97.5249V103.805C123.03 104.675 123.67 105.385 124.47 105.385C125.27 105.385 125.91 104.675 125.91 103.805V97.5249H123.04H123.03Z" fill="#FF866A"/>
<path d="M122.65 101.705V108.265C122.65 109.175 123.47 109.915 124.47 109.915C125.47 109.915 126.29 109.175 126.29 108.265V101.705H122.65Z" fill="#A5A4A3"/>
<path d="M125.93 102.685C125.12 102.215 123.81 102.215 123.01 102.685C122.21 103.155 122.21 103.905 123.01 104.375C123.82 104.845 125.13 104.845 125.93 104.375C126.73 103.915 126.73 103.155 125.93 102.685Z" fill="#04817C"/>
<path d="M122.4 101.705V103.525L126.54 103.465V101.665L122.4 101.705Z" fill="#04817C"/>
<path d="M125.93 100.825C125.12 100.355 123.81 100.355 123.01 100.825C122.2 101.285 122.21 102.045 123.01 102.515C123.82 102.985 125.13 102.985 125.93 102.515C126.73 102.055 126.73 101.295 125.93 100.825Z" fill="#43A4A3"/>
<path d="M125.48 100.635C124.92 100.315 124.01 100.305 123.45 100.635C122.89 100.955 122.89 101.485 123.45 101.805C124.01 102.125 124.92 102.135 125.48 101.805C126.04 101.485 126.04 100.955 125.48 100.635Z" fill="#FF866A"/>
<path d="M125.91 101.265V100.465L123.03 100.115V101.215L125.91 101.265Z" fill="#FF866A"/>
<path d="M132.79 98.5249V104.805C132.79 105.675 133.43 106.385 134.23 106.385C135.03 106.385 135.67 105.675 135.67 104.805V98.5249H132.8H132.79Z" fill="#FF866A"/>
<path d="M132.4 102.705V109.265C132.4 110.175 133.22 110.915 134.22 110.915C135.22 110.915 136.04 110.175 136.04 109.265V102.705H132.4Z" fill="#A5A4A3"/>
<path d="M135.68 103.675C134.87 103.205 133.56 103.205 132.76 103.675C131.96 104.135 131.96 104.895 132.76 105.365C133.57 105.835 134.88 105.835 135.68 105.365C136.48 104.905 136.48 104.145 135.68 103.675Z" fill="#04817C"/>
<path d="M132.15 102.705V104.525L136.29 104.455V102.655L132.15 102.705Z" fill="#04817C"/>
<path d="M135.68 101.815C134.87 101.345 133.56 101.345 132.76 101.815C131.96 102.275 131.96 103.035 132.76 103.505C133.56 103.975 134.88 103.975 135.68 103.505C136.48 103.035 136.48 102.285 135.68 101.815Z" fill="#43A4A3"/>
<path d="M135.24 101.625C134.68 101.305 133.77 101.295 133.21 101.625C132.65 101.945 132.65 102.475 133.21 102.795C133.77 103.115 134.68 103.125 135.24 102.795C135.8 102.475 135.8 101.945 135.24 101.625Z" fill="#FF866A"/>
<path d="M135.66 102.265V101.465L132.79 101.105V102.215L135.66 102.265Z" fill="#FF866A"/>
<path d="M136.67 95.0752V101.355C136.67 102.225 137.24 102.935 137.94 102.935C138.64 102.935 139.21 102.225 139.21 101.355V95.0752H136.68H136.67Z" fill="#FF866A"/>
<path d="M136.33 99.2451V105.805C136.33 106.715 137.05 107.455 137.94 107.455C138.83 107.455 139.55 106.715 139.55 105.805V99.2451H136.34H136.33Z" fill="#A5A4A3"/>
<path d="M139.22 100.225C138.51 99.7551 137.35 99.7551 136.64 100.225C135.93 100.695 135.93 101.445 136.64 101.915C137.35 102.385 138.51 102.385 139.22 101.915C139.93 101.455 139.93 100.695 139.22 100.225Z" fill="#04817C"/>
<path d="M136.11 99.2451V101.065L139.76 101.005V99.2051L136.11 99.2451Z" fill="#04817C"/>
<path d="M139.22 98.3652C138.51 97.8952 137.35 97.8952 136.64 98.3652C135.93 98.8252 135.93 99.5852 136.64 100.055C137.35 100.525 138.51 100.525 139.22 100.055C139.93 99.5852 139.93 98.8352 139.22 98.3652Z" fill="#43A4A3"/>
<path d="M138.83 98.1754C138.33 97.8554 137.53 97.8454 137.04 98.1754C136.55 98.4954 136.55 99.0254 137.04 99.3454C137.54 99.6654 138.34 99.6754 138.83 99.3454C139.32 99.0254 139.32 98.4954 138.83 98.1754Z" fill="#FF866A"/>
<path d="M139.2 98.8053V98.0053L136.67 97.6553V98.7553L139.2 98.8053Z" fill="#FF866A"/>
<path d="M175.6 71.7849C175.6 71.7849 175.41 71.8449 175.09 71.8149C174.77 71.7749 174.27 71.7449 173.68 71.8949C173 72.0449 172.29 72.6349 171.91 73.7149C171.54 74.8049 171.42 76.1749 171.56 77.8949V137.275V140.995C171.58 142.275 171.41 143.645 170.73 144.865C170.09 146.105 168.78 146.975 167.48 147.255C166.16 147.575 164.84 147.505 163.58 147.315C161.05 146.915 158.67 146.035 156.39 144.995C154.13 143.875 151.99 142.705 149.78 141.545C141.04 136.875 132.37 132.075 123.95 126.825C121.15 124.915 118.98 123.775 117.72 122.795C117.18 122.345 116.78 121.955 116.74 121.485C116.74 121.255 116.89 121.145 116.98 121.115C117.08 121.075 117.14 121.085 117.15 121.115C117.17 121.135 117.08 121.175 117.02 121.315C116.95 121.495 117.18 121.745 117.63 122.065C118.05 122.375 118.7 122.695 119.48 123.095C120.78 123.765 122.54 124.645 124.55 125.895C132.93 131.125 141.59 135.915 150.31 140.575C152.49 141.725 154.7 142.925 156.87 143.995C159.08 145.005 161.39 145.855 163.76 146.225C164.94 146.405 166.14 146.445 167.23 146.185C168.33 145.935 169.27 145.295 169.78 144.325C170.32 143.375 170.49 142.185 170.47 141.015V137.305V77.9049C170.38 75.5649 170.77 73.3649 171.96 72.1449C172.16 71.9849 172.33 71.8249 172.52 71.7049C172.72 71.6149 172.92 71.5249 173.11 71.4349C173.51 71.3749 173.86 71.2749 174.16 71.3349C174.77 71.3549 175.15 71.5449 175.37 71.6349C175.55 71.7149 175.64 71.7749 175.63 71.8049L175.6 71.7849Z" fill="#F1EDAE"/>
<path d="M171.28 111.535V140.495C171.28 141.565 171.27 142.705 170.91 143.775C170.57 144.845 169.85 145.835 168.86 146.425C167.86 146.995 166.72 147.185 165.62 147.205C163.41 147.205 161.28 146.615 159.25 145.895C158.23 145.525 157.23 145.105 156.26 144.645C155.27 144.165 154.35 143.655 153.39 143.165C147.33 139.985 141.31 136.715 135.36 133.325C132.39 131.625 129.43 129.895 126.51 128.115L122.15 125.415C120.69 124.535 119.17 123.765 117.7 122.815C118.96 123.795 121.13 124.935 123.93 126.845C133.48 132.785 143.33 138.175 153.26 143.415C154.22 143.915 155.13 144.415 156.14 144.905C157.13 145.375 158.13 145.795 159.16 146.165C161.21 146.895 163.36 147.495 165.63 147.485C166.76 147.465 167.94 147.275 169 146.665C170.05 146.045 170.82 144.985 171.17 143.865C171.55 142.755 171.55 141.575 171.56 140.505V111.545V77.8948C171.42 76.1748 171.54 74.8048 171.92 73.7148C172.3 72.6348 173.01 72.0548 173.7 71.9048C172.94 72.0248 172.33 72.5748 171.97 73.2848C171.6 73.9948 171.42 74.8148 171.34 75.6448C171.29 76.0548 171.28 76.4748 171.28 76.8948C171.28 77.1048 171.28 77.3148 171.3 77.5148C171.32 77.7648 171.3 77.9548 171.3 78.1748V111.545L171.28 111.535Z" fill="#DED37E"/>
<path d="M175.34 71.6149C174.64 71.4149 173.88 71.3849 173.17 71.6049C172.46 71.8749 171.93 72.4549 171.6 73.0949C170.93 74.4149 170.84 75.8949 170.87 77.3249C170.91 80.1649 170.88 83.0349 170.89 85.8849V137.285C170.89 138.705 170.91 140.145 170.87 141.565C170.83 142.965 170.47 144.415 169.49 145.425C168.51 146.445 167.03 146.785 165.64 146.805C164.23 146.815 162.82 146.555 161.45 146.175C158.7 145.435 156.12 144.195 153.62 142.825L146.06 138.795C141.04 136.075 136.05 133.295 131.13 130.405C128.67 128.955 126.23 127.485 123.81 125.965C122.61 125.185 121.37 124.475 120.12 123.775C119.5 123.425 118.88 123.075 118.27 122.695C117.97 122.505 117.68 122.315 117.42 122.075C117.19 121.855 116.87 121.555 116.99 121.295C116.92 121.475 117.15 121.725 117.6 122.045C118.02 122.355 118.67 122.675 119.45 123.075C120.62 123.745 121.82 124.405 122.99 125.115L126.45 127.265C128.76 128.685 131.1 130.065 133.44 131.425C138.14 134.145 142.88 136.775 147.66 139.345L154.85 143.165C157.21 144.455 159.72 145.485 162.31 146.115C163.6 146.415 164.93 146.595 166.23 146.505C167.51 146.395 168.78 145.945 169.53 144.945C170.33 143.985 170.56 142.635 170.59 141.345C170.61 140.015 170.59 138.635 170.6 137.285V77.7149L170.58 77.2149C170.57 76.8649 170.58 76.5149 170.59 76.1649C170.68 74.7849 170.91 73.3049 171.91 72.1249C172.11 71.9649 172.28 71.8049 172.47 71.6849C172.67 71.5949 172.87 71.5049 173.06 71.4149C173.46 71.3549 173.81 71.2549 174.11 71.3149C174.72 71.3349 175.1 71.5249 175.32 71.6149H175.34Z" fill="#F9F5C6"/>
<path d="M198.1 48.465C197.22 48.685 196.3 49.065 195.35 49.615L77.99 117.385C76.6 118.185 75.27 119.275 74.06 120.545C74.04 120.555 74.02 120.585 74 120.605C70.32 124.515 67.73 130.205 67.73 135.065V174.315C67.73 180.805 72.33 183.435 77.99 180.165L195.35 112.405C200.24 109.585 204.34 103.265 205.36 97.4149C205.52 96.4949 205.6 95.595 205.6 94.715V55.465C205.6 50.075 202.42 47.345 198.1 48.465ZM77.99 120.585L195.35 52.825C199.46 50.445 202.82 52.355 202.82 57.085V96.335C202.82 101.065 199.47 106.835 195.35 109.215L77.99 176.975C73.87 179.355 70.52 177.445 70.52 172.715V133.455C70.52 128.735 73.87 122.955 77.99 120.585Z" fill="#B8B8B8"/>
<path d="M195.35 109.215L195.09 109.375V109.755H197.43V107.685C196.77 108.285 196.07 108.805 195.35 109.225V109.215ZM185.52 114.895V115.235H187.85V113.545L185.52 114.895ZM175.95 120.415V120.725H178.28V119.065L175.95 120.415ZM166.38 125.935V126.215H168.71V124.585L166.38 125.935ZM156.8 131.465V131.695H159.14V130.105L156.8 131.465ZM147.23 136.985V137.185H149.57V135.625L147.23 136.975V136.985ZM147.82 136.645V136.815H150.16V135.295L147.82 136.645ZM77.98 176.965C77.67 177.145 77.36 177.305 77.06 177.435V177.635H79.4V176.145L77.98 176.965Z" fill="#B8B8B8"/>
<path d="M198.1 48.465C197.55 48.665 196.98 48.935 196.4 49.265L78.85 117.205C77.78 117.825 76.74 118.635 75.78 119.575C75.76 119.595 75.74 119.615 75.72 119.635C72.07 123.215 69.45 128.735 69.45 133.415V173.085C69.45 179.035 73.67 181.435 78.85 178.445L196.41 110.505C200.6 108.085 204.15 102.885 205.37 97.835C205.53 96.915 205.61 96.0149 205.61 95.1349V55.465C205.61 50.075 202.43 47.345 198.11 48.465H198.1ZM204.72 94.9149C204.72 100.185 200.99 106.625 196.4 109.275L78.84 177.215C74.25 179.865 70.52 177.735 70.52 172.475V132.805C70.52 127.535 74.25 121.095 78.84 118.445L196.41 50.505C201 47.855 204.73 49.985 204.73 55.245V94.9149H204.72Z" fill="#EBEBEB"/>
<path d="M204.73 76.925C204.73 76.355 204.33 75.665 203.84 75.385C203.62 75.255 203.42 75.235 203.27 75.295C203.27 75.295 203.19 75.335 203.15 75.365L70.53 151.945V154.855L204.47 77.505C204.63 77.415 204.72 77.215 204.72 76.935L204.73 76.925Z" fill="#B8B8B8"/>
<path d="M207.67 140.015L240.15 121.265V117.595L207.67 136.345V140.015Z" fill="#A8C3D9"/>
<path d="M207.67 140.015L183.42 126.015V122.345L207.67 136.345V140.015Z" fill="#647582"/>
<path d="M192.61 136.845V122.285H192.52C192.47 122.215 192.39 122.145 192.28 122.085C191.85 121.835 191.15 121.835 190.72 122.085C190.61 122.145 190.53 122.215 190.48 122.295H190.4V136.855C190.4 137.015 190.51 137.185 190.73 137.305C191.16 137.555 191.86 137.555 192.29 137.305C192.51 137.185 192.61 137.015 192.61 136.855V136.845Z" fill="url(#paint1_linear_1_148)"/>
<path d="M240.15 117.595L207.66 136.345L183.42 122.345L198.62 113.575L204.15 110.375L215.9 103.595L240.15 117.595Z" fill="#C4D1DB"/>
<path d="M207.26 58.0654L235.37 41.8354V118.645L207.26 134.875V58.0654Z" fill="#C9C7C6"/>
<path d="M207.26 134.875L186.99 123.175V46.3652L207.26 58.0652V134.875Z" fill="#7A7A7A"/>
<path d="M207.26 58.0653L186.99 46.3653L215.11 30.1353L235.37 41.8353L207.26 58.0653Z" fill="#BCBDBD"/>
<g style="mix-blend-mode:screen">
<path d="M207.26 134.875L207.99 58.7854L234.9 42.8055L235.37 118.645V41.8354L206.77 57.7755L207.26 134.875Z" fill="#796D6D"/>
</g>
<path d="M212.48 116.995L230.15 106.795V52.7754L212.48 62.9754V116.995Z" fill="#BFBABA"/>
<path d="M212.29 117.335V62.8653L230.35 52.4453V106.905L212.29 117.325V117.335ZM212.67 63.0953V116.675L229.96 106.695V53.1053L212.67 63.0853V63.0953Z" fill="#797979"/>
<path d="M226.52 89.0653L228.58 87.8753V84.8853L226.52 86.0753V89.0653Z" fill="#555555"/>
<path d="M226.87 88.1154L228 87.4654V85.8354L226.87 86.4854V88.1154Z" fill="#8DE555"/>
<path d="M226.52 93.2054L228.58 92.0154V89.0254L226.52 90.2154V93.2054Z" fill="#555555"/>
<path d="M226.87 92.2556L228 91.6056V89.9756L226.87 90.6256V92.2556Z" fill="#547F00"/>
<path d="M226.52 97.3751L228.58 96.1851V93.2051L226.52 94.3951V97.3751Z" fill="#555555"/>
<path d="M226.87 96.435L228 95.785V94.145L226.87 94.795V96.435Z" fill="#E74A33"/>
<path d="M213.81 91.5455L228.58 83.0255V57.8555L213.81 66.3855V91.5455Z" fill="#3B3B3B"/>
<path d="M214.75 88.9956L227.65 81.5556V61.2656L214.75 68.7156V88.9956Z" fill="#423D3F"/>
<path d="M215.01 69.1353V88.4353L219.5 85.8353L220.14 66.1753L215.01 69.1353Z" fill="#544F51"/>
<path d="M193.82 54.7251L190.4 52.7451V128.495L193.82 130.465V54.7251Z" fill="#616161"/>
<path d="M193.82 54.7251L190.4 52.7451L193.82 50.7651L197.25 52.7451L193.82 54.7251Z" fill="#BCBDBD"/>
<path d="M193.82 54.7251L197.25 52.7451V128.495L193.82 130.465V54.7251Z" fill="#BFBABA"/>
<path d="M190.69 144.645V130.085H190.6C190.55 130.015 190.47 129.945 190.36 129.885C189.93 129.635 189.23 129.635 188.8 129.885C188.69 129.945 188.61 130.015 188.56 130.095H188.48V144.655C188.48 144.815 188.59 144.985 188.81 145.105C189.24 145.355 189.94 145.355 190.37 145.105C190.59 144.985 190.69 144.815 190.69 144.655V144.645Z" fill="url(#paint2_linear_1_148)"/>
<path d="M179.49 138.675V124.115H179.4C179.35 124.045 179.27 123.975 179.16 123.915C178.73 123.665 178.03 123.665 177.6 123.915C177.49 123.975 177.41 124.045 177.36 124.125H177.28V138.685C177.28 138.845 177.39 139.015 177.61 139.135C178.04 139.385 178.74 139.385 179.17 139.135C179.39 139.015 179.49 138.845 179.49 138.685V138.675Z" fill="url(#paint3_linear_1_148)"/>
<path d="M178.05 143.565V129.005H177.96C177.91 128.935 177.83 128.865 177.72 128.805C177.29 128.555 176.59 128.555 176.16 128.805C176.05 128.865 175.97 128.935 175.92 129.015H175.84V143.575C175.84 143.735 175.95 143.905 176.17 144.025C176.6 144.275 177.3 144.275 177.73 144.025C177.95 143.905 178.05 143.735 178.05 143.575V143.565Z" fill="url(#paint4_linear_1_148)"/>
<path d="M193.82 130.005V67.2654H192.8C192.28 66.6454 191.58 66.0554 190.67 65.5354C186.48 63.1154 179.72 63.1054 175.55 65.5054C174.54 66.0854 173.78 66.7654 173.26 67.4754H172.44V130.025C172.39 131.645 173.44 133.275 175.59 134.515C179.78 136.935 186.55 136.945 190.71 134.545C192.87 133.295 193.9 131.645 193.81 130.005H193.82Z" fill="url(#paint5_linear_1_148)"/>
<path d="M190.67 63.0852C186.48 60.6652 179.72 60.6552 175.55 63.0552C171.39 65.4552 171.41 69.3652 175.6 71.7852C179.79 74.2052 186.55 74.2152 190.72 71.8152C194.88 69.4152 194.86 65.5052 190.67 63.0852Z" fill="#BEBDBC"/>
<path d="M188.92 63.1552C185.7 61.2952 180.51 61.2852 177.31 63.1352C174.11 64.9852 174.13 67.9852 177.35 69.8352C180.57 71.6952 185.76 71.7052 188.96 69.8552C192.16 68.0052 192.14 65.0052 188.92 63.1552Z" fill="#D7D7D7"/>
<path d="M3.43 85.2149L0 83.2349V158.985L3.43 160.965V85.2149Z" fill="#7A7A7A"/>
<path d="M3.43 85.2149L0 83.2349L3.43 81.2549L6.85 83.2349L3.43 85.2149Z" fill="#BCBDBD"/>
<path d="M3.43 85.2149L6.85 83.2349V158.985L3.43 160.965V85.2149Z" fill="#C9C7C6"/>
<path d="M66.42 121.585L63 119.605V195.355L66.42 197.335V121.585Z" fill="#7A7A7A"/>
<path d="M66.42 121.585L63 119.605L66.42 117.635L69.85 119.605L66.42 121.585Z" fill="#BCBDBD"/>
<path d="M66.42 121.585L69.85 119.605V195.355L66.42 197.335V121.585Z" fill="#C9C7C6"/>
<g style="mix-blend-mode:multiply">
<path d="M164.28 202.035L164.3 202.015C164.3 202.015 156.1 194.155 143.12 188.465C130.14 182.775 121.49 183.685 117.84 185.735C114.2 187.785 102.7 196.435 108.16 204.975C113.62 213.515 141.38 221.175 141.38 221.175L141.51 221.065C148.9 222.695 157.55 221.805 163.48 218.385C171.23 213.915 171.47 206.745 164.27 202.035H164.28Z" fill="#B0B0B0"/>
</g>
<path d="M167.87 207.765V206.005L166.05 206.025C165.13 204.895 163.86 203.845 162.25 202.915C154.77 198.595 142.69 198.575 135.26 202.865C133.46 203.905 132.09 205.105 131.17 206.385H129.71V207.815C129.63 210.705 131.5 213.625 135.34 215.835C142.82 220.155 154.9 220.175 162.33 215.885C166.19 213.655 168.03 210.705 167.87 207.775V207.765Z" fill="url(#paint6_linear_1_148)"/>
<path d="M168.39 204.095V198.275L166.52 198.295C165.57 197.135 164.27 196.055 162.62 195.095C154.94 190.665 142.54 190.645 134.91 195.045C133.06 196.115 131.66 197.345 130.71 198.665L129.21 198.685V204.145C129.12 207.115 131.05 210.105 134.99 212.375C142.67 216.805 155.07 216.825 162.7 212.425C166.66 210.135 168.56 207.105 168.38 204.095H168.39Z" fill="url(#paint7_linear_1_148)"/>
<path d="M168.402 198.697C168.436 192.451 159.688 187.34 148.863 187.281C138.039 187.223 129.236 192.239 129.202 198.485C129.169 204.731 137.916 209.842 148.741 209.901C159.566 209.96 168.368 204.943 168.402 198.697Z" fill="#BEBDBC"/>
<path d="M167.87 197.935V188.065L166.05 188.085C165.13 186.955 163.86 185.905 162.25 184.975C154.77 180.655 142.69 180.635 135.26 184.925C133.46 185.965 132.09 187.165 131.17 188.445L129.71 188.465V197.985C129.63 200.875 131.5 203.795 135.34 206.005C142.82 210.325 154.9 210.345 162.33 206.055C166.19 203.825 168.03 200.875 167.87 197.945V197.935Z" fill="url(#paint8_linear_1_148)"/>
<path d="M168.39 187.095V181.275L166.52 181.295C165.57 180.135 164.27 179.055 162.62 178.095C154.94 173.665 142.54 173.645 134.91 178.045C133.06 179.115 131.66 180.345 130.71 181.665L129.21 181.685V187.145C129.12 190.115 131.05 193.105 134.99 195.375C142.67 199.805 155.07 199.825 162.7 195.425C166.66 193.135 168.56 190.105 168.38 187.095H168.39Z" fill="url(#paint9_linear_1_148)"/>
<path d="M168.402 181.705C168.436 175.459 159.688 170.348 148.864 170.289C138.039 170.231 129.237 175.247 129.203 181.493C129.169 187.739 137.917 192.85 148.741 192.909C159.566 192.967 168.368 187.951 168.402 181.705Z" fill="#BEBDBC"/>
<path d="M167.87 180.935V171.065L166.05 171.085C165.13 169.955 163.86 168.905 162.25 167.975C154.77 163.655 142.69 163.635 135.26 167.925C133.46 168.965 132.09 170.165 131.17 171.445L129.71 171.465V180.985C129.63 183.875 131.5 186.795 135.34 189.005C142.82 193.325 154.9 193.345 162.33 189.055C166.19 186.825 168.03 183.875 167.87 180.945V180.935Z" fill="url(#paint10_linear_1_148)"/>
<path d="M166.33 166.215L166.28 166.165C166.16 165.995 166.01 165.815 165.86 165.645L165.81 165.615C165.24 164.895 164.46 164.215 163.59 163.595L163.52 163.545L157.08 157.805H155.31L144.76 157.825H141.44L135.3 162.685H135.28C133.83 163.505 132.69 164.455 131.81 165.425C129.52 168.015 129.12 171.035 130.64 173.785C131.51 175.435 133.08 176.975 135.35 178.275C139.84 180.865 145.95 181.895 151.74 181.395C155.63 181.075 159.37 180.045 162.34 178.325C162.44 178.275 162.51 178.225 162.61 178.155C168.05 174.885 169.27 170.175 166.33 166.205V166.215Z" fill="#C8C8C8"/>
<path d="M166.28 166.165C166.21 166.095 166.01 165.945 165.73 165.745C164.96 165.095 163.51 163.895 161.81 162.575H161.79C159.67 160.875 157.2 159.035 155.3 157.815H157.07L163.51 163.555L163.58 163.605C164.45 164.225 165.23 164.905 165.8 165.625L165.85 165.655C166 165.825 166.15 166.005 166.27 166.175L166.28 166.165Z" fill="#B2B2B2"/>
<path d="M141.44 157.835H144.76C143.81 158.155 143.01 158.535 142.61 158.905C142.04 159.425 140.69 160.575 139.17 161.945C137.32 163.595 135.18 165.535 133.76 167.055C133.41 167.425 133.11 167.775 132.86 168.105C131.91 169.305 131.16 171.595 130.64 173.795C129.12 171.055 129.52 168.035 131.81 165.435C132.68 164.465 133.83 163.515 135.28 162.695H135.3L141.44 157.835Z" fill="#AFAEAE"/>
<path d="M162.61 178.165C162.51 178.235 162.44 178.285 162.34 178.335C159.37 180.055 155.63 181.075 151.74 181.405C151.99 172.645 149.92 161.975 149.92 161.975C149.92 161.975 150.17 161.805 150.64 161.625C151.31 161.375 152.46 161.155 154.11 161.505L154.31 161.705C158.38 165.845 161.54 174.855 162.62 178.165H162.61Z" fill="#D5D5D5"/>
<path d="M134.37 164.825L133.51 159.485L133.56 159.345C133.84 158.465 134.41 157.685 135.16 157.155L142.23 152.185L143.02 152.895L143.16 153.635L144.78 158.125L143.61 158.545L141.96 153.905L135.88 158.175C135.39 158.525 135.01 159.015 134.8 159.585L135.61 164.635L135 164.945L134.38 164.825H134.37Z" fill="#D9D9D9"/>
<path d="M157.07 157.815V153.655H156.32C155.94 153.205 155.42 152.765 154.76 152.385C151.69 150.615 146.74 150.605 143.69 152.365C142.95 152.795 142.39 153.285 142.01 153.805H141.41V157.825C141.38 159.015 142.15 160.205 143.72 161.115C146.79 162.885 151.74 162.895 154.79 161.135C156.37 160.225 157.13 159.005 157.06 157.805L157.07 157.815Z" fill="url(#paint11_linear_1_148)"/>
<path d="M154.77 150.595C151.7 148.825 146.75 148.815 143.7 150.575C140.65 152.335 140.67 155.195 143.73 156.965C146.8 158.735 151.75 158.745 154.8 156.985C157.85 155.225 157.83 152.365 154.77 150.595Z" fill="#BEBDBC"/>
<path d="M156.41 174.115L155.72 174.245L155.23 173.745L156.68 169.135C156.96 168.255 157.52 167.475 158.28 166.945L165.35 161.975L166.14 162.685L166.3 163.535L165.63 167.645L164.92 167.955L164.4 167.445L165 163.745L158.99 167.975C158.46 168.355 158.06 168.895 157.86 169.515L156.41 174.125V174.115Z" fill="#D9D9D9"/>
<path d="M121.44 46.0948C122.26 45.5848 122.61 44.5848 123.22 43.8348C124.6 42.1548 127.08 41.9848 128.99 40.9548C131.1 39.8148 132.48 37.6448 134.52 36.3748C136.5 35.1348 139.33 34.4448 139.84 32.1648C140.13 30.8848 139.47 29.5248 138.46 28.6748C137.46 27.8248 136.16 27.4048 134.88 27.1148C128.29 25.6348 121.06 27.3548 115.84 31.6348C115.51 31.9048 115.17 32.2048 114.98 32.5848C114.73 33.0648 114.73 33.6248 114.74 34.1648C114.76 37.0048 115.25 40.5148 112.88 42.6248C112.5 42.9548 112.08 43.2548 111.78 43.6648C111.48 44.0748 111.32 44.6248 111.54 45.0848C111.63 45.2848 111.79 45.4448 111.95 45.5948C113.17 46.7148 114.86 47.2848 116.51 47.2148C117.71 47.1648 120.46 46.7048 121.45 46.0848L121.44 46.0948Z" fill="#383838"/>
<defs>
<linearGradient id="paint0_linear_1_148" x1="125.43" y1="114.385" x2="127.14" y2="117.345" gradientUnits="userSpaceOnUse">
<stop offset="0.02" stop-color="#BEB6B4"/>
<stop offset="0.08" stop-color="#BCBABA"/>
<stop offset="0.17" stop-color="#C0BEBE"/>
<stop offset="0.27" stop-color="#CCCBCB"/>
<stop offset="0.28" stop-color="#D3D2D2"/>
<stop offset="0.29" stop-color="#E3E3E3"/>
<stop offset="0.3" stop-color="#E6E6E6"/>
<stop offset="0.35" stop-color="#EDEDED"/>
<stop offset="0.48" stop-color="#EFEFEF"/>
<stop offset="0.49" stop-color="#DDDDDD"/>
<stop offset="0.5" stop-color="#C4C4C4"/>
<stop offset="0.78" stop-color="#C2C1C1"/>
<stop offset="0.86" stop-color="#C1BFBE"/>
<stop offset="0.88" stop-color="#BBB7B5"/>
<stop offset="0.89" stop-color="#AAA8A7"/>
<stop offset="0.91" stop-color="#9E9D9D"/>
<stop offset="0.93" stop-color="#979797"/>
<stop offset="1" stop-color="#969696"/>
</linearGradient>
<linearGradient id="paint1_linear_1_148" x1="190.4" y1="129.685" x2="192.61" y2="129.685" gradientUnits="userSpaceOnUse">
<stop stop-color="#808080"/>
<stop offset="0.12" stop-color="#848484"/>
<stop offset="0.21" stop-color="#8D8D8D"/>
<stop offset="0.22" stop-color="#ACACAC"/>
<stop offset="0.62" stop-color="#B3B3B3"/>
<stop offset="0.63" stop-color="#CBCBCB"/>
<stop offset="0.66" stop-color="#D1D1D1"/>
<stop offset="0.76" stop-color="#E2E2E2"/>
<stop offset="0.84" stop-color="#E8E8E8"/>
<stop offset="0.98" stop-color="#E6E6E6"/>
<stop offset="0.99" stop-color="#CDCDCD"/>
</linearGradient>
<linearGradient id="paint2_linear_1_148" x1="188.48" y1="137.485" x2="190.69" y2="137.485" gradientUnits="userSpaceOnUse">
<stop stop-color="#808080"/>
<stop offset="0.12" stop-color="#848484"/>
<stop offset="0.21" stop-color="#8D8D8D"/>
<stop offset="0.22" stop-color="#ACACAC"/>
<stop offset="0.62" stop-color="#B3B3B3"/>
<stop offset="0.63" stop-color="#CBCBCB"/>
<stop offset="0.66" stop-color="#D1D1D1"/>
<stop offset="0.76" stop-color="#E2E2E2"/>
<stop offset="0.84" stop-color="#E8E8E8"/>
<stop offset="0.98" stop-color="#E6E6E6"/>
<stop offset="0.99" stop-color="#CDCDCD"/>
</linearGradient>
<linearGradient id="paint3_linear_1_148" x1="177.28" y1="131.525" x2="179.49" y2="131.525" gradientUnits="userSpaceOnUse">
<stop stop-color="#808080"/>
<stop offset="0.12" stop-color="#848484"/>
<stop offset="0.21" stop-color="#8D8D8D"/>
<stop offset="0.22" stop-color="#ACACAC"/>
<stop offset="0.62" stop-color="#B3B3B3"/>
<stop offset="0.63" stop-color="#CBCBCB"/>
<stop offset="0.66" stop-color="#D1D1D1"/>
<stop offset="0.76" stop-color="#E2E2E2"/>
<stop offset="0.84" stop-color="#E8E8E8"/>
<stop offset="0.98" stop-color="#E6E6E6"/>
<stop offset="0.99" stop-color="#CDCDCD"/>
</linearGradient>
<linearGradient id="paint4_linear_1_148" x1="175.84" y1="136.405" x2="178.05" y2="136.405" gradientUnits="userSpaceOnUse">
<stop stop-color="#808080"/>
<stop offset="0.12" stop-color="#848484"/>
<stop offset="0.21" stop-color="#8D8D8D"/>
<stop offset="0.22" stop-color="#ACACAC"/>
<stop offset="0.62" stop-color="#B3B3B3"/>
<stop offset="0.63" stop-color="#CBCBCB"/>
<stop offset="0.66" stop-color="#D1D1D1"/>
<stop offset="0.76" stop-color="#E2E2E2"/>
<stop offset="0.84" stop-color="#E8E8E8"/>
<stop offset="0.98" stop-color="#E6E6E6"/>
<stop offset="0.99" stop-color="#CDCDCD"/>
</linearGradient>
<linearGradient id="paint5_linear_1_148" x1="172.45" y1="100.025" x2="193.82" y2="100.025" gradientUnits="userSpaceOnUse">
<stop stop-color="#656362"/>
<stop offset="0.03" stop-color="#787676"/>
<stop offset="0.07" stop-color="#939292"/>
<stop offset="0.12" stop-color="#A9A8A8"/>
<stop offset="0.17" stop-color="#B8B8B7"/>
<stop offset="0.23" stop-color="#C1C1C1"/>
<stop offset="0.31" stop-color="#C4C4C4"/>
<stop offset="0.44" stop-color="#CDCDCD"/>
<stop offset="0.66" stop-color="#E8E8E8"/>
<stop offset="0.7" stop-color="#EFEFEF"/>
<stop offset="0.88" stop-color="#E3E3E3"/>
<stop offset="0.89" stop-color="#E3E3E3"/>
</linearGradient>
<linearGradient id="paint6_linear_1_148" x1="129.72" y1="209.375" x2="167.88" y2="209.375" gradientUnits="userSpaceOnUse">
<stop stop-color="#656362"/>
<stop offset="0.03" stop-color="#787676"/>
<stop offset="0.07" stop-color="#939292"/>
<stop offset="0.12" stop-color="#A9A8A8"/>
<stop offset="0.17" stop-color="#B8B8B7"/>
<stop offset="0.23" stop-color="#C1C1C1"/>
<stop offset="0.31" stop-color="#C4C4C4"/>
<stop offset="0.44" stop-color="#CDCDCD"/>
<stop offset="0.66" stop-color="#E8E8E8"/>
<stop offset="0.7" stop-color="#EFEFEF"/>
<stop offset="0.88" stop-color="#E3E3E3"/>
<stop offset="0.89" stop-color="#E3E3E3"/>
</linearGradient>
<linearGradient id="paint7_linear_1_148" x1="129.21" y1="203.735" x2="168.4" y2="203.735" gradientUnits="userSpaceOnUse">
<stop stop-color="#656362"/>
<stop offset="0.03" stop-color="#787676"/>
<stop offset="0.07" stop-color="#939292"/>
<stop offset="0.12" stop-color="#A9A8A8"/>
<stop offset="0.17" stop-color="#B8B8B7"/>
<stop offset="0.23" stop-color="#C1C1C1"/>
<stop offset="0.31" stop-color="#C4C4C4"/>
<stop offset="0.44" stop-color="#CDCDCD"/>
<stop offset="0.66" stop-color="#E8E8E8"/>
<stop offset="0.7" stop-color="#EFEFEF"/>
<stop offset="0.88" stop-color="#E3E3E3"/>
<stop offset="0.89" stop-color="#E3E3E3"/>
</linearGradient>
<linearGradient id="paint8_linear_1_148" x1="129.72" y1="195.485" x2="167.88" y2="195.485" gradientUnits="userSpaceOnUse">
<stop stop-color="#656362"/>
<stop offset="0.03" stop-color="#787676"/>
<stop offset="0.07" stop-color="#939292"/>
<stop offset="0.12" stop-color="#A9A8A8"/>
<stop offset="0.17" stop-color="#B8B8B7"/>
<stop offset="0.23" stop-color="#C1C1C1"/>
<stop offset="0.31" stop-color="#C4C4C4"/>
<stop offset="0.44" stop-color="#CDCDCD"/>
<stop offset="0.66" stop-color="#E8E8E8"/>
<stop offset="0.7" stop-color="#EFEFEF"/>
<stop offset="0.88" stop-color="#E3E3E3"/>
<stop offset="0.89" stop-color="#E3E3E3"/>
</linearGradient>
<linearGradient id="paint9_linear_1_148" x1="129.21" y1="186.735" x2="168.4" y2="186.735" gradientUnits="userSpaceOnUse">
<stop stop-color="#656362"/>
<stop offset="0.03" stop-color="#787676"/>
<stop offset="0.07" stop-color="#939292"/>
<stop offset="0.12" stop-color="#A9A8A8"/>
<stop offset="0.17" stop-color="#B8B8B7"/>
<stop offset="0.23" stop-color="#C1C1C1"/>
<stop offset="0.31" stop-color="#C4C4C4"/>
<stop offset="0.44" stop-color="#CDCDCD"/>
<stop offset="0.66" stop-color="#E8E8E8"/>
<stop offset="0.7" stop-color="#EFEFEF"/>
<stop offset="0.88" stop-color="#E3E3E3"/>
<stop offset="0.89" stop-color="#E3E3E3"/>
</linearGradient>
<linearGradient id="paint10_linear_1_148" x1="129.72" y1="178.495" x2="167.88" y2="178.495" gradientUnits="userSpaceOnUse">
<stop stop-color="#656362"/>
<stop offset="0.03" stop-color="#787676"/>
<stop offset="0.07" stop-color="#939292"/>
<stop offset="0.12" stop-color="#A9A8A8"/>
<stop offset="0.17" stop-color="#B8B8B7"/>
<stop offset="0.23" stop-color="#C1C1C1"/>
<stop offset="0.31" stop-color="#C4C4C4"/>
<stop offset="0.44" stop-color="#CDCDCD"/>
<stop offset="0.66" stop-color="#E8E8E8"/>
<stop offset="0.7" stop-color="#EFEFEF"/>
<stop offset="0.88" stop-color="#E3E3E3"/>
<stop offset="0.89" stop-color="#E3E3E3"/>
</linearGradient>
<linearGradient id="paint11_linear_1_148" x1="141.42" y1="156.755" x2="157.08" y2="156.755" gradientUnits="userSpaceOnUse">
<stop stop-color="#656362"/>
<stop offset="0.03" stop-color="#787676"/>
<stop offset="0.07" stop-color="#939292"/>
<stop offset="0.12" stop-color="#A9A8A8"/>
<stop offset="0.17" stop-color="#B8B8B7"/>
<stop offset="0.23" stop-color="#C1C1C1"/>
<stop offset="0.31" stop-color="#C4C4C4"/>
<stop offset="0.44" stop-color="#CDCDCD"/>
<stop offset="0.66" stop-color="#E8E8E8"/>
<stop offset="0.7" stop-color="#EFEFEF"/>
<stop offset="0.88" stop-color="#E3E3E3"/>
<stop offset="0.89" stop-color="#E3E3E3"/>
</linearGradient>
</defs>
</svg>
