<svg width="44" height="43" viewBox="0 0 44 43" fill="none" xmlns="http://www.w3.org/2000/svg">
<g clip-path="url(#clip0_14_2652)">
<path d="M33.5317 39.5502C32.3421 41.6789 30.0945 43 27.659 43H7.01045C3.30398 43 0.29248 39.9885 0.29248 36.282V6.71797C0.29248 3.0115 3.30398 0 7.01045 0H27.6652C31.3717 0 34.3832 3.0115 34.3832 6.71797V17.7184C34.3832 18.645 33.6319 19.3963 32.7053 19.3963C31.7786 19.3963 31.0273 18.645 31.0273 17.7184V6.71797C31.0273 4.86473 29.5185 3.35585 27.6652 3.35585H7.01045C5.15722 3.35585 3.64833 4.86473 3.64833 6.71797V36.282C3.64833 38.1353 5.15722 39.6441 7.01045 39.6441H27.6652C28.8798 39.6441 30.0068 38.9805 30.6016 37.9161C31.0524 37.1085 32.0792 36.8142 32.8868 37.265C33.6945 37.7158 33.9888 38.7426 33.538 39.5502H33.5317ZM16.646 22.7584C16.1138 21.9946 15.231 21.5 14.2355 21.5C12.614 21.5 11.2992 22.8148 11.2992 24.4364C11.2992 26.0579 12.614 27.3727 14.2355 27.3727C15.2373 27.3727 16.1138 26.8719 16.646 26.1143H37.9394C38.4716 26.8781 39.3544 27.3727 40.3498 27.3727C41.9714 27.3727 43.2862 26.0579 43.2862 24.4364C43.2862 22.8148 41.9714 21.5 40.3498 21.5C39.3481 21.5 38.4716 22.0009 37.9394 22.7584H16.646ZM40.3561 34.8545C40.1495 34.8545 39.9429 34.8796 39.7425 34.9172L35.6542 30.8851C35.3411 30.5721 34.9154 30.403 34.4771 30.403H24.516C23.9901 29.5954 23.0822 29.0569 22.0492 29.0569C20.4276 29.0569 19.1128 30.3717 19.1128 31.9933C19.1128 33.6149 20.4276 34.9297 22.0492 34.9297C23.0134 34.9297 23.8648 34.4664 24.4033 33.7526H33.7947L37.451 37.3589C37.4323 37.4967 37.4197 37.6407 37.4197 37.7847C37.4197 39.4062 38.7345 40.721 40.3561 40.721C41.9777 40.721 43.2925 39.4062 43.2925 37.7847C43.2925 36.1631 41.9777 34.8483 40.3561 34.8483V34.8545ZM8.68211 11.4199H25.981C26.9077 11.4199 27.659 10.6686 27.659 9.74199C27.659 8.81538 26.9077 8.06406 25.981 8.06406H8.68211C7.7555 8.06406 7.00419 8.81538 7.00419 9.74199C7.00419 10.6686 7.7555 11.4199 8.68211 11.4199ZM8.68211 18.1379H19.1879C20.1146 18.1379 20.8659 17.3866 20.8659 16.46C20.8659 15.5333 20.1146 14.782 19.1879 14.782H8.68211C7.7555 14.782 7.00419 15.5333 7.00419 16.46C7.00419 17.3866 7.7555 18.1379 8.68211 18.1379Z" fill="#003565"/>
</g>
<defs>
<clipPath id="clip0_14_2652">
<rect width="43" height="43" fill="white" transform="translate(0.29248)"/>
</clipPath>
</defs>
</svg>
