<svg width="29" height="26" viewBox="0 0 29 26" fill="none" xmlns="http://www.w3.org/2000/svg">
<path d="M14.5 26C14.0871 26 13.6891 25.8493 13.3789 25.5755C12.2074 24.5432 11.0779 23.5731 10.0814 22.7173L10.0763 22.7129C7.15464 20.2039 4.6317 18.0371 2.87628 15.9027C0.913994 13.5166 0 11.2542 0 8.78268C0 6.38138 0.817085 4.16604 2.30058 2.54444C3.80178 0.903663 5.86164 0 8.10138 0C9.77538 0 11.3084 0.533324 12.6579 1.58503C13.3389 2.11591 13.9562 2.76562 14.5 3.52346C15.0441 2.76562 15.6611 2.11591 16.3424 1.58503C17.6918 0.533324 19.2248 0 20.8988 0C23.1384 0 25.1984 0.903663 26.6996 2.54444C28.1831 4.16604 29 6.38138 29 8.78268C29 11.2542 28.0862 13.5166 26.1239 15.9025C24.3685 18.0371 21.8458 20.2037 18.9246 22.7124C17.9263 23.5695 16.7951 24.5412 15.6209 25.5759C15.3109 25.8493 14.9126 26 14.5 26ZM8.10138 1.7119C6.34176 1.7119 4.72529 2.41958 3.54933 3.70473C2.3559 5.00928 1.69855 6.81259 1.69855 8.78268C1.69855 10.8614 2.46519 12.7204 4.1841 14.8104C5.84549 16.8307 8.31666 18.9529 11.1779 21.4101L11.1832 21.4146C12.1835 22.2736 13.3174 23.2475 14.4976 24.2874C15.6848 23.2455 16.8205 22.2701 17.8228 21.4097C20.6838 18.9524 23.1547 16.8307 24.8161 14.8104C26.5348 12.7204 27.3014 10.8614 27.3014 8.78268C27.3014 6.81259 26.6441 5.00928 25.4507 3.70473C24.2749 2.41958 22.6582 1.7119 20.8988 1.7119C19.6098 1.7119 18.4263 2.12482 17.3814 2.93908C16.4501 3.66504 15.8014 4.58275 15.4211 5.22488C15.2255 5.55509 14.8812 5.75219 14.5 5.75219C14.1188 5.75219 13.7745 5.55509 13.5789 5.22488C13.1988 4.58275 12.5501 3.66504 11.6186 2.93908C10.5737 2.12482 9.39017 1.7119 8.10138 1.7119Z" fill="url(#paint0_linear_1231_707)"/>
<defs>
<linearGradient id="paint0_linear_1231_707" x1="26.8164" y1="31.9091" x2="26.8164" y2="-5.90908" gradientUnits="userSpaceOnUse">
<stop stop-color="#FEDBB8"/>
<stop offset="1" stop-color="#0F3EA4"/>
</linearGradient>
</defs>
</svg>
