<svg width="23" height="25" viewBox="0 0 23 25" fill="none" xmlns="http://www.w3.org/2000/svg">
<path d="M5.98869 9.12953C6.59715 9.12953 7.09098 8.6262 7.09098 8.00604V6.88255C7.09098 6.26238 6.59715 5.75906 5.98869 5.75906C5.38022 5.75906 4.8864 6.26238 4.8864 6.88255V8.00604C4.8864 8.6262 5.37967 9.12953 5.98869 9.12953Z" fill="url(#paint0_linear_1231_710)"/>
<path d="M17.0116 9.12953C17.6201 9.12953 18.1139 8.6262 18.1139 8.00604V6.88255C18.1139 6.26238 17.6201 5.75906 17.0116 5.75906C16.4032 5.75906 15.9093 6.26238 15.9093 6.88255V8.00604C15.9093 8.6262 16.4026 9.12953 17.0116 9.12953Z" fill="url(#paint1_linear_1231_710)"/>
<path d="M4.8864 24.8584H18.1139C18.7224 24.8584 19.2162 24.3551 19.2162 23.7349C19.2162 23.1147 18.7224 22.6114 18.1139 22.6114H4.8864C4.27793 22.6114 3.7841 23.1147 3.7841 23.7349C3.7841 24.3551 4.27738 24.8584 4.8864 24.8584Z" fill="url(#paint2_linear_1231_710)"/>
<path d="M2.68181 9.12953H20.3185C20.927 9.12953 21.4208 8.6262 21.4208 8.00604C21.4208 7.38587 20.927 6.88255 20.3185 6.88255H2.68181C2.07334 6.88255 1.57952 7.38587 1.57952 8.00604C1.57952 8.6262 2.07279 9.12953 2.68181 9.12953Z" fill="url(#paint3_linear_1231_710)"/>
<path d="M4.8864 24.8584C5.49486 24.8584 5.98869 24.3551 5.98869 23.7349C5.98869 23.1147 5.49486 22.6114 4.8864 22.6114C4.28124 22.6114 3.69151 22.3407 3.26878 21.8688C2.84605 21.3964 2.63551 20.7734 2.69118 20.1588C2.74685 19.5404 2.30097 18.9938 1.69416 18.937C1.08734 18.8747 0.551077 19.3348 0.495411 19.9527C0.383529 21.1953 0.800746 22.4457 1.64014 23.3827C2.47954 24.3208 3.6623 24.8584 4.8864 24.8584Z" fill="url(#paint4_linear_1231_710)"/>
<path d="M20.3091 20.1605C20.3653 20.7723 20.1554 21.3936 19.7337 21.866C19.3099 22.3401 18.7196 22.6114 18.1139 22.6114C17.5054 22.6114 17.0116 23.1147 17.0116 23.7349C17.0116 24.3551 17.5054 24.8584 18.1139 24.8584C19.3391 24.8584 20.5235 24.3191 21.3635 23.3788C22.2018 22.4401 22.6179 21.1908 22.5038 19.9504C22.447 19.3325 21.903 18.8781 21.3039 18.9365C20.6977 18.9949 20.2524 19.5426 20.3091 20.1605Z" fill="url(#paint5_linear_1231_710)"/>
<path d="M5.98869 8.00604C6.59715 8.00604 7.09098 7.50271 7.09098 6.88255C7.09098 4.48839 9.15117 2.38858 11.5002 2.38858C13.8491 2.38858 15.9093 4.48839 15.9093 6.88255C15.9093 7.50271 16.4032 8.00604 17.0116 8.00604C17.6201 8.00604 18.1139 7.50271 18.1139 6.88255C18.1139 3.22839 15.0854 0.141602 11.5002 0.141602C7.91495 0.141602 4.8864 3.22839 4.8864 6.88255C4.8864 7.50271 5.37967 8.00604 5.98869 8.00604Z" fill="url(#paint6_linear_1231_710)"/>
<path d="M1.49244 21.1739C1.52661 21.1773 1.56078 21.179 1.59495 21.179C2.15767 21.179 2.63882 20.7414 2.69118 20.1588L3.77969 8.1094C3.83536 7.49092 3.38948 6.94434 2.78267 6.8876C2.18082 6.83143 1.64014 7.28532 1.58393 7.90324L0.495411 19.9527C0.439746 20.5706 0.886175 21.1177 1.49244 21.1739Z" fill="url(#paint7_linear_1231_710)"/>
<path d="M21.4054 21.179C21.4395 21.179 21.4737 21.1773 21.5079 21.1739C22.1141 21.1172 22.5606 20.5706 22.5049 19.9521L21.4164 7.90268C21.3602 7.28476 20.8184 6.82693 20.2176 6.88704C19.6114 6.94378 19.1649 7.49036 19.2206 8.10884L20.3091 20.1583C20.3615 20.7414 20.8421 21.179 21.4054 21.179Z" fill="url(#paint8_linear_1231_710)"/>
<defs>
<linearGradient id="paint0_linear_1231_710" x1="20.8625" y1="30.4759" x2="20.8625" y2="-5.47584" gradientUnits="userSpaceOnUse">
<stop stop-color="#FEDBB8"/>
<stop offset="1" stop-color="#0F3EA4"/>
</linearGradient>
<linearGradient id="paint1_linear_1231_710" x1="20.8625" y1="30.4759" x2="20.8625" y2="-5.47584" gradientUnits="userSpaceOnUse">
<stop stop-color="#FEDBB8"/>
<stop offset="1" stop-color="#0F3EA4"/>
</linearGradient>
<linearGradient id="paint2_linear_1231_710" x1="20.8625" y1="30.4759" x2="20.8625" y2="-5.47584" gradientUnits="userSpaceOnUse">
<stop stop-color="#FEDBB8"/>
<stop offset="1" stop-color="#0F3EA4"/>
</linearGradient>
<linearGradient id="paint3_linear_1231_710" x1="20.8625" y1="30.4759" x2="20.8625" y2="-5.47584" gradientUnits="userSpaceOnUse">
<stop stop-color="#FEDBB8"/>
<stop offset="1" stop-color="#0F3EA4"/>
</linearGradient>
<linearGradient id="paint4_linear_1231_710" x1="20.8625" y1="30.4759" x2="20.8625" y2="-5.47584" gradientUnits="userSpaceOnUse">
<stop stop-color="#FEDBB8"/>
<stop offset="1" stop-color="#0F3EA4"/>
</linearGradient>
<linearGradient id="paint5_linear_1231_710" x1="20.8625" y1="30.4759" x2="20.8625" y2="-5.47584" gradientUnits="userSpaceOnUse">
<stop stop-color="#FEDBB8"/>
<stop offset="1" stop-color="#0F3EA4"/>
</linearGradient>
<linearGradient id="paint6_linear_1231_710" x1="20.8625" y1="30.4759" x2="20.8625" y2="-5.47584" gradientUnits="userSpaceOnUse">
<stop stop-color="#FEDBB8"/>
<stop offset="1" stop-color="#0F3EA4"/>
</linearGradient>
<linearGradient id="paint7_linear_1231_710" x1="20.8625" y1="30.4759" x2="20.8625" y2="-5.47584" gradientUnits="userSpaceOnUse">
<stop stop-color="#FEDBB8"/>
<stop offset="1" stop-color="#0F3EA4"/>
</linearGradient>
<linearGradient id="paint8_linear_1231_710" x1="20.8625" y1="30.4759" x2="20.8625" y2="-5.47584" gradientUnits="userSpaceOnUse">
<stop stop-color="#FEDBB8"/>
<stop offset="1" stop-color="#0F3EA4"/>
</linearGradient>
</defs>
</svg>
