<svg width="27" height="27" viewBox="0 0 27 27" fill="none" xmlns="http://www.w3.org/2000/svg">
<path d="M11.8339 25.2938C12.326 25.3575 12.8269 25.3902 13.3232 25.3902C19.2879 25.3902 24.5155 20.7975 25.2235 14.9351C25.2806 14.4597 25.3098 13.9772 25.3098 13.5C25.3098 7.31689 20.2982 1.98818 14.1377 1.62227C13.9116 1.60858 13.6855 1.60204 13.4606 1.60204C7.40542 1.60204 2.18441 6.2828 1.57455 12.2589C0.936124 18.5205 5.63414 24.4894 11.8339 25.2938ZM3.94259 12.5004C4.42156 7.803 8.69119 3.98199 13.4606 3.98199C13.6385 3.98199 13.8176 3.98734 13.9961 3.99746C18.9226 4.29079 22.9298 8.55387 22.9298 13.5C22.9298 13.8826 22.9066 14.2693 22.8608 14.6507C22.2944 19.3386 18.1057 23.0109 13.3238 23.0109C12.9293 23.0109 12.5312 22.9847 12.1403 22.9341C7.18528 22.2903 3.4315 17.5126 3.94259 12.5004Z" fill="url(#paint0_linear_1231_704)"/>
<path d="M7.03058 17.7131C7.5625 18.0998 8.30683 17.9797 8.69238 17.4483C9.70445 16.0507 11.4745 15.2695 13.4541 15.3022C15.3652 15.354 17.0472 16.2227 17.9522 17.6256C18.1795 17.9785 18.5626 18.1707 18.9535 18.1707C19.1743 18.1707 19.398 18.1088 19.5973 17.9808C20.1495 17.6245 20.3083 16.8879 19.9525 16.3357C18.6209 14.2717 16.216 12.996 13.5189 12.9235C10.7546 12.8425 8.2384 14.0188 6.76521 16.0519C6.37966 16.5838 6.49866 17.3281 7.03058 17.7131Z" fill="url(#paint1_linear_1231_704)"/>
<path d="M1.51029 14.69H3.29525C3.95212 14.69 4.48522 14.1569 4.48522 13.5C4.48522 12.8431 3.95212 12.31 3.29525 12.31H1.51029C0.853421 12.31 0.320312 12.8431 0.320312 13.5C0.320312 14.1569 0.853421 14.69 1.51029 14.69Z" fill="url(#paint2_linear_1231_704)"/>
<path d="M13.41 4.57519C14.0669 4.57519 14.6 4.04208 14.6 3.38522V1.60025C14.6 0.943387 14.0669 0.410278 13.41 0.410278C12.7532 0.410278 12.2201 0.943387 12.2201 1.60025V3.38522C12.2201 4.04208 12.7532 4.57519 13.41 4.57519Z" fill="url(#paint3_linear_1231_704)"/>
<path d="M23.5248 14.69H25.3098C25.9666 14.69 26.4998 14.1569 26.4998 13.5C26.4998 12.8431 25.9666 12.31 25.3098 12.31H23.5248C22.868 12.31 22.3348 12.8431 22.3348 13.5C22.3348 14.1569 22.868 14.69 23.5248 14.69Z" fill="url(#paint4_linear_1231_704)"/>
<path d="M13.41 22.4248C12.7532 22.4248 12.2201 22.9579 12.2201 23.6148V25.3997C12.2201 26.0566 12.7532 26.5897 13.41 26.5897C14.0669 26.5897 14.6 26.0566 14.6 25.3997V23.6148C14.6 22.9579 14.0669 22.4248 13.41 22.4248Z" fill="url(#paint5_linear_1231_704)"/>
<path d="M13.2565 21.1789C13.3131 21.1801 13.3684 21.1807 13.4249 21.1807C16.1196 21.1807 18.5537 19.8551 19.9608 17.6131C20.3101 17.0562 20.1423 16.3214 19.5854 15.9722C19.0291 15.6241 18.2943 15.7913 17.945 16.3476C16.9568 17.9219 15.2152 18.8222 13.3053 18.7996C11.3841 18.7603 9.68601 17.7726 8.76199 16.159C8.43654 15.589 7.71065 15.3915 7.13827 15.7169C6.56827 16.0436 6.36955 16.7706 6.6962 17.3406C8.03849 19.6873 10.491 21.123 13.2565 21.1789Z" fill="url(#paint6_linear_1231_704)"/>
<path d="M13.41 15.2939C15.9899 15.2939 18.1699 13.1144 18.1699 10.534C18.1699 7.95353 15.9899 5.77409 13.41 5.77409C10.8302 5.77409 8.65014 7.95353 8.65014 10.534C8.65014 13.1144 10.8302 15.2939 13.41 15.2939ZM13.41 8.15404C14.678 8.15404 15.79 9.26607 15.79 10.534C15.79 11.8019 14.678 12.9139 13.41 12.9139C12.1421 12.9139 11.0301 11.8019 11.0301 10.534C11.0301 9.26607 12.1421 8.15404 13.41 8.15404Z" fill="url(#paint7_linear_1231_704)"/>
<defs>
<linearGradient id="paint0_linear_1231_704" x1="24.5286" y1="32.5396" x2="24.5286" y2="-5.53958" gradientUnits="userSpaceOnUse">
<stop stop-color="#FEDBB8"/>
<stop offset="1" stop-color="#0F3EA4"/>
</linearGradient>
<linearGradient id="paint1_linear_1231_704" x1="24.5286" y1="32.5396" x2="24.5286" y2="-5.53958" gradientUnits="userSpaceOnUse">
<stop stop-color="#FEDBB8"/>
<stop offset="1" stop-color="#0F3EA4"/>
</linearGradient>
<linearGradient id="paint2_linear_1231_704" x1="24.5286" y1="32.5396" x2="24.5286" y2="-5.53958" gradientUnits="userSpaceOnUse">
<stop stop-color="#FEDBB8"/>
<stop offset="1" stop-color="#0F3EA4"/>
</linearGradient>
<linearGradient id="paint3_linear_1231_704" x1="24.5286" y1="32.5396" x2="24.5286" y2="-5.53958" gradientUnits="userSpaceOnUse">
<stop stop-color="#FEDBB8"/>
<stop offset="1" stop-color="#0F3EA4"/>
</linearGradient>
<linearGradient id="paint4_linear_1231_704" x1="24.5286" y1="32.5396" x2="24.5286" y2="-5.53958" gradientUnits="userSpaceOnUse">
<stop stop-color="#FEDBB8"/>
<stop offset="1" stop-color="#0F3EA4"/>
</linearGradient>
<linearGradient id="paint5_linear_1231_704" x1="24.5286" y1="32.5396" x2="24.5286" y2="-5.53958" gradientUnits="userSpaceOnUse">
<stop stop-color="#FEDBB8"/>
<stop offset="1" stop-color="#0F3EA4"/>
</linearGradient>
<linearGradient id="paint6_linear_1231_704" x1="24.5286" y1="32.5396" x2="24.5286" y2="-5.53958" gradientUnits="userSpaceOnUse">
<stop stop-color="#FEDBB8"/>
<stop offset="1" stop-color="#0F3EA4"/>
</linearGradient>
<linearGradient id="paint7_linear_1231_704" x1="24.5286" y1="32.5396" x2="24.5286" y2="-5.53958" gradientUnits="userSpaceOnUse">
<stop stop-color="#FEDBB8"/>
<stop offset="1" stop-color="#0F3EA4"/>
</linearGradient>
</defs>
</svg>
