<svg width="28" height="27" viewBox="0 0 28 27" fill="none" xmlns="http://www.w3.org/2000/svg">
<path d="M25.6733 26.5439C25.9177 26.7822 26.2371 26.901 26.5571 26.901C26.8771 26.901 27.1965 26.7822 27.4408 26.5439C27.929 26.068 27.929 25.2965 27.4408 24.8206L18.4452 16.0499C17.9571 15.574 17.1658 15.574 16.6777 16.0499C16.1896 16.5258 16.1896 17.2973 16.6777 17.7732L25.6733 26.5439Z" fill="url(#paint0_linear_1231_700)"/>
<path d="M11.0133 20.8C11.6321 20.8 12.2515 20.7451 12.8558 20.6379C17.8165 19.7561 21.5565 15.3753 21.5565 10.4479C21.5565 4.83798 16.6421 0.098877 10.824 0.098877C10.079 0.098877 9.3321 0.179924 8.60397 0.338361C5.67085 0.978814 3.13772 2.88494 1.65522 5.56863C0.168347 8.25902 -0.0716528 11.379 0.997722 14.1285C2.5496 18.1181 6.5746 20.7993 11.0133 20.8ZM3.85647 6.724C4.99522 4.6631 6.9246 3.20242 9.15022 2.71736C9.6996 2.59731 10.2627 2.53638 10.8246 2.53638C15.2871 2.53638 19.0571 6.15911 19.0571 10.4479C19.0571 14.2163 16.199 17.566 12.4083 18.2394C11.9515 18.321 11.4827 18.3618 11.0146 18.3618C7.66147 18.3612 4.50335 16.2656 3.33647 13.2638C2.52397 11.1761 2.71335 8.79222 3.85647 6.724Z" fill="url(#paint1_linear_1231_700)"/>
<defs>
<linearGradient id="paint0_linear_1231_700" x1="25.7387" y1="32.9924" x2="25.7387" y2="-5.99251" gradientUnits="userSpaceOnUse">
<stop stop-color="#FEDBB8"/>
<stop offset="1" stop-color="#0F3EA4"/>
</linearGradient>
<linearGradient id="paint1_linear_1231_700" x1="25.7387" y1="32.9924" x2="25.7387" y2="-5.99251" gradientUnits="userSpaceOnUse">
<stop stop-color="#FEDBB8"/>
<stop offset="1" stop-color="#0F3EA4"/>
</linearGradient>
</defs>
</svg>
