<svg width="56" height="56" viewBox="0 0 56 56" fill="none" xmlns="http://www.w3.org/2000/svg">
<path d="M38.2361 23.081C38.2361 23.081 38.2119 23.0264 38.1997 22.9961C38.1816 22.9476 38.1634 22.9052 38.1452 22.8567C38.127 22.8264 38.1028 22.7961 38.0786 22.7719C38.0543 22.7355 38.024 22.6991 37.9998 22.6688C37.9695 22.6446 37.9453 22.6203 37.915 22.6021C37.8847 22.5779 37.8544 22.5476 37.8241 22.5294L28.4938 16.9288C28.1969 16.753 27.8273 16.753 27.5305 16.9288L18.2002 22.5294C18.1638 22.5536 18.1335 22.5779 18.1032 22.6021C18.0729 22.6264 18.0426 22.6446 18.0184 22.6688C17.9881 22.6991 17.9639 22.7355 17.9397 22.7719C17.9154 22.8022 17.8912 22.8264 17.873 22.8567C17.8488 22.8991 17.8306 22.9416 17.8185 22.9901C17.8064 23.0204 17.7942 23.0507 17.7821 23.081C17.7579 23.1598 17.7518 23.2386 17.7518 23.3234V32.6578C17.7518 32.9851 17.9215 33.2881 18.2062 33.4579L27.5365 39.0585H27.5487L27.5608 39.0706C27.6092 39.0948 27.6638 39.1191 27.7122 39.1312C27.7365 39.1373 27.7546 39.1494 27.7789 39.1554C27.9364 39.1979 28.106 39.1979 28.2636 39.1554C28.2878 39.1494 28.306 39.1373 28.3302 39.1312C28.3847 39.113 28.4332 39.0948 28.4817 39.0706H28.4938L28.5059 39.0585L37.8362 33.4579C38.1149 33.2881 38.2906 32.9851 38.2906 32.6578V23.3234C38.2906 23.2386 38.2785 23.1598 38.2603 23.081H38.2361ZM28.0031 18.8078L30.8567 20.5231L23.3379 25.0388L20.4843 23.3234L28.0031 18.8078ZM27.07 36.6097L19.6058 32.1304V24.9721L27.07 29.4514V36.6097ZM28.0031 27.833L25.1494 26.1177L32.6682 21.602L35.5218 23.3174L28.0031 27.833ZM36.4003 32.1304L28.9361 36.6097V29.4514L36.4003 24.9721V32.1304Z" fill="#003565"/>
<path d="M28.7483 0.351249C28.409 -0.0609168 27.7971 -0.121529 27.3851 0.217901C27.3366 0.26033 27.2942 0.302759 27.2518 0.351249L24.4527 4.08499L25.9431 5.20632L27.064 3.71525V11.1827H28.93V3.71525L30.0509 5.20632L31.5413 4.08499L28.7483 0.351249Z" fill="#003565"/>
<path d="M30.0509 50.7749L28.93 52.266V44.7985H27.064V52.266L25.9431 50.7749L24.4527 51.8962L27.2518 55.63C27.5608 56.0421 28.1485 56.127 28.5604 55.8179C28.6331 55.7633 28.6937 55.7027 28.7483 55.63L31.5474 51.8962L30.0569 50.7749H30.0509Z" fill="#003565"/>
<path d="M28.93 13.0496H27.064V14.9165H28.93V13.0496Z" fill="#003565"/>
<path d="M28.93 41.0647H27.064V42.9316H28.93V41.0647Z" fill="#003565"/>
<path d="M11.2024 27.0572H3.73214L5.22257 25.9358L4.10172 24.4448L0.375656 27.2451C-0.0363319 27.5542 -0.121153 28.1421 0.187838 28.5543C0.242366 28.627 0.302952 28.6876 0.375656 28.7422L4.10778 31.5425L5.22863 30.0514L3.7382 28.9301H11.2024V27.0572Z" fill="#003565"/>
<path d="M55.8122 27.433C55.7577 27.3602 55.6971 27.2996 55.6244 27.2451L51.8923 24.4448L50.7714 25.9358L52.2618 27.0572H44.7976V28.924H52.2618L50.7714 30.0454L51.8923 31.5364L55.6244 28.7361C56.0364 28.427 56.1212 27.8391 55.8122 27.4269V27.433Z" fill="#003565"/>
<path d="M14.9346 27.0572H13.0685V28.924H14.9346V27.0572Z" fill="#003565"/>
<path d="M42.9315 27.0572H41.0655V28.924H42.9315V27.0572Z" fill="#003565"/>
<path d="M16.7825 15.4438L11.5054 10.1644L13.3533 10.4251L13.6198 8.57638L9.00316 7.90964C8.49423 7.83691 8.0156 8.18846 7.9429 8.69761C7.93078 8.78853 7.93078 8.87945 7.9429 8.97036L8.60329 13.589L10.4512 13.3223L10.1907 11.4737L15.4677 16.753L16.7885 15.4317L16.7825 15.4438Z" fill="#003565"/>
<path d="M48.0632 47.0048L47.4028 42.3861L45.5549 42.6528L45.8154 44.5015L40.5384 39.2221L39.2176 40.5435L44.4947 45.8228L42.6468 45.5561L42.3802 47.4048L46.9969 48.0655C47.0393 48.0716 47.0878 48.0776 47.1302 48.0776C47.6452 48.0776 48.0632 47.6594 48.0632 47.1442C48.0632 47.1018 48.0632 47.0533 48.0511 47.0108L48.0632 47.0048Z" fill="#003565"/>
<path d="M18.098 16.7718L16.7785 18.0918L18.098 19.4119L19.4175 18.0918L18.098 16.7718Z" fill="#003565"/>
<path d="M37.8955 36.5739L36.576 37.894L37.8955 39.214L39.215 37.894L37.8955 36.5739Z" fill="#003565"/>
<path d="M11.4993 45.8168L16.7764 40.5374L15.4617 39.2161L10.1846 44.4954L10.4451 42.6467L8.59723 42.38L7.93078 46.9987C7.85807 47.5079 8.20948 47.9806 8.72446 48.0534C8.76687 48.0594 8.81534 48.0655 8.85775 48.0655C8.90016 48.0655 8.94863 48.0655 8.99104 48.0534L13.6077 47.3927L13.3411 45.544L11.4933 45.8046L11.4993 45.8168Z" fill="#003565"/>
<path d="M47.7966 8.1824C47.5906 7.97026 47.2938 7.87328 47.0029 7.9157L42.3863 8.57638L42.6528 10.4251L44.5007 10.1644L39.2236 15.4438L40.5444 16.7651L45.8215 11.4858L45.561 13.3345L47.4089 13.6012L48.0693 8.98249C48.1117 8.69155 48.0147 8.40061 47.8027 8.18846L47.7966 8.1824Z" fill="#003565"/>
<path d="M18.1012 36.5746L16.7817 37.8947L18.1012 39.2148L19.4207 37.8947L18.1012 36.5746Z" fill="#003565"/>
<path d="M37.8966 16.7668L36.5771 18.0868L37.8966 19.4069L39.2161 18.0868L37.8966 16.7668Z" fill="#003565"/>
</svg>
