<svg width="59" height="50" viewBox="0 0 59 50" fill="none" xmlns="http://www.w3.org/2000/svg">
<path d="M17.2102 7.53997C11.8013 7.53997 7.3758 12.0639 7.3758 17.5933C7.3758 23.1226 11.8013 27.6465 17.2102 27.6465C22.6191 27.6465 27.0446 23.1226 27.0446 17.5933C27.0446 12.0639 22.6191 7.53997 17.2102 7.53997ZM17.2102 25.1332C13.1551 25.1332 9.8344 21.7386 9.8344 17.5933C9.8344 13.4479 13.1551 10.0533 17.2102 10.0533C21.2653 10.0533 24.586 13.4479 24.586 17.5933C24.586 21.7386 21.2653 25.1332 17.2102 25.1332Z" fill="#003565"/>
<path d="M18.4363 16.3333H15.9777V18.8467H18.4363V16.3333Z" fill="#003565"/>
<path d="M34.414 17.5933C34.414 7.9186 26.6742 0 17.2102 0C7.74618 0 0 7.9186 0 17.5933C0 19.852 0.49172 22.2413 1.59649 25.0092C5.40892 34.4358 15.7286 47.8772 16.2204 48.5039C16.463 48.8825 16.8334 49.0065 17.2038 49.0065C17.5742 49.0065 17.9382 48.8825 18.1873 48.5039C18.679 47.8772 29.0051 34.4293 32.8111 25.0092C33.4242 23.2531 34.4076 20.6092 34.4076 17.5933H34.414ZM30.4802 24.1279C27.5299 31.5438 19.9115 42.0933 17.2038 45.7425C14.5025 42.0998 6.87769 31.5438 3.92737 24.1279C2.94393 21.6146 2.45221 19.6039 2.45221 17.5933C2.4586 9.29603 9.09362 2.51332 17.2102 2.51332C25.3268 2.51332 31.9618 9.29603 31.9618 17.5933C31.9618 19.6039 31.4701 21.6146 30.4866 24.1279H30.4802Z" fill="#003565"/>
<path d="M50.6408 20.8573C50.8834 21.1054 51.2538 21.36 51.6242 21.36C51.9946 21.36 52.3586 21.1119 52.6076 20.8573C52.729 20.6092 56.7841 14.4467 58.2592 10.804C58.6296 10.0533 58.9936 8.9174 58.9936 7.664C58.9936 3.51865 55.6729 0.124034 51.6178 0.124034C47.5627 0.124034 44.242 3.51865 44.242 7.664C44.242 8.9174 44.7337 10.0533 44.9764 10.804C46.4516 14.4467 50.5067 20.6027 50.628 20.8573H50.6408ZM51.6242 2.51332C54.3255 2.51332 56.5414 4.77205 56.5414 7.53997C56.5414 8.2907 56.4201 8.92393 56.0497 9.7987C55.0662 12.188 52.978 15.7066 51.6242 17.8413C50.2704 15.7066 48.1822 12.188 47.1987 9.7987C46.8283 8.9174 46.707 8.16667 46.707 7.53997C46.707 4.77858 48.9165 2.51332 51.6242 2.51332Z" fill="#003565"/>
<path d="M52.8503 6.28004H50.3917V8.79337H52.8503V6.28004Z" fill="#003565"/>
<path d="M55.8006 29.6507C53.7124 27.516 50.8834 26.3866 47.9331 26.3866H40.5573C39.9443 26.3866 39.3312 26.1386 38.8395 25.6359C38.3478 25.1332 38.1051 24.5065 38.1051 23.8798C38.1051 23.2531 38.3478 22.6264 38.8395 22.1238C39.3312 21.6211 39.9443 21.373 40.5573 21.373H46.7006V18.8597H40.5573C39.3312 18.8597 38.0987 19.3624 37.1153 20.3677C36.1318 21.249 35.6401 22.6264 35.6401 23.8864C35.6401 25.1463 36.1318 26.3997 37.1153 27.405C37.9774 28.4103 39.2035 28.913 40.5573 28.913H47.9331C50.1427 28.913 52.3586 29.9183 53.9551 31.5504C55.6729 33.1824 56.535 35.4476 56.535 37.7064C56.535 39.9651 55.5516 42.2304 53.9551 43.8624C52.3586 45.6184 50.2704 46.4997 47.9331 46.4997H27.0382V49.0131H47.9331C50.8834 49.0131 53.7124 47.8837 55.8006 45.749C57.8888 43.6143 58.9936 40.7224 58.9936 37.7064C58.9936 34.6904 57.8888 31.7984 55.8006 29.6637V29.6507Z" fill="#003565"/>
<path d="M29.4968 41.4666H27.0382V43.9799H29.4968V41.4666Z" fill="#003565"/>
<path d="M34.414 41.4666H31.9554V43.9799H34.414V41.4666Z" fill="#003565"/>
<path d="M39.3312 41.4666H36.8726V43.9799H39.3312V41.4666Z" fill="#003565"/>
<path d="M44.2484 41.4666H41.7898V43.9799H44.2484V41.4666Z" fill="#003565"/>
</svg>
