<svg width="128" height="129" viewBox="0 0 128 129" fill="none" xmlns="http://www.w3.org/2000/svg">
<rect x="0.5" y="0.533203" width="127" height="127" rx="7.5" stroke="#C1C1C1" stroke-linecap="round" stroke-dasharray="10 10"/>
<g clip-path="url(#clip0_8_1277)">
<path d="M69.8333 66.9499C69.8333 63.7415 67.2083 61.1165 64 61.1165C60.7917 61.1165 58.1667 63.7415 58.1667 66.9499C58.1667 69.3124 59.8583 72.8707 62.3083 75.7874C60.5 77.4207 58.1667 78.6165 55.25 78.6165C52.9167 78.6165 50.6417 77.479 48.6 75.729C52.6542 71.0624 55.25 64.7624 55.25 61.1165C55.25 56.304 51.3125 52.3665 46.5 52.3665C41.6875 52.3665 37.75 56.304 37.75 61.1165C37.75 64.704 40.2875 71.1207 44.4583 75.7874C42.7667 77.2457 40.9 78.2957 38.975 78.6165C38.1875 78.7332 37.6333 79.4915 37.7792 80.279C37.8958 81.0082 38.5083 81.504 39.2083 81.504C39.2958 81.504 39.3542 81.504 39.4417 81.504C42.0083 81.0957 44.4 79.7249 46.5 77.8582C49.0375 80.0749 51.9833 81.5332 55.25 81.5332C64.875 81.5332 69.8333 71.3249 69.8333 66.9499ZM40.6667 61.1165C40.6667 57.9082 43.2917 55.2832 46.5 55.2832C49.7083 55.2832 52.3333 57.9082 52.3333 61.1165C52.3333 64.3249 50 69.6624 46.5583 73.6874C43.0583 69.7207 40.6667 64.2957 40.6667 61.1165ZM61.0833 66.9499C61.0833 65.3457 62.3958 64.0332 64 64.0332C65.6042 64.0332 66.9167 65.3457 66.9167 66.9499C66.9167 68.2624 66.0708 71.0624 64.2625 73.5707C62.2792 71.0915 61.0833 68.3207 61.0833 66.9499ZM96.8708 63.2457C94.1292 60.504 89.3167 60.504 86.5458 63.2457L64.0583 85.7332C62.1333 87.6582 61.0542 90.2249 61.0542 92.9374V97.5749C61.0542 98.3915 61.6958 99.0332 62.5125 99.0332H67.15C69.8917 99.0332 72.4292 97.9832 74.3542 96.029L96.8417 73.5415C98.2125 72.1707 98.9708 70.3332 98.9708 68.379C98.9708 66.4249 98.2125 64.5874 96.8417 63.2165L96.8708 63.2457ZM94.8 71.4999L72.3125 93.9874C70.9417 95.3582 69.1042 96.1165 67.15 96.1165H63.9708V92.9374C63.9708 90.9832 64.7292 89.1457 66.1 87.7749L88.5875 65.2874C90.25 63.6249 93.1083 63.6249 94.7708 65.2874C95.5875 66.104 96.0542 67.2124 96.0542 68.379C96.0542 69.5457 95.5875 70.654 94.7708 71.4707L94.8 71.4999ZM53.7917 90.2832H42.125C36.4958 90.2832 31.9167 85.704 31.9167 80.0749V42.1582C31.9167 36.529 36.4958 31.9499 42.125 31.9499H61.0833V42.1582C61.0833 46.1832 64.35 49.4499 68.375 49.4499H78.5833V59.6582C78.5833 60.4749 79.225 61.1165 80.0417 61.1165C80.8583 61.1165 81.5 60.4749 81.5 59.6582V48.954C81.5292 46.0957 80.4792 43.4415 78.5542 41.4874L69.1042 32.0374C67.1792 30.1124 64.6125 29.0332 61.9 29.0332H42.125C34.8917 29.0332 29 34.9249 29 42.1582V80.0749C29 87.3082 34.8917 93.1999 42.125 93.1999H53.7917C54.6083 93.1999 55.25 92.5582 55.25 91.7415C55.25 90.9249 54.6083 90.2832 53.7917 90.2832ZM76.4833 43.529C77.3292 44.3749 77.9125 45.3957 78.2625 46.5332H68.375C65.9542 46.5332 64 44.579 64 42.1582V32.2707C65.1375 32.6207 66.1583 33.2332 67.0333 34.079L76.4833 43.529Z" fill="black"/>
</g>
<defs>
<clipPath id="clip0_8_1277">
<rect width="70" height="70" fill="white" transform="translate(29 29.0332)"/>
</clipPath>
</defs>
</svg>
