<svg width="128" height="128" viewBox="0 0 128 128" fill="none" xmlns="http://www.w3.org/2000/svg">
<path d="M74.5836 68.8702C74.5836 63.0558 69.8263 58.2985 64.0118 58.2985C58.1974 58.2985 53.44 63.0558 53.44 68.8702C53.44 73.1518 56.5059 79.6006 60.946 84.8865C57.6688 87.8466 53.44 90.0138 48.1541 90.0138C43.9254 90.0138 39.8024 87.9523 36.1023 84.7808C43.4497 76.3234 48.1541 64.9058 48.1541 58.2985C48.1541 49.5767 41.0182 42.4408 32.2964 42.4408C23.5747 42.4408 16.4388 49.5767 16.4388 58.2985C16.4388 64.8001 21.0375 76.4291 28.5963 84.8865C25.5305 87.5295 22.1475 89.4324 18.6588 90.0138C17.2316 90.2253 16.2273 91.5996 16.4916 93.0268C16.703 94.3483 17.8131 95.2469 19.0817 95.2469C19.2403 95.2469 19.346 95.2469 19.5046 95.2469C24.1562 94.5069 28.4906 92.0225 32.2964 88.6395C36.8952 92.6568 42.2339 95.2997 48.1541 95.2997C65.5976 95.2997 74.5836 76.7991 74.5836 68.8702ZM21.7247 58.2985C21.7247 52.484 26.482 47.7267 32.2964 47.7267C38.1109 47.7267 42.8682 52.484 42.8682 58.2985C42.8682 64.1129 38.6395 73.7861 32.4022 81.0807C26.0591 73.8919 21.7247 64.0601 21.7247 58.2985ZM58.7259 68.8702C58.7259 65.963 61.1046 63.5844 64.0118 63.5844C66.9191 63.5844 69.2977 65.963 69.2977 68.8702C69.2977 71.2489 67.7648 76.3234 64.4876 80.8692C60.8932 76.3762 58.7259 71.3546 58.7259 68.8702ZM123.584 62.1572C118.615 57.1884 109.893 57.1884 104.872 62.1572L64.1176 102.911C60.6289 106.4 58.6731 111.052 58.6731 115.968V124.372C58.6731 125.852 59.836 127.015 61.316 127.015H69.7206C74.6894 127.015 79.2881 125.112 82.7768 121.571L123.531 80.8164C126.015 78.332 127.39 75.0019 127.39 71.4603C127.39 67.9188 126.015 64.5887 123.531 62.1043L123.584 62.1572ZM119.831 77.1162L79.0767 117.871C76.5923 120.355 73.2622 121.729 69.7206 121.729H63.959V115.968C63.959 112.426 65.3333 109.096 67.8177 106.612L108.572 65.8573C111.585 62.8443 116.765 62.8443 119.778 65.8573C121.258 67.3373 122.104 69.346 122.104 71.4603C122.104 73.5747 121.258 75.5833 119.778 77.0634L119.831 77.1162ZM45.5112 111.157H24.3676C14.1658 111.157 5.86695 102.859 5.86695 92.6568V23.9401C5.86695 13.7383 14.1658 5.43946 24.3676 5.43946H58.7259V23.9401C58.7259 31.2346 64.6462 37.1549 71.9407 37.1549H90.4413V55.6555C90.4413 57.1356 91.6042 58.2985 93.0843 58.2985C94.5643 58.2985 95.7272 57.1356 95.7272 55.6555V36.2563C95.7801 31.0761 93.8772 26.2659 90.3885 22.7244L73.2622 5.59804C69.7735 2.10935 65.1219 0.153564 60.206 0.153564H24.3676C11.2586 0.153564 0.581055 10.8311 0.581055 23.9401V92.6568C0.581055 105.766 11.2586 116.443 24.3676 116.443H45.5112C46.9912 116.443 48.1541 115.28 48.1541 113.8C48.1541 112.32 46.9912 111.157 45.5112 111.157ZM86.6355 26.4245C88.1684 27.9574 89.2256 29.8075 89.8599 31.869H71.9407C67.5534 31.869 64.0118 28.3274 64.0118 23.9401V6.02091C66.0733 6.65522 67.9234 7.76526 69.5092 9.29817L86.6355 26.4245Z" fill="#B69021"/>
</svg>
