<svg width="52" height="48" viewBox="0 0 52 48" fill="none" xmlns="http://www.w3.org/2000/svg">
<path fill-rule="evenodd" clip-rule="evenodd" d="M9.68975 2.1866V43.2404C9.68975 43.7731 10.3084 44.0747 10.7383 43.7474L14.2095 41.1098C15.74 39.9482 17.8435 39.8583 19.4652 40.8852L22.487 42.7976C23.3988 43.3752 23.6593 44.5689 23.0731 45.461C22.487 46.3594 21.2757 46.6161 20.3704 46.0385L17.3486 44.1261C17.1141 43.9785 16.8145 43.9913 16.5996 44.1582L13.1284 46.7958C10.1261 49.0805 5.77568 46.9691 5.77568 43.234V2.1866H9.68975ZM42.3114 2.1866H46.2255V43.2404C46.2255 46.9755 41.875 49.0869 38.8727 46.8022L35.4015 44.1646C35.1801 43.9977 34.8805 43.9849 34.6526 44.1325L31.6307 46.045C30.7189 46.6226 29.5076 46.3594 28.928 45.4674C28.3418 44.5689 28.6089 43.3752 29.5141 42.804L32.536 40.8916C34.1576 39.8647 36.2677 39.9546 37.7916 41.1162L41.2628 43.7539C41.6927 44.0812 42.3114 43.7795 42.3114 43.2469V2.1866Z" fill="#003565"/>
<path fill-rule="evenodd" clip-rule="evenodd" d="M16.2154 17.6147C16.2154 16.5493 17.0946 15.683 18.1757 15.683H26.0038C27.0849 15.683 27.9641 16.5493 27.9641 17.6147C27.9641 18.68 27.0849 19.5464 26.0038 19.5464H18.1757C17.0946 19.5464 16.2154 18.68 16.2154 17.6147Z" fill="#003565"/>
<path fill-rule="evenodd" clip-rule="evenodd" d="M0.559082 2.1866C0.559082 1.12127 1.43828 0.254883 2.51938 0.254883H26.0038C27.0849 0.254883 27.9641 1.12127 27.9641 2.1866C27.9641 3.25194 27.0849 4.11832 26.0038 4.11832H2.51938C1.43828 4.11832 0.559082 3.25194 0.559082 2.1866ZM35.7858 2.1866C35.7858 1.12127 36.665 0.254883 37.746 0.254883H49.4883C50.5694 0.254883 51.4486 1.12127 51.4486 2.1866C51.4486 3.25194 50.5694 4.11832 49.4883 4.11832H37.746C36.665 4.11832 35.7858 3.25194 35.7858 2.1866Z" fill="#003565"/>
<path fill-rule="evenodd" clip-rule="evenodd" d="M16.2154 27.8958C16.2154 26.8305 17.0946 25.9641 18.1757 25.9641H26.0038C27.0849 25.9641 27.9641 26.8305 27.9641 27.8958C27.9641 28.9611 27.0849 29.8275 26.0038 29.8275H18.1757C17.0946 29.8275 16.2154 28.9611 16.2154 27.8958Z" fill="#003565"/>
<path fill-rule="evenodd" clip-rule="evenodd" d="M31.8717 17.6147C31.8717 16.5493 32.7509 15.683 33.832 15.683H35.1345C36.2156 15.683 37.0948 16.5493 37.0948 17.6147C37.0948 18.68 36.2156 19.5464 35.1345 19.5464H33.832C32.7509 19.5464 31.8717 18.68 31.8717 17.6147Z" fill="#003565"/>
<path fill-rule="evenodd" clip-rule="evenodd" d="M31.8717 27.8958C31.8717 26.8305 32.7509 25.9641 33.832 25.9641H35.1345C36.2156 25.9641 37.0948 26.8305 37.0948 27.8958C37.0948 28.9611 36.2156 29.8275 35.1345 29.8275H33.832C32.7509 29.8275 31.8717 28.9611 31.8717 27.8958Z" fill="#003565"/>
</svg>
