<svg width="216" height="107" viewBox="0 0 216 107" fill="none" xmlns="http://www.w3.org/2000/svg">
<g clip-path="url(#clip0_1470_1813)">
<path d="M119.047 62.7517H134.702C136.196 62.7517 137.406 61.4145 137.406 59.7635V16.2085H131.997V56.7733H119.045V62.7517H119.047Z" fill="#734962"/>
<path d="M206.003 81.1068C206.72 81.1068 207.408 80.7929 207.915 80.2303C208.424 79.6677 208.71 78.9034 208.706 78.1064L208.507 17.9614L203.098 17.9838L203.288 75.1182L177.033 75.0204L177.014 80.9988L205.994 81.1068H206.003Z" fill="#734962"/>
<path d="M82.5754 61.0926H93.395V55.1162H85.29L85.491 0.0283662L80.0821 0.00390625L79.87 58.0901C79.8663 58.8851 80.1503 59.6474 80.6574 60.212C81.1646 60.7746 81.8543 61.0926 82.5735 61.0926H82.5754Z" fill="#734962"/>
<path d="M210.122 19.197C210.84 19.197 211.528 18.881 212.037 18.3205C212.546 17.7559 212.832 16.9895 212.828 16.1925L212.747 0L207.338 0.0326133L207.402 13.2084L71.8921 12.6254L71.8718 18.6038L210.113 19.197H210.124H210.122Z" fill="#947588"/>
<path d="M32.7481 5.9375H74.8926V107.002H32.7481V5.9375Z" fill="#B1C6E3"/>
<path d="M103.186 16.209H108.594V27.5441H103.186V16.209Z" fill="#947588"/>
<path d="M163.513 31.2538C160.578 31.2538 158.198 30.1925 158.198 28.8833C158.198 27.574 160.578 26.5127 163.513 26.5127C166.449 26.5127 168.828 27.574 168.828 28.8833C168.828 30.1925 166.449 31.2538 163.513 31.2538Z" fill="#856177"/>
<path d="M145.61 41.7371V81.0157C145.61 84.4707 148.144 87.2693 151.27 87.2693H175.757C178.883 87.2693 181.415 84.4707 181.415 81.0157V41.7371C181.415 40.7098 181.304 39.7131 181.097 38.7591C181.046 38.5064 180.983 38.2536 180.915 38.007C180.588 36.8268 180.113 35.72 179.513 34.709C177.446 31.2316 173.883 28.9385 169.837 28.9385H157.192C153.146 28.9385 149.583 31.2316 147.513 34.709C146.91 35.718 146.436 36.8268 146.112 38.007C146.044 38.2536 145.981 38.5064 145.929 38.7591C145.723 39.7131 145.612 40.7119 145.612 41.7371H145.61Z" fill="#B1C6E3"/>
<path d="M87.986 39.7434V80.5323C87.986 85.0493 91.3 88.7122 95.3885 88.7122H116.392C120.48 88.7122 123.79 85.0493 123.79 80.5323V39.7434C123.79 36.1885 122.649 32.9251 120.751 30.3793C120.557 30.1224 120.358 29.8697 120.148 29.6292C117.719 26.7918 114.282 25.0205 110.47 25.0205H101.308C97.4963 25.0205 94.0551 26.7918 91.6282 29.6292C91.4217 29.8697 91.2207 30.1224 91.027 30.3793C89.1276 32.9251 87.986 36.1885 87.986 39.7434Z" fill="#B1C6E3"/>
<path d="M74.8907 100.461H215.5V107H74.8907V100.461Z" fill="#947588"/>
<path d="M190.621 19.0645H198.453V100.463H190.621V19.0645Z" fill="#947588"/>
<path d="M86.5975 83.7876H92.0063V96.1338H86.5975V83.7876Z" fill="#947588"/>
<path d="M119.047 83.7876H125.201V96.1338H119.047V83.7876Z" fill="#947588"/>
<path d="M145.61 83.7876H150.003V96.1338H145.61V83.7876Z" fill="#947588"/>
<path d="M177.023 83.7876H181.416V96.1338H177.023V83.7876Z" fill="#947588"/>
<path d="M74.8923 96.1338H190.62V100.463H74.8923V96.1338Z" fill="#856177"/>
<path d="M147.512 34.709H179.513C177.446 31.2316 173.883 28.9385 169.837 28.9385H157.192C153.145 28.9385 149.583 31.2316 147.513 34.709H147.512Z" fill="#947588"/>
<path d="M32.7481 5.9375H74.8926V11.918H32.7481V5.9375Z" fill="#947588"/>
<path d="M44.0287 22.7192H65.8469V34.7087H44.0287V22.7192Z" fill="#947588"/>
<path d="M44.9435 23.5894H64.9304V33.5853H44.9435V23.5894Z" fill="#8F6E82"/>
<path d="M27.5255 83.7876H74.8926V84.6111H27.5255V83.7876Z" fill="#C3DAFA"/>
<path d="M27.5255 86.2617H74.8926V87.0852H27.5255V86.2617Z" fill="#C3DAFA"/>
<path d="M123.792 71.4209H145.61V81.1091H123.792V71.4209Z" fill="#947588"/>
<path d="M105.518 72.4502H106.263V83.7874H105.518V72.4502Z" fill="#947588"/>
<path d="M109.253 73.8196L109.78 74.4019L102.527 82.4185L102 81.8362L109.253 73.8196Z" fill="#947588"/>
<path d="M109.253 73.8196L109.78 74.4019L102.527 82.4185L102 81.8362L109.253 73.8196Z" fill="#947588"/>
<path d="M102 74.4006L102.527 73.8184L109.78 81.835L109.253 82.4172L102 74.4006Z" fill="#947588"/>
<path d="M111.02 77.7087V78.5322H100.762V77.7087H111.02Z" fill="#947588"/>
<path d="M105.889 84.8187C109.231 84.8187 111.949 81.8143 111.949 78.1208C111.949 74.4274 109.231 71.4229 105.889 71.4229C102.547 71.4229 99.8292 74.4274 99.8292 78.1208C99.8292 81.8143 102.547 84.8187 105.889 84.8187ZM105.889 73.4816C108.204 73.4816 110.085 75.5627 110.085 78.1188C110.085 80.6748 108.202 82.756 105.889 82.756C103.577 82.756 101.694 80.6748 101.694 78.1188C101.694 75.5627 103.577 73.4816 105.889 73.4816Z" fill="#947588"/>
<path d="M105.889 41.4919C107.997 41.4919 109.712 39.5963 109.712 37.2665C109.712 34.9367 107.997 33.041 105.889 33.041C103.781 33.041 102.066 34.9367 102.066 37.2665C102.066 39.5963 103.781 41.4919 105.889 41.4919ZM105.889 35.1018C106.968 35.1018 107.847 36.072 107.847 37.2665C107.847 38.4609 106.97 39.4312 105.889 39.4312C104.808 39.4312 103.93 38.4609 103.93 37.2665C103.93 36.072 104.808 35.1018 105.889 35.1018Z" fill="#947588"/>
<path d="M176.127 16.2435L176.288 5.23451C176.297 4.65563 176.094 4.09509 175.725 3.68131C175.356 3.26753 174.855 3.03516 174.329 3.03516H145.608C144.528 3.03516 143.65 4.00336 143.65 5.19986V15.6871H147.567V7.36457H172.341L172.212 16.1742L176.127 16.2435Z" fill="#947588"/>
<path d="M91.0289 30.3815H120.753C120.559 30.1246 120.36 29.8719 120.15 29.6313H91.6282C91.4217 29.8719 91.2206 30.1246 91.027 30.3815H91.0289Z" fill="#C3DAFA"/>
<path d="M87.988 65.0815H123.792V65.8316H87.988V65.0815Z" fill="#C3DAFA"/>
<path d="M145.61 68.3145H181.415V69.0666H145.61V68.3145Z" fill="#C3DAFA"/>
<path d="M145.61 65.8315H181.415V66.5837H145.61V65.8315Z" fill="#C3DAFA"/>
<path d="M145.928 38.759H181.097C181.046 38.5062 180.983 38.2535 180.915 38.0068H146.11C146.042 38.2535 145.979 38.5062 145.928 38.759Z" fill="#C3DAFA"/>
<path d="M59.8221 42.7437H62.8059V46.0417H59.8221V42.7437Z" fill="#947588"/>
<path d="M60.65 43.6587H61.9778V45.1263H60.65V43.6587Z" fill="#845F75"/>
<path d="M53.8194 42.7437H56.8032V46.0417H53.8194V42.7437Z" fill="#947588"/>
<path d="M54.2269 43.1943H56.3938V45.5894H54.2269V43.1943Z" fill="#A9909F"/>
<path d="M48.025 46.0415C47.253 46.0415 46.6271 45.2595 46.6271 44.2947C46.6271 43.3299 47.253 42.5479 48.025 42.5479C48.797 42.5479 49.4229 43.3299 49.4229 44.2947C49.4229 45.2595 48.797 46.0415 48.025 46.0415Z" fill="#947588"/>
<path d="M40.4861 44.6907C40.3385 43.6851 40.9563 42.7375 41.8661 42.5743C42.776 42.411 43.6332 43.0939 43.7809 44.0996C43.9286 45.1052 43.3108 46.0527 42.4009 46.216C41.4911 46.3792 40.6338 45.6963 40.4861 44.6907Z" fill="#947588"/>
<path d="M26.4236 47.5787C26.4236 47.5787 26.7609 46.6512 27.8669 46.5656C31.6308 46.2782 31.32 45.414 29.7969 45.414C27.8649 45.414 28.8258 44.1808 29.157 43.9545C30.126 43.288 31.0092 44.564 31.5204 44.0768C32.1255 43.5 30.8396 41.8958 29.8378 41.6655C26.7486 40.9602 24.4691 45.1775 24.4691 45.1775L26.4276 47.5807L26.4236 47.5787Z" fill="#FFB7AD"/>
<path d="M27.5256 47.6418L24.0542 44.0747L19.4623 50.5158C19.4623 50.5158 17.3259 46.0437 15.5104 45.7237C13.695 45.4037 15.4655 61.2537 18.5546 61.482C22.8807 61.802 27.5256 47.6397 27.5256 47.6397V47.6418Z" fill="#DCDEFA"/>
<path d="M11.5052 100.506L11.6177 100.691L14.6925 105.828L15.3672 106.984H25.4238L24.0172 105.867L23.9702 105.828L18.1803 100.612L11.5052 100.506Z" fill="#A9909F"/>
<path d="M20.1818 78.5714C20.1818 78.5714 19.8608 87.116 19.3006 91.3476C18.7405 95.5792 18.1803 100.61 18.1803 100.61H11.6933L12.1737 78.8894L20.1838 78.5693L20.1818 78.5714Z" fill="#845F75"/>
<path d="M5.1246 100.691H12.734L14.4963 77.375L3.84272 78.333L5.1246 100.691Z" fill="#8D6C80"/>
<path d="M4.72378 107H18.5544L17.4729 105.828L12.7339 100.691H5.12448L4.79942 105.828L4.72378 107Z" fill="#B59FAC"/>
<path d="M10.3073 101.394L13.2422 106.026L13.0659 106.137L10.131 101.505L10.3073 101.394Z" fill="#7F5A70"/>
<path d="M16.0909 101.093L20.3083 106.018L20.1498 106.153L15.9323 101.228L16.0909 101.093Z" fill="#7F5A70"/>
<path d="M10.8122 102.238H13.5354V102.446H10.8122V102.238Z" fill="#7F5A70"/>
<path d="M11.6136 103.488H14.4431V103.696H11.6136V103.488Z" fill="#7F5A70"/>
<path d="M16.6878 101.812H19.0083V102.02H16.6878V101.812Z" fill="#7F5A70"/>
<path d="M17.567 102.85H20.1553V103.058H17.567V102.85Z" fill="#7F5A70"/>
<path d="M15.314 44.8923C15.314 44.8923 17.5384 46.3109 18.4461 52.7011C19.3539 59.0913 21.2756 80.3836 21.2756 80.3836L2.26639 80.6507C2.26639 80.6507 0.825047 58.6632 1.51811 54.5641C2.21323 50.4651 2.95945 48.229 4.50914 46.686C6.05678 45.143 7.55332 44.3623 7.55332 44.3623L15.314 44.8943V44.8923Z" fill="#E6E8FF"/>
<path d="M8.58587 43.6139L13.2492 45.1752L14.4248 44.2172L14.3308 43.0839L14.2101 41.6612L12.8894 41.4043L9.44045 40.7378L8.58587 43.6139Z" fill="#FFB7AD"/>
<path d="M11.221 41.5897C11.221 41.5897 11.8629 43.0797 13.4637 43.1877C13.8379 43.2122 14.12 43.1674 14.3306 43.0838L14.212 41.661L12.8913 41.4062L11.221 41.5917V41.5897Z" fill="#FF9C8F"/>
<path d="M16.5244 78.3594L15.725 88.2616L14.1406 78.2881L16.5244 78.3594Z" fill="#F5E3B8"/>
<path d="M14.2816 34.4927C14.2816 34.4927 16.4732 41.3618 14.4594 42.1588C11.8609 43.1882 8.97827 40.8461 8.97827 40.8461L8.01738 37.8641L8.55098 34.564L14.2816 34.4927Z" fill="#FFB7AD"/>
<path d="M10.3666 73.9932C10.3666 73.9932 11.3643 76.8672 11.3643 77.5786C11.3643 78.29 11.2211 78.3593 11.2211 78.3593L10.1539 78.4653L8.5511 74.5619L10.3666 73.9932Z" fill="#FFB7AD"/>
<path d="M14.9768 77.4541L15.7251 88.2613H1.73496L1.20136 77.6661L14.9768 77.4541Z" fill="#FFF3D4"/>
<path d="M9.29936 74.4561C9.29936 74.4561 11.7547 80.7728 11.2927 81.1275C10.9145 81.4169 9.90452 79.8495 9.90452 79.8495C9.90452 79.8495 10.6875 81.5882 10.3666 81.8368C10.0456 82.0855 8.83528 80.2041 8.83528 80.2041C8.83528 80.2041 9.6183 81.8715 9.19101 81.9795C8.76372 82.0855 7.65972 80.3122 7.65972 80.3122C7.65972 80.3122 8.05021 81.2681 7.80284 81.3415C7.4471 81.4475 6.55778 80.1695 6.05893 78.9281C5.73795 78.125 5.56007 74.7761 5.56007 74.7761L9.29732 74.4561H9.29936Z" fill="#FFB7AD"/>
<path d="M8.40798 43.4897L13.2492 45.1754L14.5495 44.0747L15.3141 44.8921L15.8845 48.6895L14.6742 53.6223L7.55545 44.3581L8.40798 43.4897Z" fill="#B59FAC"/>
<path d="M13.2492 45.1753L14.7089 47.6417L14.1753 48.8402L15.5901 50.5687L14.7089 54.0828L12.227 51.1292L13.3473 48.9992L12.227 47.6947L13.2492 45.1753Z" fill="#7F5A70"/>
<path d="M10.4013 35.5381C10.4013 35.5381 17.1112 35.477 14.7355 32.9209C11.8202 29.786 7.42052 33.2939 7.42052 33.2939C7.42052 33.2939 6.51278 33.3204 6.08549 34.252C5.15936 36.2719 7.71492 41.6776 8.99474 41.7041C10.9983 41.7449 9.28914 38.616 9.28914 38.616L9.66328 38.1635C9.66328 38.1635 10.064 38.457 10.3032 38.457C10.5424 38.457 10.4013 35.5381 10.4013 35.5381Z" fill="black"/>
<path d="M10.3051 38.7504C10.3051 38.7504 10.0373 37.0993 9.23788 37.4723C8.43645 37.8454 8.54277 39.0419 9.02526 39.3619C9.50775 39.6819 10.0127 39.6289 10.0127 39.6289L10.3071 38.7504H10.3051Z" fill="#FFB7AD"/>
<path d="M11.2537 37.1932C11.3293 37.3257 11.6912 37.2584 12.0612 37.0444C12.4313 36.8304 12.6705 36.5511 12.5928 36.4207C12.5151 36.2902 12.1553 36.3555 11.7852 36.5674C11.4152 36.7794 11.176 37.0607 11.2516 37.1912L11.2537 37.1932Z" fill="black"/>
<path d="M13.8379 36.5779C13.8379 36.7308 14.0485 36.8531 14.3102 36.8531C14.5719 36.8531 14.7825 36.7308 14.7825 36.5779C14.7825 36.425 14.5719 36.3027 14.3102 36.3027C14.0485 36.3027 13.8379 36.425 13.8379 36.5779Z" fill="black"/>
<path d="M14.1569 37.4197C14.1569 37.5074 14.2285 37.5787 14.3164 37.5787C14.4043 37.5787 14.4758 37.5074 14.4758 37.4197C14.4758 37.3321 14.4043 37.2607 14.3164 37.2607C14.2285 37.2607 14.1569 37.3321 14.1569 37.4197Z" fill="black"/>
<path d="M12.5561 37.8087C12.468 37.8087 12.3966 37.7375 12.3966 37.6497C12.3966 37.5619 12.468 37.4907 12.5561 37.4907C12.6442 37.4907 12.7156 37.5619 12.7156 37.6497C12.7156 37.7375 12.6442 37.8087 12.5561 37.8087Z" fill="black"/>
<path d="M13.7377 39.0767C13.844 39.0767 13.9647 39.0482 14.0567 38.9443C14.2345 38.7486 14.0035 38.2145 13.8952 37.9944C13.8706 37.9434 13.8072 37.921 13.7561 37.9455C13.705 37.9699 13.6825 38.0331 13.7071 38.0841C13.8583 38.3959 13.9544 38.7445 13.9013 38.8016C13.7909 38.9239 13.5599 38.8301 13.5578 38.8281C13.5047 38.8056 13.4433 38.8281 13.4208 38.8831C13.3984 38.9361 13.4209 38.9972 13.4761 39.0197C13.4842 39.0237 13.6008 39.0727 13.7398 39.0727L13.7377 39.0767Z" fill="#FF9C8F"/>
<path d="M9.88597 38.7138C9.90437 38.7138 9.92276 38.7097 9.94116 38.6975C9.99023 38.6669 10.0066 38.6037 9.97592 38.5548C9.96978 38.5446 9.81646 38.3 9.51184 38.1288C9.46073 38.1002 9.39734 38.1186 9.36872 38.1675C9.3401 38.2184 9.3585 38.2816 9.40757 38.3102C9.66517 38.4549 9.79602 38.6628 9.79602 38.6648C9.81646 38.6975 9.84917 38.7138 9.88597 38.7138Z" fill="#FF9C8F"/>
<path d="M7.50007 33.6793C7.50007 33.6793 7.54097 33.0902 7.96621 32.6662C8.23812 32.3951 8.42007 32.3136 8.42212 32.3136L8.38123 32.2178C8.38123 32.2178 8.18088 32.3054 7.89261 32.5928C7.43875 33.0453 7.39785 33.6487 7.3958 33.6731L7.50007 33.6793Z" fill="black"/>
<path d="M7.51652 33.508L7.6167 33.4815C7.61261 33.4652 7.51039 33.0901 7.20168 33.031L6.9216 32.978L6.90114 33.0799L7.18123 33.1329C7.42452 33.1798 7.51243 33.5039 7.51448 33.508H7.51652Z" fill="black"/>
<path d="M10.9185 74.1545L4.77695 75.4855C4.77695 75.4855 0.61241 64.9453 0.506099 60.3122C0.399788 55.6811 1.49969 46.5311 4.93844 47.004C9.20929 47.589 8.19526 61.6962 8.24841 62.8153C8.30157 63.9343 10.9185 74.1545 10.9185 74.1545Z" fill="#DCDEFA"/>
<path d="M7.55544 44.3579L5.27179 45.2262L9.72664 49.3987L8.58584 49.7534L15.0299 55.9988L17.9126 47.6233L16.0624 47.7293L17.3074 46.0273L15.3141 44.892L14.709 53.2308L7.55544 44.3579Z" fill="#DCDEFA"/>
<path d="M9.9393 79.7578C9.95565 79.7578 9.97202 79.7537 9.98633 79.7456C10.0374 79.7191 10.0579 79.6559 10.0313 79.6049L9.19513 77.9906C9.16855 77.9396 9.10517 77.9192 9.05406 77.9457C9.00295 77.9722 8.9825 78.0354 9.00908 78.0864L9.84526 79.7007C9.86366 79.7374 9.90045 79.7578 9.9393 79.7578Z" fill="#FF9C8F"/>
<path d="M8.89031 80.1674C8.90667 80.1674 8.92099 80.1634 8.93734 80.1573C8.98846 80.1308 9.01094 80.0696 8.98436 80.0166L8.12979 78.3126C8.10321 78.2616 8.04187 78.2412 7.98872 78.2657C7.93761 78.2922 7.91512 78.3533 7.9417 78.4063L8.79628 80.1104C8.81468 80.1471 8.85147 80.1674 8.89031 80.1674Z" fill="#FF9C8F"/>
<path d="M7.73328 80.3078C7.74964 80.3078 7.76599 80.3037 7.78235 80.2956C7.83346 80.2691 7.85187 80.2059 7.82529 80.1549L7.06067 78.7179C7.03409 78.6669 6.97071 78.6466 6.9196 78.6751C6.86849 78.7016 6.85008 78.7648 6.87666 78.8157L7.64128 80.2528C7.65968 80.2874 7.69648 80.3078 7.73328 80.3078Z" fill="#FF9C8F"/>
<path d="M4.72378 107H18.5544L17.4729 105.828H4.79942L4.72378 107Z" fill="#7F5A70"/>
<path d="M17.4341 105.867L18.5545 106.984H25.4238L24.0172 105.867H17.4341Z" fill="#7F5A70"/>
<g opacity="0.48">
<path d="M6.40015 40.3424C6.68228 40.4668 6.94397 40.534 7.19135 40.5483C8.1277 40.6135 8.82486 39.9592 9.17242 38.8565C9.66104 37.3115 9.7878 35.746 10.9899 35.4138C12.19 35.0815 15.269 34.2927 15.269 34.2927C15.269 34.2927 15.3119 34.1622 15.3569 33.9523C15.5429 33.0778 15.7412 30.797 12.879 30.4178C11.501 30.2344 11.454 30.7766 8.63677 30.9274C5.97081 31.0701 5.8277 33.6404 4.98948 34.7228C3.90592 36.1292 5.06104 39.7554 6.40015 40.3445V40.3424Z" fill="#866378"/>
</g>
<g opacity="0.45">
<path d="M7.19337 40.5482C8.12973 40.6134 8.82688 39.9591 9.17444 38.8564C9.66306 37.3113 9.78982 35.7459 10.992 35.4136C12.192 35.0814 15.271 34.2925 15.271 34.2925C15.271 34.2925 15.3139 34.1621 15.3589 33.9521C14.2304 34.1601 12.1082 34.372 10.9204 34.7226C9.6692 35.0916 9.26235 36.5775 8.92093 38.1552C8.48546 40.165 7.7515 39.8307 7.19133 40.5482H7.19337Z" fill="#866378"/>
</g>
<path d="M14.1181 59.5332C14.5986 59.5332 14.6006 60.2792 14.1181 60.2792C13.6357 60.2792 13.6357 59.5332 14.1181 59.5332Z" fill="#CACEFA"/>
<path d="M14.2449 61.9282C14.7253 61.9282 14.7273 62.6743 14.2449 62.6743C13.7624 62.6743 13.7624 61.9282 14.2449 61.9282Z" fill="#CACEFA"/>
<path d="M5.33519 73.8525C5.81563 73.8525 5.81768 74.5986 5.33519 74.5986C4.8527 74.5986 4.8527 73.8525 5.33519 73.8525Z" fill="#CACEFA"/>
<path d="M10.62 82.7582C10.62 82.5381 10.941 82.4973 11.0023 82.7073C11.2763 83.6306 11.5237 84.5662 11.7383 85.5059C11.8405 84.3787 11.861 83.2433 11.8692 82.1121C11.8692 81.896 12.2208 81.8328 12.2597 82.0591C12.4825 83.3126 12.6972 84.5662 12.9159 85.8198C12.9425 85.5466 12.967 85.2776 12.9875 85.0085C13.0325 84.4358 13.0672 83.863 13.0897 83.2902C13.1347 82.161 13.1326 81.0277 13.0897 79.8984C13.0795 79.6355 13.4597 79.6498 13.4904 79.8984C13.701 81.631 13.8625 83.3656 13.9586 85.1084C13.9729 85.353 13.5926 85.351 13.5763 85.1084C13.5497 84.6661 13.519 84.2217 13.4843 83.7794C13.4557 84.3746 13.4168 84.9718 13.3636 85.565C13.3268 85.9747 13.378 86.6168 12.9527 86.8491C12.8444 86.9082 12.6624 86.8634 12.6399 86.7228C12.4989 85.8789 12.3557 85.035 12.2126 84.1891C12.1799 85.0676 12.1206 85.9462 11.9939 86.8206C11.9653 87.0224 11.632 87.0122 11.5932 86.8206C11.4235 85.9482 11.2272 85.0819 11.0085 84.2217C11.0085 84.6375 11.0085 85.0513 11.0085 85.4671C11.0085 85.7199 10.6159 85.7199 10.6159 85.4671C10.6118 84.5642 10.618 83.6612 10.6159 82.7602L10.62 82.7582Z" fill="white"/>
<path d="M12.6257 39.4804C12.6972 39.4417 12.777 39.4662 12.8219 39.5314C12.826 39.5375 12.8301 39.5436 12.8342 39.5497C12.8444 39.562 12.8485 39.566 12.8526 39.5701C12.871 39.5905 12.8894 39.6088 12.9098 39.6272C12.9139 39.6292 12.916 39.6333 12.9201 39.6353C12.9303 39.6414 12.9405 39.6496 12.9507 39.6557C12.9732 39.67 12.9978 39.6843 13.0223 39.6944C13.0202 39.6944 13.0202 39.6944 13.0305 39.6985C13.0448 39.7026 13.055 39.7087 13.0673 39.7108C13.0918 39.7189 13.1163 39.725 13.1429 39.7291C13.147 39.7291 13.1531 39.7291 13.1572 39.7311C13.1695 39.7311 13.1818 39.7332 13.194 39.7332C13.2206 39.7332 13.2472 39.7291 13.2758 39.7311C13.3474 39.7352 13.4087 39.7821 13.4189 39.8555C13.4291 39.9248 13.3862 39.9961 13.3146 40.0145C13.239 40.0348 13.1511 40.0206 13.0754 40.0083C13.008 39.9961 12.9446 39.9717 12.8812 39.9431C12.7565 39.884 12.6522 39.7882 12.5766 39.6741C12.5357 39.6109 12.5623 39.513 12.6277 39.4784L12.6257 39.4804Z" fill="#FF9C8F"/>
</g>
<defs>
<clipPath id="clip0_1470_1813">
<rect width="215" height="107" fill="white" transform="matrix(-1 0 0 1 215.5 0)"/>
</clipPath>
</defs>
</svg>
