<svg width="128" height="129" viewBox="0 0 128 129" fill="none" xmlns="http://www.w3.org/2000/svg">
<rect x="0.5" y="0.533203" width="127" height="127" rx="7.5" stroke="#C1C1C1" stroke-linecap="round" stroke-dasharray="10 10"/>
<g clip-path="url(#clip0_8_1289)">
<path d="M64 101C60.3197 101 56.8594 99.5667 54.257 96.9643C52.4736 95.1809 50.1023 94.1986 47.5799 94.1986C39.9824 94.1986 33.8014 88.0175 33.8014 80.4199C33.8014 77.8977 32.8191 75.5265 31.0356 73.743C25.6634 68.3706 25.6634 59.6294 31.0356 54.257C32.8191 52.4735 33.8014 50.1023 33.8014 47.5801C33.8014 39.9825 39.9825 33.8014 47.5799 33.8014C50.1023 33.8014 52.4735 32.8191 54.257 31.0357C56.8594 28.4333 60.3197 27 64 27C67.6803 27 71.1406 28.4333 73.743 31.0357C75.5264 32.8191 77.8977 33.8014 80.4201 33.8014C88.0176 33.8014 94.1986 39.9825 94.1986 47.5801C94.1986 50.1023 95.1809 52.4735 96.9644 54.257C102.337 59.6294 102.337 68.3706 96.9644 73.743C95.1809 75.5265 94.1986 77.8977 94.1986 80.4199C94.1986 88.0175 88.0175 94.1986 80.4201 94.1986C77.8977 94.1986 75.5265 95.1809 73.743 96.9643C71.1406 99.5667 67.6803 101 64 101ZM64 31.3404C61.582 31.3404 59.1638 32.2608 57.3229 34.1015C54.7207 36.704 51.2604 38.1371 47.5799 38.1371C42.3732 38.1371 38.1373 42.3732 38.1373 47.58C38.1373 51.2603 36.704 54.7204 34.1015 57.3228C30.4199 61.0046 30.4199 66.9953 34.1015 70.6769C36.704 73.2793 38.1371 76.7394 38.1371 80.4198C38.1371 85.6265 42.3731 89.8626 47.5798 89.8626C51.2603 89.8626 54.7205 91.2957 57.3228 93.8982C61.0046 97.5798 66.9951 97.5798 70.6769 93.8982C73.2792 91.2957 76.7394 89.8626 80.4199 89.8626C85.6266 89.8626 89.8626 85.6265 89.8626 80.4198C89.8626 76.7394 91.2959 73.2793 93.8983 70.6769C97.58 66.9951 97.58 61.0044 93.8983 57.3228C91.2959 54.7204 89.8627 51.2603 89.8627 47.58C89.8627 42.3732 85.6268 38.1371 80.4201 38.1371C76.7396 38.1371 73.2793 36.704 70.6771 34.1015C68.8362 32.2608 66.418 31.3404 64 31.3404Z" fill="black"/>
<path d="M64 85.8242C51.966 85.8242 42.1758 76.034 42.1758 64C42.1758 51.966 51.966 42.1758 64 42.1758C76.034 42.1758 85.8242 51.966 85.8242 64C85.8242 76.034 76.034 85.8242 64 85.8242ZM64 46.5117C54.3569 46.5117 46.5117 54.3569 46.5117 64C46.5117 73.6431 54.3569 81.4883 64 81.4883C73.6431 81.4883 81.4883 73.6431 81.4883 64C81.4883 54.3569 73.6431 46.5117 64 46.5117Z" fill="black"/>
<path d="M60.9341 73.581L52.5027 65.1496L55.5686 62.0837L60.9341 67.4491L72.4314 55.9517L75.4973 59.0176L60.9341 73.581Z" fill="black"/>
</g>
<defs>
<clipPath id="clip0_8_1289">
<rect width="74" height="74" fill="white" transform="translate(27 27)"/>
</clipPath>
</defs>
</svg>
