<svg width="128" height="129" viewBox="0 0 128 129" fill="none" xmlns="http://www.w3.org/2000/svg">
<rect x="0.5" y="0.533203" width="127" height="127" rx="7.5" stroke="#C1C1C1" stroke-linecap="round" stroke-dasharray="10 10"/>
<g clip-path="url(#clip0_8_1282)">
<path d="M53.5368 41.5474C55.743 39.3412 58.3096 37.609 61.1661 36.3987L59.7261 33C56.4308 34.3963 53.47 36.3939 50.9263 38.9375C48.3827 41.4811 46.3852 44.4414 44.9893 47.7372L48.388 49.1773C49.5983 46.3208 51.3306 43.7536 53.5368 41.5474Z" fill="black"/>
<path d="M92.6012 67.8335C91.3909 70.69 89.6586 73.2567 87.4525 75.4629C85.2463 77.6691 82.6791 79.4013 79.8231 80.6116L81.2631 84.0108C84.5585 82.6145 87.5193 80.6169 90.0629 78.0733C92.6065 75.5297 94.6036 72.5693 95.9999 69.2735L92.6012 67.8335Z" fill="black"/>
<path d="M70.4946 78.7989C75.6938 78.7989 80.8925 76.8196 84.8507 72.8619C92.7665 64.9456 92.7665 52.0656 84.8507 44.1493C76.9349 36.2334 64.0544 36.2334 56.1385 44.1493C48.6625 51.6253 48.2482 63.5286 54.8932 71.4969L52.7639 73.6262L50.1535 71.0162L33 88.1692L40.8308 96L57.9842 78.8465L55.3738 76.2366L57.5031 74.1068C61.2531 77.2334 65.8736 78.7989 70.4946 78.7989ZM38.2203 88.1692L44.0809 82.3091L46.6909 84.9195L40.8308 90.7796L38.2203 88.1692ZM49.3008 82.3091L46.6909 79.6992L50.1535 76.2366L52.7634 78.8465L49.3008 82.3091ZM58.7485 46.7597C65.2252 40.2829 75.7635 40.2829 82.2403 46.7597C88.7171 53.2365 88.7171 63.7747 82.2403 70.2515C75.7635 76.7283 65.2252 76.7283 58.7485 70.2515C52.2717 63.7747 52.2717 53.2365 58.7485 46.7597Z" fill="black"/>
<path d="M79.5631 54.273L76.9531 51.6631L69.0296 59.5866L64.7975 55.3545L62.1875 57.9644L69.0296 64.807L79.5631 54.273Z" fill="black"/>
</g>
<defs>
<clipPath id="clip0_8_1282">
<rect width="63" height="63" fill="white" transform="translate(33 33)"/>
</clipPath>
</defs>
</svg>
