<svg width="128" height="128" viewBox="0 0 128 128" fill="none" xmlns="http://www.w3.org/2000/svg">
<path d="M41.9098 17.6771C46.3566 13.2303 51.5301 9.73867 57.2877 7.2992L54.3852 0.44873C47.743 3.26313 41.7751 7.28951 36.6482 12.4165C31.5212 17.5434 27.4948 23.5103 24.6814 30.1535L31.5319 33.056C33.9713 27.2984 37.4629 22.124 41.9098 17.6771Z" fill="#B69021"/>
<path d="M120.649 70.6604C118.21 76.418 114.718 81.5915 110.271 86.0384C105.824 90.4852 100.65 93.9768 94.8933 96.4163L97.7959 103.268C104.438 100.453 110.406 96.4269 115.533 91.3C120.66 86.173 124.685 80.2061 127.5 73.563L120.649 70.6604Z" fill="#B69021"/>
<path d="M76.0907 92.7623C86.5704 92.7623 97.049 88.7727 105.027 80.7955C120.983 64.8392 120.983 38.8779 105.027 22.9216C89.0718 6.96624 63.1096 6.96624 47.1542 22.9216C32.0853 37.9905 31.2502 61.9831 44.644 78.0441L40.3522 82.3359L35.0906 77.0753L0.515625 111.649L16.2995 127.433L50.8745 92.8582L45.6129 87.5976L49.9047 83.3047C57.4634 89.6069 66.7766 92.7623 76.0907 92.7623ZM11.0379 111.649L22.8506 99.8375L28.1113 105.099L16.2995 116.911L11.0379 111.649ZM33.3719 99.8375L28.1113 94.5769L35.0906 87.5976L40.3512 92.8582L33.3719 99.8375ZM52.4149 28.1832C65.4696 15.1285 86.7108 15.1285 99.7656 28.1832C112.82 41.238 112.82 62.4792 99.7656 75.5339C86.7108 88.5887 65.4696 88.5887 52.4149 75.5339C39.3601 62.4792 39.3601 41.238 52.4149 28.1832Z" fill="#B69021"/>
<path d="M94.3692 43.3271L89.1086 38.0664L73.1377 54.0373L64.6073 45.5069L59.3467 50.7675L73.1377 64.5595L94.3692 43.3271Z" fill="#B69021"/>
</svg>
