<svg width="128" height="129" viewBox="0 0 128 129" fill="none" xmlns="http://www.w3.org/2000/svg">
<rect x="0.5" y="0.533203" width="127" height="127" rx="7.5" stroke="#C1C1C1" stroke-linecap="round" stroke-dasharray="10 10"/>
<g clip-path="url(#clip0_8_1296)">
<path d="M74.4922 56.0008V53.1377L78.2271 49.4027C79.0631 49.8192 80.0043 50.0547 81 50.0547C84.442 50.0547 87.2422 47.2545 87.2422 43.8125C87.2422 40.3705 84.442 37.5703 81 37.5703C77.558 37.5703 74.7578 40.3705 74.7578 43.8125C74.7578 44.8082 74.9933 45.7494 75.4098 46.5855L71.0914 50.9039C70.7178 51.2775 70.5078 51.7842 70.5078 52.3125V54.344C69.0592 53.9015 67.5484 53.6033 65.9922 53.4649V42.1565C68.4598 41.3229 70.2422 38.9876 70.2422 36.2422C70.2422 32.8002 67.442 30 64 30C60.558 30 57.7578 32.8002 57.7578 36.2422C57.7578 38.9876 59.5402 41.3229 62.0078 42.1565V53.4649C60.4516 53.6033 58.9408 53.9015 57.4922 54.344V49.125C57.4922 48.5967 57.2822 48.09 56.9086 47.7164L52.5902 43.398C53.0067 42.5619 53.2422 41.6207 53.2422 40.625C53.2422 37.183 50.442 34.3828 47 34.3828C43.558 34.3828 40.7578 37.183 40.7578 40.625C40.7578 44.067 43.558 46.8672 47 46.8672C47.9957 46.8672 48.9369 46.6317 49.7729 46.2152L53.5078 49.9502V56.0008C46.4799 59.7616 41.6875 67.1749 41.6875 75.6875C41.6875 87.9907 51.6968 98 64 98C76.3032 98 86.3125 87.9907 86.3125 75.6875C86.3125 67.1749 81.5201 59.7616 74.4922 56.0008ZM81 41.5547C82.245 41.5547 83.2578 42.5675 83.2578 43.8125C83.2578 45.0575 82.245 46.0703 81 46.0703C79.755 46.0703 78.7422 45.0575 78.7422 43.8125C78.7422 42.5675 79.755 41.5547 81 41.5547ZM44.7422 40.625C44.7422 39.38 45.755 38.3672 47 38.3672C48.245 38.3672 49.2578 39.38 49.2578 40.625C49.2578 41.87 48.245 42.8828 47 42.8828C45.755 42.8828 44.7422 41.87 44.7422 40.625ZM64 33.9844C65.245 33.9844 66.2578 34.9972 66.2578 36.2422C66.2578 37.4872 65.245 38.5 64 38.5C62.755 38.5 61.7422 37.4872 61.7422 36.2422C61.7422 34.9972 62.755 33.9844 64 33.9844ZM64 94.0156C53.8939 94.0156 45.6719 85.7936 45.6719 75.6875C45.6719 65.5814 53.8939 57.3594 64 57.3594C74.1061 57.3594 82.3281 65.5814 82.3281 75.6875C82.3281 85.7936 74.1061 94.0156 64 94.0156Z" fill="black"/>
<path d="M74.53 68.6335L64.9675 63.321C64.3659 62.9867 63.6342 62.9867 63.0326 63.321L53.4701 68.6335C52.8376 68.9848 52.4453 69.6515 52.4453 70.375V81C52.4453 81.7234 52.8376 82.3901 53.47 82.7414L63.0325 88.0539C63.3333 88.2211 63.6666 88.3047 64 88.3047C64.3334 88.3047 64.6667 88.2211 64.9675 88.0539L74.53 82.7414C75.1624 82.3901 75.5547 81.7234 75.5547 81V70.375C75.5547 69.6515 75.1624 68.9848 74.53 68.6335ZM71.5703 79.8278L64 84.0335L56.4297 79.8278V71.5472L64 67.3414L71.5703 71.5472V79.8278Z" fill="black"/>
</g>
<defs>
<clipPath id="clip0_8_1296">
<rect width="68" height="68" fill="white" transform="translate(30 30)"/>
</clipPath>
</defs>
</svg>
