<svg width="57" height="55" viewBox="0 0 57 55" fill="none" xmlns="http://www.w3.org/2000/svg">
<path d="M53.1348 28.1014C53.1348 14.8631 42.0826 4.09029 28.5008 4.09029C14.9191 4.09029 3.86689 14.8631 3.86689 28.1014C3.86689 41.3398 14.9191 52.1126 28.5008 52.1126C42.0826 52.1126 53.1348 41.3398 53.1348 28.1014ZM28.5008 49.7135C16.2759 49.7135 6.32823 40.0173 6.32823 28.1014C6.32823 16.1856 16.2759 6.48941 28.5008 6.48941C40.7257 6.48941 50.6734 16.1856 50.6734 28.1014C50.6734 40.0173 40.7257 49.7135 28.5008 49.7135Z" fill="#003565"/>
<path d="M28.5008 10.0914C18.3145 10.0914 10.0237 18.1727 10.0237 28.1014C10.0237 38.0302 18.3145 46.1115 28.5008 46.1115C38.6871 46.1115 46.978 38.0302 46.978 28.1014C46.978 18.1727 38.6871 10.0914 28.5008 10.0914ZM28.5008 43.7057C19.6713 43.7057 12.4918 36.7077 12.4918 28.1014C12.4918 19.4952 19.6713 12.4972 28.5008 12.4972C37.3303 12.4972 44.5098 19.4952 44.5098 28.1014C44.5098 36.7077 37.3303 43.7057 28.5008 43.7057Z" fill="#003565"/>
<path d="M3.86689 44.9086C1.82826 44.9086 0.171455 46.5235 0.171455 48.5106C0.171455 50.4977 1.82826 52.1126 3.86689 52.1126C5.90551 52.1126 7.56232 50.4977 7.56232 48.5106C7.56232 46.5235 5.90551 44.9086 3.86689 44.9086ZM3.86689 49.7135C3.18507 49.7135 2.6328 49.1752 2.6328 48.5106C2.6328 47.846 3.18507 47.3077 3.86689 47.3077C4.5487 47.3077 5.10097 47.846 5.10097 48.5106C5.10097 49.1752 4.5487 49.7135 3.86689 49.7135Z" fill="#003565"/>
<path d="M52.5143 1.69116C50.1348 1.69116 48.2052 3.57856 48.2052 5.89129C48.2052 8.20402 50.1416 10.0914 52.5143 10.0914C54.887 10.0914 56.8234 8.20402 56.8234 5.89129C56.8234 3.57856 54.887 1.69116 52.5143 1.69116ZM52.5143 7.69229C51.4984 7.69229 50.6666 6.88151 50.6666 5.89129C50.6666 4.90107 51.4984 4.09029 52.5143 4.09029C53.5302 4.09029 54.362 4.90107 54.362 5.89129C54.362 6.88151 53.5302 7.69229 52.5143 7.69229Z" fill="#003565"/>
<path d="M40.8144 2.89405C41.4959 2.89405 42.0485 2.3555 42.0485 1.69116C42.0485 1.02683 41.4959 0.488281 40.8144 0.488281C40.1328 0.488281 39.5803 1.02683 39.5803 1.69116C39.5803 2.3555 40.1328 2.89405 40.8144 2.89405Z" fill="#003565"/>
<path d="M8.7964 4.09029C9.47797 4.09029 10.0305 3.55174 10.0305 2.8874C10.0305 2.22307 9.47797 1.68452 8.7964 1.68452C8.11483 1.68452 7.56232 2.22307 7.56232 2.8874C7.56232 3.55174 8.11483 4.09029 8.7964 4.09029Z" fill="#003565"/>
<path d="M2.6328 13.6934C3.31437 13.6934 3.86689 13.1549 3.86689 12.4905C3.86689 11.8262 3.31437 11.2877 2.6328 11.2877C1.95124 11.2877 1.39872 11.8262 1.39872 12.4905C1.39872 13.1549 1.95124 13.6934 2.6328 13.6934Z" fill="#003565"/>
<path d="M11.2577 54.5117C11.9393 54.5117 12.4918 53.9732 12.4918 53.3088C12.4918 52.6445 11.9393 52.1059 11.2577 52.1059C10.5762 52.1059 10.0237 52.6445 10.0237 53.3088C10.0237 53.9732 10.5762 54.5117 11.2577 54.5117Z" fill="#003565"/>
<path d="M46.9712 54.5117C47.6527 54.5117 48.2052 53.9732 48.2052 53.3088C48.2052 52.6445 47.6527 52.1059 46.9712 52.1059C46.2896 52.1059 45.7371 52.6445 45.7371 53.3088C45.7371 53.9732 46.2896 54.5117 46.9712 54.5117Z" fill="#003565"/>
<path d="M53.1348 44.9086C53.8163 44.9086 54.3688 44.37 54.3688 43.7057C54.3688 43.0414 53.8163 42.5028 53.1348 42.5028C52.4532 42.5028 51.9007 43.0414 51.9007 43.7057C51.9007 44.37 52.4532 44.9086 53.1348 44.9086Z" fill="#003565"/>
<path d="M34.3644 19.4021C34.1462 19.03 33.7372 18.804 33.3008 18.804H23.7077C23.2645 18.804 22.8622 19.03 22.644 19.4021L17.8441 27.5033C17.6259 27.8755 17.6259 28.334 17.8441 28.7062L22.644 36.8074C22.8622 37.1796 23.2713 37.4055 23.7077 37.4055H33.3008C33.744 37.4055 34.1462 37.1796 34.3644 36.8074L39.1644 28.7062C39.3826 28.334 39.3826 27.8755 39.1644 27.5033L34.3644 19.4021ZM32.5849 34.9997H24.4099L20.3259 28.1014L24.4099 21.2031H32.5849L36.6689 28.1014L32.5849 34.9997Z" fill="#003565"/>
</svg>
