<svg width="70" height="104" viewBox="0 0 70 104" fill="none" xmlns="http://www.w3.org/2000/svg">
<path d="M50.7704 39.9769V35.6735L56.3841 30.0597C57.6406 30.6857 59.0553 31.0396 60.5518 31.0396C65.7253 31.0396 69.9341 26.8308 69.9341 21.6574C69.9341 16.484 65.7253 12.2752 60.5518 12.2752C55.3784 12.2752 51.1696 16.484 51.1696 21.6574C51.1696 23.154 51.5235 24.5687 52.1496 25.8253L45.6589 32.316C45.0973 32.8776 44.7817 33.6391 44.7817 34.4332V37.4866C42.6044 36.8215 40.3335 36.3733 37.9946 36.1653V19.1683C41.7035 17.9155 44.3825 14.4053 44.3825 10.279C44.3825 5.10556 40.1736 0.896729 35.0002 0.896729C29.8268 0.896729 25.618 5.10556 25.618 10.279C25.618 14.4053 28.2969 17.9155 32.0059 19.1683V36.1653C29.6669 36.3733 27.396 36.8215 25.2188 37.4866V29.6423C25.2188 28.8482 24.9032 28.0866 24.3416 27.5251L17.8509 21.0344C18.4769 19.7778 18.8309 18.363 18.8309 16.8665C18.8309 11.6931 14.622 7.48425 9.44864 7.48425C4.27524 7.48425 0.0664062 11.6931 0.0664062 16.8665C0.0664062 22.0399 4.27524 26.2487 9.44864 26.2487C10.9452 26.2487 12.3599 25.8948 13.6163 25.2688L19.2301 30.8825V39.9769C8.66692 45.6294 1.46376 56.7719 1.46376 69.5667C1.46376 88.0589 16.5081 103.103 35.0002 103.103C53.4924 103.103 68.5367 88.0589 68.5367 69.5667C68.5367 56.7719 61.3336 45.6294 50.7704 39.9769ZM60.5518 18.2638C62.4231 18.2638 63.9454 19.7862 63.9454 21.6574C63.9454 23.5287 62.4231 25.051 60.5518 25.051C58.6806 25.051 57.1583 23.5287 57.1583 21.6574C57.1583 19.7862 58.6806 18.2638 60.5518 18.2638ZM6.05506 16.8665C6.05506 14.9952 7.57738 13.4729 9.44864 13.4729C11.3199 13.4729 12.8422 14.9952 12.8422 16.8665C12.8422 18.7377 11.3199 20.2601 9.44864 20.2601C7.57738 20.2601 6.05506 18.7377 6.05506 16.8665ZM35.0002 6.88539C36.8715 6.88539 38.3938 8.4077 38.3938 10.279C38.3938 12.1502 36.8715 13.6725 35.0002 13.6725C33.129 13.6725 31.6067 12.1502 31.6067 10.279C31.6067 8.4077 33.129 6.88539 35.0002 6.88539ZM35.0002 97.1145C19.8104 97.1145 7.45242 84.7565 7.45242 69.5667C7.45242 54.3768 19.8104 42.0188 35.0002 42.0188C50.1901 42.0188 62.5481 54.3768 62.5481 69.5667C62.5481 84.7565 50.1901 97.1145 35.0002 97.1145Z" fill="#B69021"/>
<path d="M50.8274 58.9643L36.4547 50.9794C35.5504 50.4769 34.4507 50.4769 33.5464 50.9794L19.1736 58.9643C18.223 59.4923 17.6333 60.4944 17.6333 61.5817V77.5515C17.6333 78.6388 18.223 79.6409 19.1734 80.1689L33.5462 88.1538C33.9983 88.4051 34.4994 88.5307 35.0004 88.5307C35.5015 88.5307 36.0025 88.4051 36.4547 88.1538L50.8274 80.1689C51.7778 79.6409 52.3675 78.6388 52.3675 77.5515V61.5817C52.3675 60.4944 51.7778 59.4923 50.8274 58.9643ZM46.3789 75.7896L35.0004 82.111L23.622 75.7896V63.3436L35.0004 57.0221L46.3789 63.3436V75.7896Z" fill="#B69021"/>
</svg>
